<svg xmlns="http://www.w3.org/2000/svg" viewBox="0 0 640 450"><linearGradient id="a" x1="50%" x2="50%" y1="0%" y2="100%"><stop offset="0" stop-color="#fc55ff"/><stop offset="1" stop-color="#862aff"/></linearGradient><g fill="none" fill-rule="evenodd"><path fill="#202124" d="M0 0h640v450H0z"/><g stroke="url(#a)" transform="translate(161 38)"><path d="M69.5 93.9c165-173.7 247.5-62 247.5 0s0 397-123.8 235.7C69.5 168.3-95.6 267.6 69.5 93.9z"/><path d="M71.2 95.6C233-74.8 314 34.8 314 95.6c0 60.9 0 389.5-121.4 231.3C71.2 168.6-90.8 266 71.2 95.6z"/><path d="M72.8 97.4C231.6-69.8 311 37.7 311 97.4s0 382-119 226.8C72.7 169-86 264.5 72.7 97.4z"/><path d="M74.5 99.1C230.2-64.7 308 40.6 308 99.1s0 374.6-116.7 222.4C74.5 169.4-81.1 263 74.5 99.1z"/><path d="M76.2 100.9C228.8-59.7 305 43.5 305 100.9c0 57.3 0 367-114.4 218-114.4-149.2-267-57.4-114.4-218z"/><path d="M77.9 102.6C227.3-54.7 302 46.4 302 102.6s0 359.6-112 213.5C77.9 170.1-71.5 260 77.9 102.6z"/><path d="M79.6 104.4c146.3-154 219.4-55 219.4 0s0 352.1-109.7 209c-109.7-143-256-55-109.7-209z"/><path d="M81.3 106.1C224.4-44.7 296 52.3 296 106.1c0 53.9 0 344.7-107.4 204.7C81.3 170.8-61.9 256.9 81.3 106z"/><path d="M83 107.9c140-147.5 210-52.7 210 0S293 445 188 308-57.1 255.4 83 107.9z"/><path d="M84.6 109.6c137-144.2 205.4-51.5 205.4 0 0 51.6 0 329.8-102.7 195.8S-52.3 254 84.6 109.6z"/><path d="M86.3 111.4C220.1-29.6 287 61 287 111.4c0 50.3 0 322.3-100.3 191.3C86.3 171.8-47.5 252.4 86.3 111.4z"/><path d="M88 113.1c130.7-137.7 196-49.2 196 0s0 314.8-98 187C88 172-42.7 250.9 88 113z"/><path d="M89.7 114.9c127.5-134.5 191.3-48 191.3 0s0 307.3-95.6 182.5C89.7 172.5-38 249.4 89.7 114.9z"/><path d="M91.4 116.6C215.8-14.6 278 69.8 278 116.6c0 46.9 0 300-93.3 178-93.3-121.7-217.8-46.8-93.3-178z"/><path d="M93 118.4c121.4-128 182-45.7 182 0s0 292.4-91 173.6C93 173.2-28.2 246.3 93 118.4z"/><path d="M94.8 120.1C212.9-4.5 272 75.6 272 120.1c0 44.6 0 285-88.6 169.2-88.6-115.7-206.8-44.5-88.6-169.2z"/><path d="M96.4 121.9C211.5.5 269 78.5 269 121.9s0 277.5-86.3 164.7C96.4 174-18.6 243.3 96.4 122z"/><path d="M98.1 123.6c112-118 168-42.1 168 0 0 42.2 0 270-84 160.4-84-109.7-196-42.2-84-160.4z"/><path d="M99.8 125.4c108.8-114.9 163.2-41 163.2 0s0 262.5-81.6 155.9C99.8 174.6-9 240.3 99.8 125.4z"/><path d="M101.5 127.2C207.2 15.6 260 87.3 260 127.2c0 39.8 0 255-79.2 151.4-79.3-103.6-185-39.9-79.3-151.4z"/><path d="M103.2 129C205.7 20.5 257 90.1 257 129c0 38.6 0 247.5-76.9 147-77-100.7-179.5-38.8-77-147z"/><path d="M104.9 130.7C204.3 25.6 254 93 254 130.7s0 240.1-74.6 142.5C105 175.7 5.4 235.7 105 130.7z"/><path d="M106.5 132.4C203 30.6 251 96.1 251 132.4c0 36.4 0 232.7-72.2 138.2s-168.6-36.4-72.3-138.2z"/><path d="M108.2 134.2C201.4 35.6 248 99 248 134.2c0 35.1 0 225.2-69.9 133.7s-163-35.2-69.9-133.7z"/><path d="M110 136c90-95.4 135-34.1 135 0s0 217.7-67.5 129.2c-67.6-88.5-157.6-34-67.6-129.3z"/><path d="M111.6 137.7c87-92 130.4-32.9 130.4 0s0 210.2-65.2 124.8c-65.2-85.4-152.1-32.8-65.2-124.8z"/><path d="M113.3 139.4c83.8-88.7 125.7-31.7 125.7 0s0 202.8-62.8 120.4-146.7-31.7-63-120.4z"/><path d="M115 141.2c80.7-85.5 121-30.6 121 0s0 195.3-60.5 116c-60.5-79.4-141.2-30.6-60.5-116z"/><path d="M116.7 143c77.5-82.3 116.3-29.4 116.3 0 0 29.3 0 187.8-58.2 111.5C116.7 178 39.1 225 116.7 142.9z"/><path d="M118.3 144.7c74.5-79 111.7-28.2 111.7 0s0 180.4-55.8 107c-55.9-73.2-130.3-28.1-55.9-107z"/><path d="M120 146.4c71.4-75.6 107-27 107 0s0 173-53.5 102.7-124.8-27-53.5-102.7z"/><path d="M121.7 148.2c68.2-72.4 102.3-25.9 102.3 0 0 25.8 0 165.5-51.1 98.2-51.2-67.2-119.4-25.8-51.2-98.2z"/><path d="M123.4 150c65-69.2 97.6-24.8 97.6 0s0 158-48.8 93.7-113.9-24.6-48.8-93.8z"/><path d="M125 151.7c62-65.9 93-23.6 93 0 0 23.5 0 150.5-46.4 89.4C125 179.9 63 217.5 125 151.7z"/><path d="M126.8 153.4c58.8-62.6 88.2-22.3 88.2 0s0 143.1-44.1 85c-44.1-58.1-103-22.4-44.1-85z"/><path d="M128.5 155.2c55.7-59.4 83.5-21.2 83.5 0s0 135.6-41.8 80.5c-41.7-55-97.4-21.2-41.7-80.5z"/><path d="M130.1 157c52.6-56.2 79-20.1 79 0 0 20 0 128.1-39.5 76s-92-20-39.5-76z"/><path d="M131.8 158.7c49.5-52.8 74.2-18.9 74.2 0 0 18.8 0 120.7-37 71.7-37.2-49-86.6-19-37.2-71.7z"/><path d="M133.5 160.4c46.4-49.5 69.5-17.7 69.5 0s0 113.3-34.7 67.3-81.1-17.7-34.8-67.3z"/><path d="M135.2 162.2c43.2-46.3 64.8-16.6 64.8 0 0 16.5 0 105.8-32.4 62.8s-75.6-16.5-32.4-62.8z"/><path d="M136.9 164c40-43.1 60.1-15.4 60.1 0s0 98.3-30 58.3c-30.1-40-70.2-15.3-30.1-58.4z"/><path d="M138.6 165.7c37-39.8 55.4-14.2 55.4 0s0 90.9-27.7 54c-27.7-37-64.7-14.3-27.7-54z"/><path d="M140.3 167.4c33.8-36.5 50.7-13 50.7 0s0 83.5-25.4 49.6-59.2-13-25.3-49.6z"/><path d="M142 169.2c30.7-33.3 46-12 46 0s0 76-23 45.1-53.8-11.9-23-45.1z"/><path d="M143.6 171c27.6-30.1 41.4-10.8 41.4 0 0 10.6 0 68.5-20.7 40.6-20.7-27.8-48.3-10.7-20.7-40.7z"/><path d="M145.3 172.6c24.5-26.7 36.7-9.5 36.7 0s0 61.2-18.3 36.4-42.8-9.6-18.4-36.4z"/><path d="M147 174.4c21.4-23.5 32-8.4 32 0s0 53.7-16 31.9c-16-21.8-37.3-8.4-16-32z"/><path d="M148.7 176.1c18.2-20.3 27.3-7.2 27.3 0s0 46.4-13.6 27.5c-13.7-18.8-32-7.2-13.7-27.5z"/><path d="M150.4 177.9c15-17 22.6-6.1 22.6 0s0 38.9-11.3 23c-11.3-15.7-26.4-6-11.3-23z"/><path d="M152 179.5c12-14 18-5 18 0s0 32-9 19-21-5-9-19z"/></g></g></svg>
