<svg xmlns="http://www.w3.org/2000/svg" viewBox="0 0 640 450"><defs><radialGradient id="a" cy="0%" r="121.19%" fx="50%" fy="0%" gradientTransform="matrix(0 .82515 -1 0 .5 -.41)"><stop offset="0%" stop-color="red"/><stop offset="100%" stop-color="#FF0092"/></radialGradient><radialGradient id="b" cy="0%" r="122.41%" fx="50%" fy="0%" gradientTransform="matrix(0 .8169 -1 0 .5 -.4)"><stop offset="0%" stop-color="red"/><stop offset="100%" stop-color="#FF0092"/></radialGradient></defs><g fill="none" fill-rule="evenodd"><path fill="#202124" d="M0 0h640v450H0z"/><path fill="#202124" d="M0-95h640v640H0z"/><path stroke="url(#a)" d="M433 369.53c45-48 35-56 46-11s-91 59-46 11z" opacity=".01" transform="rotate(-108 450.65 364.16)"/><path stroke="url(#a)" d="M431 367.53c45-48 35-56 46-11s-91 59-46 11z" opacity=".02" transform="rotate(-110 448.65 362.16)"/><path stroke="url(#a)" d="M429 365.53c45-48 35-56 46-11s-91 59-46 11z" opacity=".02" transform="rotate(-112 446.65 360.16)"/><path stroke="url(#a)" d="M427 363.53c45-48 35-56 46-11s-91 59-46 11z" opacity=".03" transform="rotate(-114 444.65 358.16)"/><path stroke="url(#a)" d="M425 361.53c45-48 35-56 46-11s-91 59-46 11z" opacity=".04" transform="rotate(-116 442.65 356.16)"/><path stroke="url(#a)" d="M423 359.53c45-48 35-56 46-11s-91 59-46 11z" opacity=".05" transform="rotate(-118 440.65 354.16)"/><path stroke="url(#a)" d="M421 357.53c45-48 35-56 46-11s-91 59-46 11z" opacity=".05" transform="rotate(-120 438.65 352.16)"/><path stroke="url(#a)" d="M419 355.53c45-48 35-56 46-11s-91 59-46 11z" opacity=".06" transform="rotate(-122 436.65 350.16)"/><path stroke="url(#a)" d="M417 353.53c45-48 35-56 46-11s-91 59-46 11z" opacity=".07" transform="rotate(-124 434.65 348.16)"/><path stroke="url(#a)" d="M415 351.53c45-48 35-56 46-11s-91 59-46 11z" opacity=".08" transform="rotate(-126 432.65 346.16)"/><path stroke="url(#a)" d="M413 349.53c45-48 35-56 46-11s-91 59-46 11z" opacity=".09" transform="rotate(-128 430.65 344.16)"/><path stroke="url(#a)" d="M411 347.53c45-48 35-56 46-11s-91 59-46 11z" opacity=".09" transform="rotate(-130 428.65 342.16)"/><path stroke="url(#a)" d="M409 345.53c45-48 35-56 46-11s-91 59-46 11z" opacity=".1" transform="rotate(-132 426.65 340.16)"/><path stroke="url(#a)" d="M407 343.53c45-48 35-56 46-11s-91 59-46 11z" opacity=".11" transform="rotate(-134 424.65 338.16)"/><path stroke="url(#a)" d="M405 341.53c45-48 35-56 46-11s-91 59-46 11z" opacity=".12" transform="rotate(-136 422.65 336.16)"/><path stroke="url(#a)" d="M403 339.53c45-48 35-56 46-11s-91 59-46 11z" opacity=".13" transform="rotate(-138 420.65 334.16)"/><path stroke="url(#a)" d="M401 337.53c45-48 35-56 46-11s-91 59-46 11z" opacity=".13" transform="rotate(-140 418.65 332.16)"/><path stroke="url(#a)" d="M399 335.53c45-48 35-56 46-11s-91 59-46 11z" opacity=".14" transform="rotate(-142 416.65 330.16)"/><path stroke="url(#a)" d="M397 333.53c45-48 35-56 46-11s-91 59-46 11z" opacity=".15" transform="rotate(-144 414.65 328.16)"/><path stroke="url(#a)" d="M395 331.53c45-48 35-56 46-11s-91 59-46 11z" opacity=".16" transform="rotate(-146 412.65 326.16)"/><path stroke="url(#a)" d="M393 329.53c45-48 35-56 46-11s-91 59-46 11z" opacity=".16" transform="rotate(-148 410.65 324.16)"/><path stroke="url(#a)" d="M391 327.53c45-48 35-56 46-11s-91 59-46 11z" opacity=".17" transform="rotate(-150 408.65 322.16)"/><path stroke="url(#a)" d="M389 325.53c45-48 35-56 46-11s-91 59-46 11z" opacity=".18" transform="rotate(-152 406.65 320.16)"/><path stroke="url(#a)" d="M387 323.53c45-48 35-56 46-11s-91 59-46 11z" opacity=".19" transform="rotate(-154 404.65 318.16)"/><path stroke="url(#a)" d="M385 321.53c45-48 35-56 46-11s-91 59-46 11z" opacity=".2" transform="rotate(-156 402.65 316.16)"/><path stroke="url(#a)" d="M383 319.53c45-48 35-56 46-11s-91 59-46 11z" opacity=".2" transform="rotate(-158 400.65 314.16)"/><path stroke="url(#a)" d="M381 317.53c45-48 35-56 46-11s-91 59-46 11z" opacity=".21" transform="rotate(-160 398.65 312.16)"/><path stroke="url(#a)" d="M379 315.53c45-48 35-56 46-11s-91 59-46 11z" opacity=".22" transform="rotate(-162 396.65 310.16)"/><path stroke="url(#a)" d="M377 313.53c45-48 35-56 46-11s-91 59-46 11z" opacity=".23" transform="rotate(-164 394.65 308.16)"/><path stroke="url(#a)" d="M375 311.53c45-48 35-56 46-11s-91 59-46 11z" opacity=".23" transform="rotate(-166 392.65 306.16)"/><path stroke="url(#a)" d="M373 309.53c45-48 35-56 46-11s-91 59-46 11z" opacity=".24" transform="rotate(-168 390.65 304.16)"/><path stroke="url(#a)" d="M371 307.53c45-48 35-56 46-11s-91 59-46 11z" opacity=".25" transform="rotate(-170 388.65 302.16)"/><path stroke="url(#a)" d="M369 305.53c45-48 35-56 46-11s-91 59-46 11z" opacity=".26" transform="rotate(-172 386.65 300.16)"/><path stroke="url(#a)" d="M367 303.53c45-48 35-56 46-11s-91 59-46 11z" opacity=".27" transform="rotate(-174 384.65 298.16)"/><path stroke="url(#a)" d="M365 301.53c45-48 35-56 46-11s-91 59-46 11z" opacity=".27" transform="rotate(-176 382.65 296.16)"/><path stroke="url(#a)" d="M363 299.53c45-48 35-56 46-11s-91 59-46 11z" opacity=".28" transform="rotate(-178 380.65 294.16)"/><path stroke="url(#b)" d="M361.46 297.9c44.72-48.19 34.78-56.22 45.7-11.05 10.94 45.17-90.42 59.22-45.7 11.04z" opacity=".29" transform="rotate(180 379 292.5)"/><path stroke="url(#a)" d="M359 295.53c45-48 35-56 46-11s-91 59-46 11z" opacity=".3" transform="rotate(178 376.65 290.16)"/><path stroke="url(#a)" d="M357 293.53c45-48 35-56 46-11s-91 59-46 11z" opacity=".3" transform="rotate(176 374.65 288.16)"/><path stroke="url(#a)" d="M355 291.53c45-48 35-56 46-11s-91 59-46 11z" opacity=".31" transform="rotate(174 372.65 286.16)"/><path stroke="url(#a)" d="M353 289.53c45-48 35-56 46-11s-91 59-46 11z" opacity=".32" transform="rotate(172 370.65 284.16)"/><path stroke="url(#a)" d="M351 287.53c45-48 35-56 46-11s-91 59-46 11z" opacity=".33" transform="rotate(170 368.65 282.16)"/><path stroke="url(#a)" d="M349 285.53c45-48 35-56 46-11s-91 59-46 11z" opacity=".34" transform="rotate(168 366.65 280.16)"/><path stroke="url(#a)" d="M347 283.53c45-48 35-56 46-11s-91 59-46 11z" opacity=".34" transform="rotate(166 364.65 278.16)"/><path stroke="url(#a)" d="M345 281.53c45-48 35-56 46-11s-91 59-46 11z" opacity=".35" transform="rotate(164 362.65 276.16)"/><path stroke="url(#a)" d="M343 279.53c45-48 35-56 46-11s-91 59-46 11z" opacity=".36" transform="rotate(162 360.65 274.16)"/><path stroke="url(#a)" d="M341 277.53c45-48 35-56 46-11s-91 59-46 11z" opacity=".37" transform="rotate(160 358.65 272.16)"/><path stroke="url(#a)" d="M339 275.53c45-48 35-56 46-11s-91 59-46 11z" opacity=".38" transform="rotate(158 356.65 270.16)"/><path stroke="url(#a)" d="M337 273.53c45-48 35-56 46-11s-91 59-46 11z" opacity=".38" transform="rotate(156 354.65 268.16)"/><path stroke="url(#a)" d="M335 271.53c45-48 35-56 46-11s-91 59-46 11z" opacity=".39" transform="rotate(154 352.65 266.16)"/><path stroke="url(#a)" d="M333 269.53c45-48 35-56 46-11s-91 59-46 11z" opacity=".4" transform="rotate(152 350.65 264.16)"/><path stroke="url(#a)" d="M331 267.53c45-48 35-56 46-11s-91 59-46 11z" opacity=".41" transform="rotate(150 348.65 262.16)"/><path stroke="url(#a)" d="M329 265.53c45-48 35-56 46-11s-91 59-46 11z" opacity=".41" transform="rotate(148 346.65 260.16)"/><path stroke="url(#a)" d="M327 263.53c45-48 35-56 46-11s-91 59-46 11z" opacity=".42" transform="rotate(146 344.65 258.16)"/><path stroke="url(#a)" d="M325 261.53c45-48 35-56 46-11s-91 59-46 11z" opacity=".43" transform="rotate(144 342.65 256.16)"/><path stroke="url(#a)" d="M323 259.53c45-48 35-56 46-11s-91 59-46 11z" opacity=".44" transform="rotate(142 340.65 254.16)"/><path stroke="url(#a)" d="M321 257.53c45-48 35-56 46-11s-91 59-46 11z" opacity=".45" transform="rotate(140 338.65 252.16)"/><path stroke="url(#a)" d="M319 255.53c45-48 35-56 46-11s-91 59-46 11z" opacity=".45" transform="rotate(138 336.65 250.16)"/><path stroke="url(#a)" d="M317 253.53c45-48 35-56 46-11s-91 59-46 11z" opacity=".46" transform="rotate(136 334.65 248.16)"/><path stroke="url(#a)" d="M315 251.53c45-48 35-56 46-11s-91 59-46 11z" opacity=".47" transform="rotate(134 332.65 246.16)"/><path stroke="url(#a)" d="M313 249.53c45-48 35-56 46-11s-91 59-46 11z" opacity=".48" transform="rotate(132 330.65 244.16)"/><path stroke="url(#a)" d="M311 247.53c45-48 35-56 46-11s-91 59-46 11z" opacity=".48" transform="rotate(130 328.65 242.16)"/><path stroke="url(#a)" d="M309 245.53c45-48 35-56 46-11s-91 59-46 11z" opacity=".49" transform="rotate(128 326.65 240.16)"/><path stroke="url(#a)" d="M307 243.53c45-48 35-56 46-11s-91 59-46 11z" opacity=".5" transform="rotate(126 324.65 238.16)"/><path stroke="url(#a)" d="M305 241.53c45-48 35-56 46-11s-91 59-46 11z" opacity=".51" transform="rotate(124 322.65 236.16)"/><path stroke="url(#a)" d="M303 239.53c45-48 35-56 46-11s-91 59-46 11z" opacity=".52" transform="rotate(122 320.65 234.16)"/><path stroke="url(#a)" d="M301 237.53c45-48 35-56 46-11s-91 59-46 11z" opacity=".52" transform="rotate(120 318.65 232.16)"/><path stroke="url(#a)" d="M299 235.53c45-48 35-56 46-11s-91 59-46 11z" opacity=".53" transform="rotate(118 316.65 230.16)"/><path stroke="url(#a)" d="M297 233.53c45-48 35-56 46-11s-91 59-46 11z" opacity=".54" transform="rotate(116 314.65 228.16)"/><path stroke="url(#a)" d="M295 231.53c45-48 35-56 46-11s-91 59-46 11z" opacity=".55" transform="rotate(114 312.65 226.16)"/><path stroke="url(#a)" d="M293 229.53c45-48 35-56 46-11s-91 59-46 11z" opacity=".55" transform="rotate(112 310.65 224.16)"/><path stroke="url(#a)" d="M291 227.53c45-48 35-56 46-11s-91 59-46 11z" opacity=".56" transform="rotate(110 308.65 222.16)"/><path stroke="url(#a)" d="M289 225.53c45-48 35-56 46-11s-91 59-46 11z" opacity=".57" transform="rotate(108 306.65 220.16)"/><path stroke="url(#a)" d="M287 223.53c45-48 35-56 46-11s-91 59-46 11z" opacity=".58" transform="rotate(106 304.65 218.16)"/><path stroke="url(#a)" d="M285 221.53c45-48 35-56 46-11s-91 59-46 11z" opacity=".59" transform="rotate(104 302.65 216.16)"/><path stroke="url(#a)" d="M283 219.53c45-48 35-56 46-11s-91 59-46 11z" opacity=".59" transform="rotate(102 300.65 214.16)"/><path stroke="url(#a)" d="M281 217.53c45-48 35-56 46-11s-91 59-46 11z" opacity=".6" transform="rotate(100 298.65 212.16)"/><path stroke="url(#a)" d="M279 215.53c45-48 35-56 46-11s-91 59-46 11z" opacity=".61" transform="rotate(98 296.65 210.16)"/><path stroke="url(#a)" d="M277 213.53c45-48 35-56 46-11s-91 59-46 11z" opacity=".62" transform="rotate(96 294.65 208.16)"/><path stroke="url(#a)" d="M275 211.53c45-48 35-56 46-11s-91 59-46 11z" opacity=".63" transform="rotate(94 292.65 206.16)"/><path stroke="url(#a)" d="M273 209.53c45-48 35-56 46-11s-91 59-46 11z" opacity=".63" transform="rotate(92 290.65 204.16)"/><path stroke="url(#b)" d="M271.46 207.9c44.72-48.19 34.78-56.22 45.7-11.05 10.94 45.17-90.42 59.22-45.7 11.04z" opacity=".64" transform="rotate(90 289 202.5)"/><path stroke="url(#a)" d="M269 205.53c45-48 35-56 46-11s-91 59-46 11z" opacity=".65" transform="rotate(88 286.65 200.16)"/><path stroke="url(#a)" d="M267 203.53c45-48 35-56 46-11s-91 59-46 11z" opacity=".66" transform="rotate(86 284.65 198.16)"/><path stroke="url(#a)" d="M265 201.53c45-48 35-56 46-11s-91 59-46 11z" opacity=".66" transform="rotate(84 282.65 196.16)"/><path stroke="url(#a)" d="M263 199.53c45-48 35-56 46-11s-91 59-46 11z" opacity=".67" transform="rotate(82 280.65 194.16)"/><path stroke="url(#a)" d="M261 197.53c45-48 35-56 46-11s-91 59-46 11z" opacity=".68" transform="rotate(80 278.65 192.16)"/><path stroke="url(#a)" d="M259 195.53c45-48 35-56 46-11s-91 59-46 11z" opacity=".69" transform="rotate(78 276.65 190.16)"/><path stroke="url(#a)" d="M257 193.53c45-48 35-56 46-11s-91 59-46 11z" opacity=".7" transform="rotate(76 274.65 188.16)"/><path stroke="url(#a)" d="M255 191.53c45-48 35-56 46-11s-91 59-46 11z" opacity=".7" transform="rotate(74 272.65 186.16)"/><path stroke="url(#a)" d="M253 189.53c45-48 35-56 46-11s-91 59-46 11z" opacity=".71" transform="rotate(72 270.65 184.16)"/><path stroke="url(#a)" d="M251 187.53c45-48 35-56 46-11s-91 59-46 11z" opacity=".72" transform="rotate(70 268.65 182.16)"/><path stroke="url(#a)" d="M249 185.53c45-48 35-56 46-11s-91 59-46 11z" opacity=".73" transform="rotate(68 266.65 180.16)"/><path stroke="url(#a)" d="M247 183.53c45-48 35-56 46-11s-91 59-46 11z" opacity=".73" transform="rotate(66 264.65 178.16)"/><path stroke="url(#a)" d="M245 181.53c45-48 35-56 46-11s-91 59-46 11z" opacity=".74" transform="rotate(64 262.65 176.16)"/><path stroke="url(#a)" d="M243 179.53c45-48 35-56 46-11s-91 59-46 11z" opacity=".75" transform="rotate(62 260.65 174.16)"/><path stroke="url(#a)" d="M241 177.53c45-48 35-56 46-11s-91 59-46 11z" opacity=".76" transform="rotate(60 258.65 172.16)"/><path stroke="url(#a)" d="M239 175.53c45-48 35-56 46-11s-91 59-46 11z" opacity=".77" transform="rotate(58 256.65 170.16)"/><path stroke="url(#a)" d="M237 173.53c45-48 35-56 46-11s-91 59-46 11z" opacity=".77" transform="rotate(56 254.65 168.16)"/><path stroke="url(#a)" d="M235 171.53c45-48 35-56 46-11s-91 59-46 11z" opacity=".78" transform="rotate(54 252.65 166.16)"/><path stroke="url(#a)" d="M233 169.53c45-48 35-56 46-11s-91 59-46 11z" opacity=".79" transform="rotate(52 250.65 164.16)"/><path stroke="url(#a)" d="M231 167.53c45-48 35-56 46-11s-91 59-46 11z" opacity=".8" transform="rotate(50 248.65 162.16)"/><path stroke="url(#a)" d="M229 165.53c45-48 35-56 46-11s-91 59-46 11z" opacity=".8" transform="rotate(48 246.65 160.16)"/><path stroke="url(#a)" d="M227 163.53c45-48 35-56 46-11s-91 59-46 11z" opacity=".81" transform="rotate(46 244.65 158.16)"/><path stroke="url(#a)" d="M225 161.53c45-48 35-56 46-11s-91 59-46 11z" opacity=".82" transform="rotate(44 242.65 156.16)"/><path stroke="url(#a)" d="M223 159.53c45-48 35-56 46-11s-91 59-46 11z" opacity=".83" transform="rotate(42 240.65 154.16)"/><path stroke="url(#a)" d="M221 157.53c45-48 35-56 46-11s-91 59-46 11z" opacity=".84" transform="rotate(40 238.65 152.16)"/><path stroke="url(#a)" d="M219 155.53c45-48 35-56 46-11s-91 59-46 11z" opacity=".84" transform="rotate(38 236.65 150.16)"/><path stroke="url(#a)" d="M217 153.53c45-48 35-56 46-11s-91 59-46 11z" opacity=".85" transform="rotate(36 234.65 148.16)"/><path stroke="url(#a)" d="M215 151.53c45-48 35-56 46-11s-91 59-46 11z" opacity=".86" transform="rotate(34 232.65 146.16)"/><path stroke="url(#a)" d="M213 149.53c45-48 35-56 46-11s-91 59-46 11z" opacity=".87" transform="rotate(32 230.65 144.16)"/><path stroke="url(#a)" d="M211 147.53c45-48 35-56 46-11s-91 59-46 11z" opacity=".88" transform="rotate(30 228.65 142.16)"/><path stroke="url(#a)" d="M209 145.53c45-48 35-56 46-11s-91 59-46 11z" opacity=".88" transform="rotate(28 226.65 140.16)"/><path stroke="url(#a)" d="M207 143.53c45-48 35-56 46-11s-91 59-46 11z" opacity=".89" transform="rotate(26 224.65 138.16)"/><path stroke="url(#a)" d="M205 141.53c45-48 35-56 46-11s-91 59-46 11z" opacity=".9" transform="rotate(24 222.65 136.16)"/><path stroke="url(#a)" d="M203 139.53c45-48 35-56 46-11s-91 59-46 11z" opacity=".91" transform="rotate(22 220.65 134.16)"/><path stroke="url(#a)" d="M201 137.53c45-48 35-56 46-11s-91 59-46 11z" opacity=".91" transform="rotate(20 218.65 132.16)"/><path stroke="url(#a)" d="M199 135.53c45-48 35-56 46-11s-91 59-46 11z" opacity=".92" transform="rotate(18 216.65 130.16)"/><path stroke="url(#a)" d="M197 133.53c45-48 35-56 46-11s-91 59-46 11z" opacity=".93" transform="rotate(16 214.65 128.16)"/><path stroke="url(#a)" d="M195 131.53c45-48 35-56 46-11s-91 59-46 11z" opacity=".94" transform="rotate(14 212.65 126.16)"/><path stroke="url(#a)" d="M193 129.53c45-48 35-56 46-11s-91 59-46 11z" opacity=".95" transform="rotate(12 210.65 124.16)"/><path stroke="url(#a)" d="M191 127.53c45-48 35-56 46-11s-91 59-46 11z" opacity=".95" transform="rotate(10 208.65 122.16)"/><path stroke="url(#a)" d="M189 125.53c45-48 35-56 46-11s-91 59-46 11z" opacity=".96" transform="rotate(8 206.65 120.16)"/><path stroke="url(#a)" d="M187 123.53c45-48 35-56 46-11s-91 59-46 11z" opacity=".97" transform="rotate(6 204.65 118.16)"/><path stroke="url(#a)" d="M185 121.53c45-48 35-56 46-11s-91 59-46 11z" opacity=".98" transform="rotate(4 202.65 116.16)"/><path stroke="url(#a)" d="M183 119.53c45-48 35-56 46-11s-91 59-46 11z" opacity=".98" transform="rotate(2 200.65 114.16)"/><path stroke="url(#b)" d="M181.46 117.9c44.72-48.19 34.78-56.22 45.7-11.05 10.94 45.17-90.42 59.22-45.7 11.04z" opacity=".99"/></g></svg>
