<svg xmlns="http://www.w3.org/2000/svg" viewBox="0 0 512 512">
  <path d="M99.9 287.8a31.8 31.8 0 0 0 32.6-33.1c0-19.7-13-33.2-32.6-33.2-19.9 0-32.5 15-32.5 33.5a31.8 31.8 0 0 0 32.5 32.8zM64 355H44V203h20.3l-.3 16c8-12.7 24.2-18.6 38-18.6 30.7.2 52 23.1 52 54.6s-20 54-52 54c-12.6 0-30.3-5.1-38-18v64zm161-134.3c-18.2 0-32.6 12.4-32.6 33.8 0 20.9 14.4 34 32.6 34 18 0 32.9-13.5 32.9-34 0-20.1-14.9-33.8-32.9-33.8zm35-61.7h20v148h-20v-16c-8.2 13.3-22.6 17.7-36.4 17.7-30 0-52.8-19.3-52.8-53.7 0-35.5 22.4-54.8 52.3-54.8 12.6 0 30.2 6.6 36.9 18.8v-60zm115 43.3h18.7l24.7 82 25.5-82H468l-36.2 104.8h-25.1l-12.2-34.7-10-36.3-10.3 36.3-12.1 34.7H337l-36.4-104.8h24.3l25.5 82 24.7-82z"/>
</svg>