<svg xmlns="http://www.w3.org/2000/svg" viewBox="0 0 640 640">
  <defs>
    <linearGradient id="a" x1="50%" x2="50%" y1="0%" y2="98.1%">
      <stop offset="0%" stop-color="#25A4D1"/>
      <stop offset="100%" stop-color="#CB21EF"/>
    </linearGradient>
    <linearGradient id="b" x1="50%" x2="50%" y1="0%" y2="100%">
      <stop offset="0%" stop-color="#25A4D1"/>
      <stop offset="98.1%" stop-color="#CB21EF"/>
    </linearGradient>
    <linearGradient id="c" x1="50%" x2="50%" y1="0%" y2="100%">
      <stop offset="0%" stop-color="#25A4D1"/>
      <stop offset="98.1%" stop-color="#CB21EF"/>
    </linearGradient>
    <linearGradient id="d" x1="50%" x2="50%" y1="0%" y2="100%">
      <stop offset="0%" stop-color="#25A4D1"/>
      <stop offset="98.1%" stop-color="#CB21EF"/>
    </linearGradient>
    <linearGradient id="e" x1="50%" x2="50%" y1="0%" y2="100%">
      <stop offset="0%" stop-color="#25A4D1"/>
      <stop offset="98.1%" stop-color="#CB21EF"/>
    </linearGradient>
    <linearGradient id="f" x1="50%" x2="50%" y1="0%" y2="100%">
      <stop offset="0%" stop-color="#25A4D1"/>
      <stop offset="98.1%" stop-color="#CB21EF"/>
    </linearGradient>
    <linearGradient id="g" x1="50%" x2="50%" y1="0%" y2="100%">
      <stop offset="0%" stop-color="#25A4D1"/>
      <stop offset="98.1%" stop-color="#CB21EF"/>
    </linearGradient>
    <linearGradient id="h" x1="50%" x2="50%" y1="0%" y2="100%">
      <stop offset="0%" stop-color="#25A4D1"/>
      <stop offset="98.1%" stop-color="#CB21EF"/>
    </linearGradient>
    <linearGradient id="i" x1="50%" x2="50%" y1="0%" y2="100%">
      <stop offset="0%" stop-color="#25A4D1"/>
      <stop offset="98.1%" stop-color="#CB21EF"/>
    </linearGradient>
    <linearGradient id="j" x1="50%" x2="50%" y1="0%" y2="100%">
      <stop offset="0%" stop-color="#25A4D1"/>
      <stop offset="98.1%" stop-color="#CB21EF"/>
    </linearGradient>
    <linearGradient id="k" x1="50%" x2="50%" y1="0%" y2="100%">
      <stop offset="0%" stop-color="#25A4D1"/>
      <stop offset="98.1%" stop-color="#CB21EF"/>
    </linearGradient>
    <linearGradient id="l" x1="50%" x2="50%" y1="0%" y2="100%">
      <stop offset="0%" stop-color="#25A4D1"/>
      <stop offset="98.1%" stop-color="#CB21EF"/>
    </linearGradient>
    <linearGradient id="m" x1="50%" x2="50%" y1="0%" y2="100%">
      <stop offset="0%" stop-color="#25A4D1"/>
      <stop offset="98.1%" stop-color="#CB21EF"/>
    </linearGradient>
    <linearGradient id="n" x1="50%" x2="50%" y1="0%" y2="100%">
      <stop offset="0%" stop-color="#25A4D1"/>
      <stop offset="98.1%" stop-color="#CB21EF"/>
    </linearGradient>
    <linearGradient id="o" x1="50%" x2="50%" y1="0%" y2="100%">
      <stop offset="0%" stop-color="#25A4D1"/>
      <stop offset="98.1%" stop-color="#CB21EF"/>
    </linearGradient>
    <linearGradient id="p" x1="50%" x2="50%" y1="0%" y2="100%">
      <stop offset="0%" stop-color="#25A4D1"/>
      <stop offset="98.1%" stop-color="#CB21EF"/>
    </linearGradient>
    <linearGradient id="q" x1="50%" x2="50%" y1="0%" y2="100%">
      <stop offset="0%" stop-color="#25A4D1"/>
      <stop offset="98.1%" stop-color="#CB21EF"/>
    </linearGradient>
    <linearGradient id="r" x1="50%" x2="50%" y1="0%" y2="100%">
      <stop offset="0%" stop-color="#25A4D1"/>
      <stop offset="98.1%" stop-color="#CB21EF"/>
    </linearGradient>
    <linearGradient id="s" x1="50%" x2="50%" y1="0%" y2="100%">
      <stop offset="0%" stop-color="#25A4D1"/>
      <stop offset="98.1%" stop-color="#CB21EF"/>
    </linearGradient>
    <linearGradient id="t" x1="50%" x2="50%" y1="0%" y2="100%">
      <stop offset="0%" stop-color="#25A4D1"/>
      <stop offset="98.1%" stop-color="#CB21EF"/>
    </linearGradient>
    <linearGradient id="u" x1="50%" x2="50%" y1="0%" y2="100%">
      <stop offset="0%" stop-color="#25A4D1"/>
      <stop offset="98.1%" stop-color="#CB21EF"/>
    </linearGradient>
    <linearGradient id="v" x1="50%" x2="50%" y1="0%" y2="100%">
      <stop offset="0%" stop-color="#25A4D1"/>
      <stop offset="98.1%" stop-color="#CB21EF"/>
    </linearGradient>
    <linearGradient id="w" x1="50%" x2="50%" y1="0%" y2="100%">
      <stop offset="0%" stop-color="#25A4D1"/>
      <stop offset="98.1%" stop-color="#CB21EF"/>
    </linearGradient>
    <linearGradient id="x" x1="50%" x2="50%" y1="0%" y2="100%">
      <stop offset="0%" stop-color="#25A4D1"/>
      <stop offset="98.1%" stop-color="#CB21EF"/>
    </linearGradient>
    <linearGradient id="y" x1="50%" x2="50%" y1="0%" y2="100%">
      <stop offset="0%" stop-color="#25A4D1"/>
      <stop offset="98.1%" stop-color="#CB21EF"/>
    </linearGradient>
    <linearGradient id="z" x1="50%" x2="50%" y1="0%" y2="100%">
      <stop offset="0%" stop-color="#25A4D1"/>
      <stop offset="98.1%" stop-color="#CB21EF"/>
    </linearGradient>
    <linearGradient id="A" x1="50%" x2="50%" y1="0%" y2="100%">
      <stop offset="0%" stop-color="#25A4D1"/>
      <stop offset="98.1%" stop-color="#CB21EF"/>
    </linearGradient>
    <linearGradient id="B" x1="50%" x2="50%" y1="0%" y2="100%">
      <stop offset="0%" stop-color="#25A4D1"/>
      <stop offset="98.1%" stop-color="#CB21EF"/>
    </linearGradient>
    <linearGradient id="C" x1="50%" x2="50%" y1="0%" y2="100%">
      <stop offset="0%" stop-color="#25A4D1"/>
      <stop offset="98.1%" stop-color="#CB21EF"/>
    </linearGradient>
    <linearGradient id="D" x1="50%" x2="50%" y1="0%" y2="100%">
      <stop offset="0%" stop-color="#25A4D1"/>
      <stop offset="98.1%" stop-color="#CB21EF"/>
    </linearGradient>
    <linearGradient id="E" x1="50%" x2="50%" y1="0%" y2="100%">
      <stop offset="0%" stop-color="#25A4D1"/>
      <stop offset="98.1%" stop-color="#CB21EF"/>
    </linearGradient>
    <linearGradient id="F" x1="50%" x2="50%" y1="0%" y2="100%">
      <stop offset="0%" stop-color="#25A4D1"/>
      <stop offset="98.1%" stop-color="#CB21EF"/>
    </linearGradient>
    <linearGradient id="G" x1="50%" x2="50%" y1="0%" y2="100%">
      <stop offset="0%" stop-color="#25A4D1"/>
      <stop offset="98.1%" stop-color="#CB21EF"/>
    </linearGradient>
    <linearGradient id="H" x1="50%" x2="50%" y1="0%" y2="100%">
      <stop offset="0%" stop-color="#25A4D1"/>
      <stop offset="98.1%" stop-color="#CB21EF"/>
    </linearGradient>
    <linearGradient id="I" x1="50%" x2="50%" y1="0%" y2="100%">
      <stop offset="0%" stop-color="#25A4D1"/>
      <stop offset="98.1%" stop-color="#CB21EF"/>
    </linearGradient>
    <linearGradient id="J" x1="50%" x2="50%" y1="0%" y2="100%">
      <stop offset="0%" stop-color="#25A4D1"/>
      <stop offset="98.1%" stop-color="#CB21EF"/>
    </linearGradient>
    <linearGradient id="K" x1="50%" x2="50%" y1="0%" y2="100%">
      <stop offset="0%" stop-color="#25A4D1"/>
      <stop offset="98.1%" stop-color="#CB21EF"/>
    </linearGradient>
    <linearGradient id="L" x1="50%" x2="50%" y1="0%" y2="100%">
      <stop offset="0%" stop-color="#25A4D1"/>
      <stop offset="98.1%" stop-color="#CB21EF"/>
    </linearGradient>
    <linearGradient id="M" x1="50%" x2="50%" y1="0%" y2="100%">
      <stop offset="0%" stop-color="#25A4D1"/>
      <stop offset="98.1%" stop-color="#CB21EF"/>
    </linearGradient>
    <linearGradient id="N" x1="50%" x2="50%" y1="0%" y2="100%">
      <stop offset="0%" stop-color="#25A4D1"/>
      <stop offset="98.1%" stop-color="#CB21EF"/>
    </linearGradient>
    <linearGradient id="O" x1="50%" x2="50%" y1="0%" y2="100%">
      <stop offset="0%" stop-color="#25A4D1"/>
      <stop offset="98.1%" stop-color="#CB21EF"/>
    </linearGradient>
    <linearGradient id="P" x1="50%" x2="50%" y1="0%" y2="100%">
      <stop offset="0%" stop-color="#25A4D1"/>
      <stop offset="98.1%" stop-color="#CB21EF"/>
    </linearGradient>
    <linearGradient id="Q" x1="50%" x2="50%" y1="0%" y2="100%">
      <stop offset="0%" stop-color="#25A4D1"/>
      <stop offset="98.1%" stop-color="#CB21EF"/>
    </linearGradient>
    <linearGradient id="R" x1="50%" x2="50%" y1="0%" y2="100%">
      <stop offset="0%" stop-color="#25A4D1"/>
      <stop offset="98.1%" stop-color="#CB21EF"/>
    </linearGradient>
    <linearGradient id="S" x1="50%" x2="50%" y1="0%" y2="100%">
      <stop offset="0%" stop-color="#25A4D1"/>
      <stop offset="98.1%" stop-color="#CB21EF"/>
    </linearGradient>
    <linearGradient id="T" x1="50%" x2="50%" y1="0%" y2="100%">
      <stop offset="0%" stop-color="#25A4D1"/>
      <stop offset="98.1%" stop-color="#CB21EF"/>
    </linearGradient>
    <linearGradient id="U" x1="50%" x2="50%" y1="0%" y2="100%">
      <stop offset="0%" stop-color="#25A4D1"/>
      <stop offset="98.1%" stop-color="#CB21EF"/>
    </linearGradient>
    <linearGradient id="V" x1="50%" x2="50%" y1="0%" y2="100%">
      <stop offset="0%" stop-color="#25A4D1"/>
      <stop offset="98.1%" stop-color="#CB21EF"/>
    </linearGradient>
    <linearGradient id="W" x1="50%" x2="50%" y1="0%" y2="100%">
      <stop offset="0%" stop-color="#25A4D1"/>
      <stop offset="98.1%" stop-color="#CB21EF"/>
    </linearGradient>
    <linearGradient id="X" x1="50%" x2="50%" y1="0%" y2="100%">
      <stop offset="0%" stop-color="#25A4D1"/>
      <stop offset="98.1%" stop-color="#CB21EF"/>
    </linearGradient>
  </defs>
  <g fill="none" fill-rule="evenodd">
    <path stroke="url(#a)" d="M203 219c166.2-119 151.2-148.4 208.6-9.8 57.5 138.7-1.2 371.9-25 200C363 237.6 37 338.2 203 219.2z" transform="rotate(49 296 293.5)"/>
    <path stroke="url(#b)" d="M204.4 220.1C368 102.8 353.4 73.7 410 210.4c56.6 136.7-1.3 366.6-24.6 197.2-23.4-169.3-344.8-70.1-181-187.5z" transform="rotate(48 296 293.5)"/>
    <path stroke="url(#c)" d="M205.7 221.2c161.4-115.7 146.8-144.3 202.6-9.6 55.8 134.8-1.2 361.3-24.2 194.4C361 239 44.3 336.8 205.7 221.2z" transform="rotate(47 296 293.5)"/>
    <path stroke="url(#d)" d="M207 222.2c159-114 144.7-142.2 199.7-9.4 55 132.8-1.2 356-24 191.5C360 239.8 48 336.2 207 222.3z" transform="rotate(46 296 293.5)"/>
    <path stroke="url(#e)" d="M208.4 223.3C365 111 350.9 83.2 405 214c54.2 130.8-1.2 350.8-23.5 188.7-22.4-162-329.8-67.1-173.1-179.4z" transform="rotate(45 296 293.5)"/>
    <path stroke="url(#f)" d="M209.7 224.3c154.2-110.6 140.3-138 193.7-9.1 53.3 128.9-1.2 345.5-23.2 185.9-22-159.7-324.8-66.2-170.5-176.8z" transform="rotate(44 296 293.5)"/>
    <path stroke="url(#g)" d="M211 225.4c151.9-109 138.2-135.9 190.7-9s-1.1 340.2-22.8 183S59 334.3 211 225.4z" transform="rotate(43 296 293.5)"/>
    <path stroke="url(#h)" d="M212.3 226.4c149.6-107.2 136-133.7 187.8-8.8 51.7 125-1.2 335-22.5 180.2C356.2 243 62.8 333.7 212.3 226.4z" transform="rotate(42 296 293.5)"/>
    <path stroke="url(#i)" d="M213.7 227.5c147.1-105.6 133.8-131.7 184.7-8.7 51 123-1 329.7-22.1 177.3-21-152.3-309.8-63-162.6-168.6z" transform="rotate(41 296 293.5)"/>
    <path stroke="url(#j)" d="M215 228.5C359.8 124.7 346.7 99 396.8 220c50 121-1.1 324.4-21.8 174.5-20.7-149.9-304.8-62.1-160-166z" transform="rotate(40 296 293.5)"/>
    <path stroke="url(#k)" d="M216.3 229.6C358.7 127.4 346 102 395.1 221.2c49.3 119-1 319.1-21.4 171.7C353.4 245.4 74 331.8 216.3 229.6z" transform="rotate(39 296 293.5)"/>
    <path stroke="url(#l)" d="M217.7 230.6c140-100.5 127.3-125.3 175.8-8.2 48.4 117-1 313.9-21 168.8-20-145-294.8-60-154.8-160.6z" transform="rotate(38 296 293.5)"/>
    <path stroke="url(#m)" d="M219 231.7c137.6-98.8 125.2-123.3 172.8-8.2 47.6 115.2-1 308.7-20.7 166C351.5 247 81.4 330.6 219 231.8z" transform="rotate(37 296 293.5)"/>
    <path stroke="url(#n)" d="M220.3 232.8c135.3-97.2 123-121.2 169.9-8 46.7 113-1 303.3-20.4 163.1-19.3-140.1-284.7-58-149.5-155.1z" transform="rotate(36 296 293.5)"/>
    <path stroke="url(#o)" d="M221.7 233.8c132.8-95.4 120.9-119 166.8-7.9 46 111.2-1 298.2-20 160.4-19-137.7-279.7-57-146.8-152.5z" transform="rotate(35 296 293.5)"/>
    <path stroke="url(#p)" d="M223 234.9c130.5-93.8 118.7-117 163.9-7.8 45.1 109.2-1 292.9-19.7 157.6-18.6-135.3-274.7-56-144.2-149.8z" transform="rotate(34 296 293.5)"/>
    <path stroke="url(#q)" d="M224.3 236c128.2-92.2 116.6-115 161-7.7 44.2 107.3-1 287.6-19.4 154.7-18.3-132.9-269.7-55-141.6-147z" transform="rotate(33 296 293.5)"/>
    <path stroke="url(#r)" d="M225.6 237c125.8-90.4 114.5-112.8 158-7.5s-1 282.3-19 151.9c-18-130.5-264.7-54-139-144.4z" transform="rotate(32 296 293.5)"/>
    <path stroke="url(#s)" d="M227 238c123.4-88.7 112.2-110.6 155-7.3 42.6 103.3-1 277-18.6 149-17.7-128-259.8-53-136.4-141.7z" transform="rotate(31 296 293.5)"/>
    <path stroke="url(#t)" d="M228.3 239c121-87 110.1-108.5 152-7.1 41.8 101.4-1 271.8-18.2 146.2-17.3-125.6-254.8-52-133.8-139z" transform="rotate(30 296 293.5)"/>
    <path stroke="url(#u)" d="M229.6 240.1c118.7-85.3 108-106.4 149-7s-.9 266.5-17.8 143.4c-17-123.2-249.8-51-131.2-136.4z" transform="rotate(29 296 293.5)"/>
    <path stroke="url(#v)" d="M231 241.2c116.2-83.7 105.7-104.4 146-7 40.2 97.5-1 261.3-17.5 140.6-16.6-120.7-244.8-50-128.5-133.6z" transform="rotate(28 296 293.5)"/>
    <path stroke="url(#w)" d="M232.3 242.2c113.9-82 103.6-102.2 143-6.7 39.4 95.4-.8 256-17.1 137.7-16.3-118.3-239.8-49-126-131z" transform="rotate(27 296 293.5)"/>
    <path stroke="url(#x)" d="M233.6 243.3c111.5-80.3 101.5-100.1 140-6.6 38.6 93.5-.8 250.7-16.7 134.9-16-115.9-234.8-48-123.3-128.3z" transform="rotate(26 296 293.5)"/>
    <path stroke="url(#y)" d="M235 244.3c109.1-78.5 99.3-98 137-6.4 37.8 91.5-.8 245.4-16.4 132-15.6-113.4-229.8-47-120.7-125.6z" transform="rotate(25 296 293.5)"/>
    <path stroke="url(#z)" d="M236.3 245.4c106.8-76.9 97.1-96 134-6.3 37 89.5-.7 240.2-16 129.2s-224.8-46-118-123z" transform="rotate(24 296 293.5)"/>
    <path stroke="url(#A)" d="M237.6 246.4c104.4-75.2 95-93.8 131.1-6.2 36.1 87.7-.8 235-15.7 126.4-15-108.5-219.8-45-115.4-120.2z" transform="rotate(23 296 293.5)"/>
    <path stroke="url(#B)" d="M239 247.5c102-73.5 92.8-91.7 128-6 35.3 85.6-.7 229.6-15.3 123.5C337.1 258.9 137 321 239 247.5z" transform="rotate(22 296 293.5)"/>
    <path stroke="url(#C)" d="M240.3 248.6c99.6-71.9 90.6-89.7 125.1-6s-.7 224.4-15 120.8c-14.2-103.7-209.8-43-110.1-114.8z" transform="rotate(21 296 293.5)"/>
    <path stroke="url(#D)" d="M241.6 249.6c97.3-70.1 88.5-87.5 122.2-5.8 33.6 81.8-.8 219.2-14.7 118-13.9-101.3-204.8-42-107.5-112.2z" transform="rotate(20 296 293.5)"/>
    <path stroke="url(#E)" d="M243 250.7c94.8-68.5 86.3-85.5 119.1-5.7s-.7 213.9-14.3 115C334.3 261.4 148 319.2 243 250.8z" transform="rotate(19 296 293.5)"/>
    <path stroke="url(#F)" d="M244.2 251.7c92.6-66.8 84.2-83.3 116.3-5.5 32 77.8-.7 208.6-14 112.2-13.2-96.4-194.8-39.9-102.3-106.7z" transform="rotate(18 296 293.5)"/>
    <path stroke="url(#G)" d="M245.6 252.8c90.1-65.1 82-81.2 113.2-5.4 31.2 75.8-.7 203.4-13.6 109.4-12.8-94-189.8-39-99.6-104z" transform="rotate(17 296 293.5)"/>
    <path stroke="url(#H)" d="M246.9 253.8c87.8-63.4 79.9-79 110.2-5.2 30.4 73.9-.6 198-13.2 106.6-12.5-91.6-184.8-38-97-101.4z" transform="rotate(16 296 293.5)"/>
    <path stroke="url(#I)" d="M248.2 254.9c85.5-61.8 77.8-77 107.3-5.1s-.6 192.8-12.8 103.7c-12.3-89-179.9-36.9-94.5-98.6z" transform="rotate(15 296 293.5)"/>
    <path stroke="url(#J)" d="M249.6 256c83-60.1 75.5-75 104.2-5 28.8 70-.6 187.5-12.4 100.9-12-86.7-174.9-36-91.8-96z" transform="rotate(14 296 293.5)"/>
    <path stroke="url(#K)" d="M250.9 257c80.7-58.4 73.4-72.8 101.3-4.8 27.9 68-.6 182.3-12.1 98-11.6-84.2-169.9-34.9-89.2-93.2z" transform="rotate(13 296 293.5)"/>
    <path stroke="url(#L)" d="M252.2 258c78.3-56.6 71.3-70.7 98.3-4.6 27.1 66-.5 177-11.7 95.2s-164.9-33.9-86.6-90.6z" transform="rotate(12 296 293.5)"/>
    <path stroke="url(#M)" d="M253.5 259c76-54.9 69.1-68.5 95.4-4.4 26.3 64-.6 171.7-11.4 92.4-10.9-79.4-159.9-33-84-88z" transform="rotate(11 296 293.5)"/>
    <path stroke="url(#N)" d="M254.9 260.1c73.5-53.3 66.9-66.5 92.3-4.4 25.5 62.1-.5 166.6-11 89.6s-154.9-31.9-81.3-85.2z" transform="rotate(10 296 293.5)"/>
    <path stroke="url(#O)" d="M256.2 261.2c71.2-51.6 64.8-64.4 89.4-4.3 24.6 60.2-.5 161.3-10.7 86.8-10.2-74.5-149.9-30.9-78.7-82.5z" transform="rotate(9 296 293.5)"/>
    <path stroke="url(#P)" d="M257.5 262.2c68.9-49.9 62.6-62.2 86.4-4 23.8 58.1-.5 156-10.3 83.8-9.8-72-144.9-29.8-76-79.8z" transform="rotate(8 296 293.5)"/>
    <path stroke="url(#Q)" d="M258.9 263.3c66.4-48.3 60.4-60.2 83.4-4 23 56.2-.5 150.8-10 81.1-9.5-69.6-139.9-28.8-73.4-77.1z" transform="rotate(7 296 293.5)"/>
    <path stroke="url(#R)" d="M260.2 264.4c64-46.6 58.3-58.1 80.4-3.9 22.2 54.3-.4 145.5-9.6 78.3-9.1-67.2-134.9-27.9-70.8-74.4z" transform="rotate(6 296 293.5)"/>
    <path stroke="url(#S)" d="M261.5 265.4c61.7-44.9 56.2-56 77.5-3.7 21.3 52.3-.5 140.2-9.3 75.4-8.8-64.8-129.9-26.8-68.2-71.7z" transform="rotate(5 296 293.5)"/>
    <path stroke="url(#T)" d="M262.8 266.5c59.4-43.2 54-54 74.5-3.6 20.6 50.3-.4 135-8.9 72.6-8.5-62.4-124.9-25.8-65.6-69z" transform="rotate(4 296 293.5)"/>
    <path stroke="url(#U)" d="M264.2 267.5c57-41.5 51.8-51.8 71.5-3.4 19.7 48.4-.4 129.7-8.6 69.8-8.1-60-119.9-24.9-63-66.4z" transform="rotate(3 296 293.5)"/>
    <path stroke="url(#V)" d="M265.5 268.6c54.6-39.9 49.7-49.7 68.5-3.3 19 46.4-.4 124.4-8.2 67-7.8-57.6-114.9-23.9-60.3-63.7z" transform="rotate(2 296 293.5)"/>
    <path stroke="url(#W)" d="M266.8 269.6c52.2-38.1 47.5-47.6 65.6-3.1 18 44.4-.4 119.1-7.9 64-7.4-55-109.9-22.7-57.7-60.9z" transform="rotate(1 296 293.5)"/>
    <path stroke="url(#X)" d="M268.2 270.7c49.8-36.4 45.3-45.4 62.5-3 17.3 42.4-.3 113.7-7.5 61.2-7-52.6-104.9-21.8-55-58.2z"/>
  </g>
</svg>
