<svg xmlns="http://www.w3.org/2000/svg" viewBox="0 0 640 640">
  <g fill="none" fill-rule="evenodd" stroke="#979797">
    <path d="M272 253c39-23 119 5 111 71s-53 66-93 44c-41-21-57-92-18-115z"/>
    <path d="M275 257c36-22 112 4 104 66-7 62-50 62-88 42s-53-87-16-108z"/>
    <path d="M277 260c34-20 105 4 98 62-7 59-47 59-82 40-36-19-50-82-16-102z"/>
    <path d="M280 264c32-19 98 3 91 58-6 54-43 54-76 37-34-18-47-76-15-95z"/>
    <path d="M283 267c29-18 91 4 84 54-6 51-40 51-71 34-31-16-43-70-13-88z"/>
    <path d="M285 271c27-17 84 3 78 50-5 46-37 46-65 31-29-15-40-65-13-81z"/>
    <path d="M288 274c25-15 77 3 71 46-5 43-34 43-60 29-25-14-36-60-11-75z"/>
    <path d="M291 278c22-14 69 2 64 41-4 39-30 39-54 27-23-13-33-55-10-68z"/>
    <path d="M293 281c21-12 63 3 59 38-5 35-28 35-49 23-21-11-30-49-10-61z"/>
    <path d="M296 285c18-11 55 2 52 33-4 31-25 31-44 21-18-10-26-43-8-54z"/>
    <path d="M299 288c15-9 48 2 45 29-4 28-22 28-38 19s-23-38-7-48z"/>
    <path d="M301 292c14-9 41 1 39 25-3 23-19 23-32 16-14-8-20-33-7-41z"/>
    <path d="M304 295c11-7 34 2 32 21-3 20-15 20-27 14-11-7-16-28-5-35z"/>
    <path d="M307 299c8-5 27 1 25 17-2 15-12 15-21 10s-13-22-4-27z"/>
    <path d="M255 230c56-25 172 0 154 104s-105 70-143 52c-37-19-67-130-11-156z"/>
    <path d="M257 232c54-24 167 0 150 101-18 101-103 69-139 51-37-19-66-127-11-152z"/>
    <path d="M258 235c53-24 163-1 146 98-17 98-99 67-135 49s-64-123-11-147z"/>
    <path d="M260 237c52-23 158-1 142 95-17 96-97 65-132 48-34-17-62-120-10-143z"/>
    <path d="M262 239c50-22 153 0 137 92-16 93-94 64-127 47-34-17-60-116-10-139z"/>
    <path d="M263 241c49-21 149 0 134 90-16 90-91 61-124 45-32-16-58-113-10-135z"/>
    <path d="M265 244c47-22 145-1 129 86-15 88-88 60-120 44-31-16-56-109-9-130z"/>
    <path d="M267 246c45-21 140-1 125 84-15 84-86 57-116 42-31-15-55-105-9-126z"/>
    <path d="M269 249c41-24 127 5 118 75-8 70-56 70-99 48-43-23-60-98-19-123z"/>
    <path d="M226 191c81-35 255 4 229 150-26 145-138 111-212 81-73-31-98-195-17-231z"/>
    <path d="M229 194c78-34 247 4 222 146-26 142-134 109-206 79-71-30-95-190-16-225z"/>
    <path d="M231 197c77-33 241 4 216 142s-130 106-199 77c-70-29-93-185-17-219z"/>
    <path d="M234 201c74-33 233 3 209 138-24 134-126 103-193 74-68-28-91-180-16-212z"/>
    <path d="M236 204c72-32 226 3 203 134-23 130-122 100-187 73-66-28-88-175-16-207z"/>
    <path d="M239 207c70-31 219 4 196 130-22 127-118 98-181 71-64-27-85-170-15-201z"/>
    <path d="M241 210c68-30 212 4 190 126-22 123-114 95-175 69s-82-165-15-195z"/>
    <path d="M244 213c65-29 204 4 183 123s-110 91-169 66-79-160-14-189z"/>
    <path d="M247 216c62-28 197 4 176 119-20 115-106 89-163 64-57-24-76-154-13-183z"/>
    <path d="M249 220c61-28 190 3 170 114-19 112-102 86-157 63-55-24-73-150-13-177z"/>
    <path d="M252 223c58-26 182 3 164 111-19 107-99 82-152 60-53-23-71-145-12-171z"/>
    <path d="M254 226c56-25 176 3 158 107s-95 80-146 58-68-140-12-165z"/>
  </g>
</svg>
