<svg xmlns="http://www.w3.org/2000/svg" viewBox="0 0 640 640">
  <g fill="none" fill-rule="evenodd" stroke="#979797">
    <path d="M361.9 430.63c-73.44 19.13-191.46-62.94-147.85-165.65 43.6-102.71 116.85-81.7 172.31-28.3 55.46 53.42 48.96 174.81-24.47 193.95z"/>
    <path d="M369.04 425.2c-70.65 23.78-191.92-48.56-156.22-152.21 35.7-103.66 108.9-88.1 166.91-39.55 58 48.55 59.96 167.96-10.7 191.75z" opacity=".98"/>
    <path d="M375.65 419.34c-67.58 28.15-191.33-34.41-163.45-138.41 27.87-104 100.65-93.78 160.8-50.19 60.14 43.6 70.23 160.46 2.65 188.6z" opacity=".96"/>
    <path d="M381.7 413.13c-64.24 32.2-189.7-20.6-169.53-124.38 20.17-103.77 92.15-98.73 154.03-60.16 61.88 38.57 79.76 152.34 15.5 184.54z" opacity=".94"/>
    <path d="M387.2 406.6c-60.7 35.92-187.14-7.2-174.5-110.17 12.65-102.99 83.46-102.99 146.67-69.46 63.22 33.53 88.51 143.7 27.82 179.62z" opacity=".92"/>
    <path d="M392.08 399.8c-56.93 39.3-183.6 5.76-178.28-95.9 5.33-101.65 74.61-106.5 138.77-78 64.16 28.48 96.44 134.58 39.51 173.9z" opacity=".9"/>
    <path d="M396.38 392.77c-53 42.36-179.2 18.2-180.96-81.62-1.75-99.83 65.7-109.3 130.4-85.82 64.72 23.49 103.56 125.08 50.56 167.44z" opacity=".88"/>
    <path d="M400.07 385.58c-48.93 45.05-173.99 30.05-182.53-67.46-8.54-97.51 56.76-111.39 121.64-92.84 64.88 18.55 109.81 115.25 60.89 160.3z" opacity=".86"/>
    <path d="M403.15 378.27c-44.74 47.38-168 41.26-183.02-53.48-15.02-94.74 47.86-112.77 112.54-99.07 64.69 13.7 115.22 105.17 70.48 152.55z" opacity=".84"/>
    <path d="M405.62 370.89c-40.47 49.35-161.31 51.8-182.47-39.77-21.15-91.56 39.05-113.47 103.19-104.5 64.13 8.98 119.75 94.92 79.28 144.27z" opacity=".82"/>
    <path d="M407.5 363.49c-36.15 50.97-154 61.59-180.92-26.4-26.91-87.99 30.38-113.5 93.62-109.1 63.25 4.39 123.45 84.53 87.3 135.5z" opacity=".8"/>
    <path d="M408.79 356.11c-31.8 52.23-146.12 70.63-178.41-13.44-32.3-84.06 21.89-112.87 83.93-112.9 62.04-.02 126.28 74.12 94.48 126.34z" opacity=".78"/>
    <path d="M409.5 348.8c-27.47 53.14-137.75 78.88-175-.95-37.25-79.84 13.65-111.64 74.18-115.9 60.53-4.24 128.27 63.73 100.81 116.86z" opacity=".76"/>
    <path d="M409.64 341.62c-23.15 53.68-128.94 86.3-170.72 10.97s5.68-109.8 64.42-118.08c58.74-8.26 129.45 53.42 106.3 107.1z" opacity=".74"/>
    <path d="M409.25 334.58c-18.9 53.91-119.8 92.9-165.66 22.32-45.87-70.6-1.97-107.43 54.72-119.49 56.7-12.06 129.84 43.26 110.94 97.17z" opacity=".72"/>
    <path d="M408.33 327.74c-14.73 53.81-110.36 98.66-159.86 33-49.51-65.65-9.25-104.52 45.16-120.12 54.4-15.6 129.44 33.32 114.7 87.12z" opacity=".7"/>
    <path d="M406.93 321.14c-10.67 53.4-100.73 103.56-153.4 43-52.7-60.57-16.14-101.16 35.77-120.04 51.9-18.88 128.3 23.65 117.63 77.04z" opacity=".68"/>
    <path d="M405.06 314.8c-6.75 52.68-90.96 107.61-146.35 52.26-55.4-55.36-22.6-97.33 26.62-119.23 49.23-21.9 126.47 14.3 119.73 66.98z" opacity=".66"/>
    <path d="M402.75 308.77c-2.97 51.68-81.12 110.81-138.77 60.74-57.65-50.07-28.61-93.11 17.77-117.75 46.38-24.63 123.97 5.33 121 57.01z" opacity=".64"/>
    <path d="M400.05 303.07c.63 50.42-71.3 113.18-130.74 68.43-59.44-44.75-34.15-88.54 9.25-115.63 43.4-27.08 120.85-3.22 121.49 47.2z" opacity=".62"/>
    <path d="M396.97 297.72c4.05 48.92-61.54 114.73-122.31 75.3-60.78-39.42-39.2-83.66 1.11-112.9 40.3-29.24 117.16-11.32 121.2 37.6z" opacity=".6"/>
    <path d="M393.57 292.75c7.26 47.19-51.92 115.49-113.6 81.35-61.66-34.14-43.73-78.53-6.6-109.63 37.14-31.1 112.95-18.92 120.2 28.28z" opacity=".58"/>
    <path d="M389.88 288.17c10.24 45.27-42.52 115.49-104.64 86.56-62.13-28.92-47.75-73.17-13.85-105.84 33.9-32.66 108.24-25.98 118.49 19.28z" opacity=".56"/>
    <path d="M385.93 284.01c13 43.15-33.36 114.74-95.53 90.93-62.17-23.82-51.24-67.65-20.6-101.59 30.63-33.94 103.13-32.5 116.13 10.66z" opacity=".54"/>
    <path d="M381.76 280.28c15.51 40.88-24.52 113.3-86.33 94.45-61.8-18.84-54.2-62-26.83-96.92 27.36-34.92 97.65-38.42 113.16 2.47z" opacity=".52"/>
    <path d="M377.42 276.97c17.78 38.49-16.05 111.21-77.11 97.16-61.07-14.04-56.63-56.3-32.52-91.9 24.1-35.6 91.86-43.74 109.63-5.26z" opacity=".5"/>
    <path d="M372.95 274.11c19.78 35.97-8 108.5-67.96 99.06-59.96-9.45-58.53-50.56-37.64-86.58 20.89-36.01 85.82-48.45 105.6-12.48z" opacity=".48"/>
    <path d="M368.38 271.7c21.52 33.36-.4 105.22-58.92 100.15-58.53-5.06-59.92-44.82-42.18-80.99 17.73-36.16 79.58-52.54 101.1-19.17z" opacity=".46"/>
    <path d="M363.76 269.72c23 30.7 6.7 101.43-50.08 100.5-56.78-.93-60.8-39.16-46.13-75.2 14.66-36.06 73.2-56.01 96.2-25.3z" opacity=".44"/>
    <path d="M359.12 268.17c24.21 28.01 13.28 97.2-41.48 100.12-54.76 2.93-61.2-33.6-49.5-69.28 11.71-35.69 66.76-58.85 90.98-30.84z" opacity=".42"/>
    <path d="M354.5 267.06c25.17 25.3 19.3 92.53-33.18 99.04-52.48 6.5-61.13-28.17-52.26-63.27 8.86-35.1 60.26-61.06 85.43-35.77z" opacity=".4"/>
    <path d="M349.93 266.36c25.88 22.59 24.73 87.53-25.24 97.32-49.97 9.78-60.6-22.93-54.44-57.22 6.17-34.29 53.8-62.68 79.68-40.1z" opacity=".38"/>
    <path d="M345.46 266.07c26.33 19.9 29.57 82.24-17.71 94.98-47.28 12.74-59.66-17.9-56.04-51.18 3.63-33.28 47.42-63.7 73.75-43.8z" opacity=".36"/>
    <path d="M341.12 266.17c26.54 17.28 33.79 76.7-10.64 92.08-44.42 15.37-58.32-13.12-57.06-45.21 1.25-32.1 41.16-64.15 67.7-46.87z" opacity=".34"/>
    <path d="M336.93 266.63c26.52 14.72 37.4 71.01-4.05 88.68-41.44 17.67-56.61-8.6-57.55-39.35-.94-30.75 35.08-64.06 61.6-49.33z" opacity=".32"/>
    <path d="M332.93 267.44c26.27 12.25 40.38 65.2 2.01 84.83-38.37 19.63-54.58-4.4-57.5-33.66-2.94-29.25 29.22-63.43 55.5-51.17z" opacity=".3"/>
    <path d="M329.15 268.56c25.81 9.9 42.74 59.34 7.5 80.6-35.22 21.25-52.24-.54-56.96-28.17-4.72-27.64 23.64-62.33 49.46-52.43z" opacity=".28"/>
    <path d="M325.6 269.99c25.17 7.67 44.49 53.47 12.43 76-32.05 22.55-49.65 3-55.95-22.92-6.3-25.92 18.35-60.75 43.52-53.08z" opacity=".26"/>
    <path d="M322.31 271.68c24.35 5.58 45.65 47.66 16.76 71.16-28.88 23.5-46.83 6.16-54.5-17.97-7.66-24.13 13.4-58.77 37.74-53.2z" opacity=".24"/>
    <path d="M319.3 273.6c23.36 3.65 46.22 41.97 20.48 66.1-25.75 24.12-43.83 8.95-52.64-13.33-8.81-22.28 8.82-56.4 32.17-52.76z" opacity=".22"/>
    <path d="M316.6 275.74c22.22 1.88 46.22 36.44 23.56 60.87-22.67 24.44-40.67 11.36-50.41-9.04-9.74-20.4 4.63-53.7 26.85-51.83z" opacity=".2"/>
    <path d="M314.2 278.05c20.96.28 45.7 31.12 26.03 55.56s-37.4 13.36-47.86-5.13c-10.45-18.49.88-50.7 21.83-50.43z" opacity=".18"/>
    <path d="M312.12 280.5c19.59-1.12 44.68 26.07 27.88 50.22-16.8 24.16-34.06 14.97-45.01-1.62-10.96-16.6-2.45-47.47 17.13-48.6z" opacity=".16"/>
    <path d="M310.37 283.06c18.13-2.34 43.19 21.31 29.12 44.91-14.06 23.6-30.7 16.19-41.93 1.46-11.24-14.72-5.31-44.02 12.81-46.37z" opacity=".14"/>
    <path d="M308.95 285.7c16.6-3.37 41.27 16.9 29.77 39.68-11.5 22.78-27.34 17.02-38.66 4.12-11.32-12.9-7.7-40.44 8.9-43.8z" opacity=".12"/>
    <path d="M307.87 288.37c15.03-4.18 38.95 12.87 29.84 34.6-9.12 21.74-24.02 17.47-35.24 6.32-11.2-11.14-9.63-36.73 5.4-40.92z" opacity=".1"/>
    <path d="M307.12 291.05c13.43-4.8 36.3 9.25 29.35 29.73-6.93 20.47-20.79 17.53-31.7 8.06-10.91-9.46-11.08-32.98 2.35-37.79z" opacity=".08"/>
    <path d="M306.69 293.7c11.82-5.21 33.34 6.07 28.35 25.1-4.98 19.04-17.67 17.25-28.11 9.36-10.44-7.9-12.07-29.23-.24-34.45z" opacity=".06"/>
    <path d="M306.58 296.3c10.23-5.44 30.13 3.34 26.86 20.77-3.27 17.43-14.7 16.63-24.51 10.2-9.81-6.44-12.58-25.52-2.35-30.97z" opacity=".04"/>
    <path d="M306.77 298.94c8.67-5.42 26.74 1.08 24.93 16.63-1.8 15.54-11.92 15.54-20.95 10.48-9.03-5.06-12.65-21.69-3.98-27.11z" opacity=".02"/>
  </g>
</svg>
