<svg xmlns="http://www.w3.org/2000/svg" viewBox="0 0 1534 1070">
  <g fill="none" fill-rule="evenodd">
    <path d="M1366 55a7 7 0 1 1-13 0 7 7 0 0 1 13 0M1327 224a7 7 0 1 0 0 13 7 7 0 0 0 0-13m0 17a11 11 0 1 1 0-22 11 11 0 0 1 0 22"/>
    <path d="M1364 259l14 8 23 14h3c10-10 13-25 19-38l-1-3c-12-6-25-12-36-19-3-2-6 2-3 4l37 19-1-3c-6 12-9 26-18 36h3l-23-14-15-9c-2-1-5 3-2 5M1250 118l15 46c1 3 6 2 5-1l-15-47c-1-3-6-1-5 2M1265 112l16 47c1 3 6 2 5-1l-16-48c-1-3-6-1-5 2M1400 87c-9-8-23-11-31 0-2 4-3 10-1 15 2 6 8 9 13 12 3 1 6-3 3-5-7-4-14-7-12-16 4-13 18-8 24-2 3 2 6-2 4-4M1318 66c5 7 2 17 1 24l-6 28c-1 8-1 15 4 21 5 5 13 7 19 5 7-2 11-9 10-16-1-8-7-14-13-19-6-4-13-7-18-12-9-6-21-11-19-24 0-3-5-4-5-1-1 8 2 15 8 20 5 5 12 9 18 13s13 8 18 13c6 5 9 15 2 20-6 5-15 0-18-5-4-7-1-17 1-24l5-26c1-6 1-14-3-19-2-3-6 0-4 2M1412 113l12 9c3 2 6-2 4-4l-14-9c-2-2-5 2-2 4"/>
    <path d="M1404 403a7 7 0 1 1-14 0 7 7 0 0 1 14 0M1365 571a7 7 0 1 0 0 14 7 7 0 0 0 0-14m0 18a11 11 0 1 1 0-22 11 11 0 0 1 0 22"/>
    <path d="M1287 465l16 47c1 3 5 2 4-1l-15-47c-1-3-6-2-5 1M1303 460l15 47c1 3 6 2 5-1l-15-48c-1-3-6-1-5 2M1437 435c-9-8-22-11-30 0-3 4-4 10-2 15 3 5 9 9 14 12 2 1 5-3 2-5-7-4-13-8-11-17 3-12 17-7 24-1 2 2 6-2 3-4M1356 414c4 7 2 17 0 24l-6 28c-1 8 0 15 5 21 4 5 12 7 19 5s10-10 9-16c0-9-7-15-13-19l-18-12c-8-6-21-12-19-24 1-3-4-5-5-1-1 8 2 15 8 20l19 13c6 4 12 7 18 13 5 5 9 15 1 20-6 5-14 0-18-5-4-7 0-17 1-24l6-26c1-6 1-14-3-19-2-3-6 0-4 2M1382 333l-23 45c-1 2 3 5 5 2l22-44c2-3-3-6-4-3M1397 340l-22 45c-2 2 3 5 4 2l23-44c1-3-3-6-5-3"/>
    <path d="M1188 580a7 7 0 1 1-14 0 7 7 0 0 1 14 0M1300 679a5 5 0 1 1-9 0 5 5 0 0 1 9 0M1149 748a7 7 0 1 0 0 14 7 7 0 0 0 0-14m0 18a11 11 0 1 1 0-22 11 11 0 0 1 0 22"/>
    <path d="M1121 737c0-9 2-20 8-27 8-8 20-7 28 0 6 6 10 11 19 13 8 1 14-2 18-9 4-8 5-16 12-23 11-11 20 2 29 9 7 6 18 7 26 2s12-15 12-24l-1-7c-1-3-5-2-5 1 2 11-1 24-13 28-12 3-19-8-27-14-9-7-19-4-27 4-6 6-7 14-10 22-5 8-16 8-22 2-6-5-11-12-19-14-9-2-19 1-25 8-5 7-7 17-7 25l-1 4c0 3 5 3 5 0M1287 537a460 460 0 0 1-7 80l4-2c-14-7-27-15-39-25-11-7-19-17-29-25v5c22-15 49-24 74-32 3-1 2-6-1-5-26 8-53 17-76 32v5c10 7 18 16 28 24 13 9 26 18 40 25 2 1 4 0 4-1a446 446 0 0 0 7-83c-1-3-5-2-5 2M1186 783l14 9 23 13h3c9-10 13-25 19-38l-1-3-37-19c-3-2-5 2-2 4 12 7 24 14 36 19l-1-3c-5 12-9 27-18 36h3l-23-14-14-8c-2-2-5 2-2 4M1071 642l16 47c1 3 6 1 5-2l-16-47c-1-3-6-1-5 2M1087 636l16 47c1 3 5 2 4-1l-15-47c-1-3-6-2-5 1M1292 713l-22 44c-2 3 3 6 4 3l22-44c2-3-3-5-4-3M1307 721l-22 44c-2 3 3 5 4 3l23-45c1-3-3-5-5-2M1323 728l-23 44c-1 3 3 5 5 3l22-45c2-3-3-5-4-2M1312 622l29 7-1-4-24 24c-1 1-1 3 1 3 9 5 17 10 27 13l-1-5c-7 8-17 15-23 24l1 3c7 6 17 7 26 11 3 1 5-4 2-5-8-3-18-4-25-10l1 3c5-8 14-14 21-22 2-1 1-4-1-4-9-3-17-8-26-12l1 4 24-24c1-1 1-4-1-4l-30-7c-3-1-5 4-1 5M1222 611c-10-8-23-11-31 0-3 5-3 11-2 15 3 6 9 9 14 12 3 2 5-3 2-4-7-4-13-8-11-17 3-12 17-8 24-2 2 2 6-2 4-4M1140 590c5 7 2 17 0 24l-6 29c-1 7 0 14 5 20 4 5 12 7 19 5s10-9 9-16c0-8-7-14-13-19l-18-12c-8-6-21-11-19-24 1-3-4-4-5-1-1 8 2 15 8 20l19 13c6 4 13 8 18 13s9 16 1 21c-6 4-14 0-18-6-3-7 0-17 1-24 2-8 5-17 6-26 1-6 1-14-3-19-2-3-6 0-4 2M1233 637l13 9c2 2 6-1 3-3l-13-10c-3-2-5 2-3 4M1166 509l-23 45c-1 3 3 5 5 2l22-44c2-3-3-5-4-3M1181 516l-22 45c-2 3 3 5 4 2l23-44c1-3-3-5-5-3M1257 475c-4-8-12-16-21-12-8 4-6 14-3 20 3 10 9 18 13 27l2 5c1 3 0 3-1 5-6 6-13-1-16-6-2-3-6-1-5 2 5 8 15 15 23 8 3-3 5-5 4-9 0-3-2-7-4-10-5-9-10-18-13-27-1-4-1-9 3-11 6-2 11 6 14 10 1 3 5 1 4-2"/>
    <path d="M1165 235a7 7 0 1 1-14 0 7 7 0 0 1 14 0M1277 334a5 5 0 1 1-9 0 5 5 0 0 1 9 0M1126 403a7 7 0 1 0 0 14 7 7 0 0 0 0-14m0 18a11 11 0 1 1 0-22 11 11 0 0 1 0 22"/>
    <path d="M1098 392c0-9 2-19 8-27 8-8 20-6 28 0 6 6 10 12 19 13 8 1 14-2 18-9 4-8 5-16 12-23 11-11 20 2 29 9 8 6 18 7 26 2s12-15 12-24l-1-7c-1-3-5-2-5 1 2 11-1 24-13 28-12 3-19-8-27-14-9-7-19-4-27 4-6 6-7 15-10 22-5 8-16 8-22 2-6-5-11-11-19-14-9-2-19 1-25 8-5 7-7 17-7 25l-1 4c0 3 5 3 5 0M1264 192a460 460 0 0 1-7 80l4-2c-14-7-27-15-39-24-11-8-19-18-29-25v4c22-15 49-24 74-32 3-1 2-6-1-5-26 8-53 17-76 33v4c10 7 18 17 28 24 13 10 26 19 40 25 2 1 4 0 4-1a445 445 0 0 0 7-83c-1-3-5-1-5 2M1163 438l14 9 23 13h3c9-10 13-25 19-38l-1-3-37-19c-3-2-5 3-2 4 12 7 24 14 36 19l-1-3c-5 12-9 27-18 36h3l-23-14-14-8c-2-2-5 2-2 4M1048 297l16 47c1 3 6 1 5-2l-16-46c-1-4-6-2-5 1M1064 291l16 47c1 3 5 2 4-1l-15-47c-1-3-6-2-5 1M1269 369l-22 43c-2 3 3 6 4 3l22-44c2-3-3-5-4-2M1284 376l-22 44c-2 3 3 6 4 3l23-45c1-3-3-5-5-2M1300 383l-23 44c-1 3 3 6 5 3l22-45c2-3-3-5-4-2M1289 277l29 7-1-4-24 24c-1 1 0 3 1 4 9 4 17 9 27 12l-1-4c-7 8-17 14-23 23l1 3c7 6 17 8 26 11 3 1 5-4 2-5-8-3-18-4-25-9l1 3c5-9 14-15 21-23 2-1 1-4-1-4-9-3-17-8-26-12l1 4 24-24c1-1 1-3-1-4l-30-7c-3-1-5 4-1 5M1199 266c-10-7-23-11-31 1-3 4-3 10-2 14 3 6 9 9 14 12 3 2 5-3 2-4-7-4-13-8-11-17 3-12 17-8 24-2 2 2 6-1 4-4M1117 246c5 6 2 16 0 23l-6 29c-1 7 0 14 5 20 4 5 12 8 19 5 7-2 10-9 9-16 0-8-7-14-13-19l-18-11c-8-7-21-12-19-25 1-3-4-4-5-1-1 8 2 15 8 20l19 14c6 3 13 7 18 12s9 16 1 21c-6 4-14 0-18-6-3-7 0-17 1-24 2-8 5-17 6-26 1-6 1-14-3-19-2-3-6 0-4 3M1210 292l13 9c2 2 6-1 3-3l-13-10c-3-2-5 3-3 4M1143 165l-23 44c-1 3 3 5 5 2l22-44c2-3-3-5-4-2M1158 172l-22 44c-2 3 3 5 4 3l23-45c1-3-3-5-5-2M1234 130c-4-8-12-16-21-12-8 4-6 14-3 20 3 10 9 18 13 27l2 6c1 2 0 2-1 4-6 6-13-1-16-6-2-3-6-1-5 2 5 8 15 15 23 8 3-2 5-5 4-9 0-3-2-7-4-10-5-9-10-18-13-27-1-4-1-9 3-11 6-2 11 6 14 10 1 3 5 1 4-2"/>
    <path d="M1091 66a7 7 0 1 0 0 13 7 7 0 0 0 0-13m0 17a11 11 0 1 1 0-21 11 11 0 0 1 0 21"/>
    <path d="M1128 101l14 8 23 14h3c10-10 13-25 19-38 1-1 0-3-1-3l-36-19c-3-2-6 2-3 4l37 19-1-3c-6 12-9 26-18 36h3l-23-14-14-8c-3-2-5 2-3 4M1250 38l-23 45c-1 3 3 5 5 2l22-44c2-3-3-5-4-3M1265 46l-22 44c-2 3 3 5 4 2l23-44c1-3-3-5-5-2"/>
    <path d="M920 66a7 7 0 1 1-13 0 7 7 0 0 1 13 0M1032 165a5 5 0 1 1-9 0 5 5 0 0 1 9 0M881 234a7 7 0 1 0 0 14 7 7 0 0 0 0-14m0 18a11 11 0 1 1 0-22 11 11 0 0 1 0 22"/>
    <path d="M854 223c0-9 1-20 8-27 7-8 20-7 28 0 6 6 10 12 19 13 8 1 14-2 18-9 4-8 4-16 11-23 12-11 21 2 30 9 7 6 17 7 26 2 8-5 11-15 11-24v-7c-1-3-6-2-5 1 2 11-2 24-14 28-12 3-18-8-26-14-10-7-20-4-27 4-6 6-7 14-11 22s-15 8-22 2c-6-5-10-12-18-14-9-2-19 1-25 8s-7 17-8 25v4c0 3 5 3 5 0M918 269l14 9 23 13h3c10-10 13-25 19-38 1-1 1-2-1-3l-36-19c-3-2-5 3-3 4 12 7 24 14 37 19l-1-3c-6 12-9 27-18 36h3l-23-14-14-8c-3-2-5 2-3 4M804 128l15 47c1 3 6 1 5-2l-15-47c-1-3-6-1-5 2M820 122l15 47c1 3 6 2 5-1l-16-47c-1-3-5-2-4 1M1025 200l-23 43c-1 3 3 6 5 3l22-44c1-3-3-5-4-2M1040 207l-23 44c-1 3 3 5 5 3l22-45c2-3-3-5-4-2M1055 214l-22 44c-2 3 3 6 4 3l23-45c1-3-3-5-5-2M1044 108l30 7-1-4-24 24c-1 1-1 3 1 4 9 4 17 9 27 12l-2-4c-7 7-17 14-22 23v3c8 6 18 7 27 11 3 1 4-4 1-5-8-3-17-4-24-10v4c6-9 15-15 22-23 1-1 1-4-1-4-9-3-17-8-26-12l1 4 23-24c2-1 1-3-1-4l-30-7c-3-1-4 4-1 5M954 97c-9-7-22-11-30 1-3 4-4 10-2 14 2 6 8 9 13 12 3 2 6-3 3-4-7-4-14-8-11-17 3-12 17-8 24-2 2 2 6-2 3-4M872 76c5 7 3 17 1 24-2 10-5 19-6 29-1 7-1 14 4 20 5 5 13 7 20 5s10-9 9-16c-1-8-7-14-13-19l-18-11c-9-7-21-12-19-25 0-3-4-4-5-1-1 8 2 15 8 20s12 10 18 13l19 13c5 5 8 16 1 21-6 4-15 0-18-6-4-7-1-17 1-24l5-26c1-6 2-14-2-19-2-3-7 0-5 2M966 123l12 9c3 2 6-1 4-3l-13-10c-3-2-6 3-3 4"/>
    <path d="M958 414a7 7 0 1 1-14 0 7 7 0 0 1 14 0M1070 513a5 5 0 1 1-9 0 5 5 0 0 1 9 0M919 582a7 7 0 1 0 0 14 7 7 0 0 0 0-14m0 18a11 11 0 1 1 0-22 11 11 0 0 1 0 22"/>
    <path d="M891 571c1-9 2-20 8-27 8-8 20-7 28 0 6 6 10 11 20 13 7 1 13-2 17-9 4-8 5-16 12-23 12-11 20 2 29 9 8 6 18 7 26 2s12-15 12-24l-1-7c0-3-5-2-5 1 2 11-1 24-13 27-12 4-19-7-27-13-9-7-19-4-27 4-6 6-7 14-10 22-5 8-16 8-22 2-6-5-11-12-19-14-9-2-19 1-25 8-5 7-7 16-7 25l-1 4c0 3 5 3 5 0M1057 371a460 460 0 0 1-7 80l4-2c-14-7-27-15-39-25-10-7-19-17-29-25v5c22-15 49-25 74-32 3-1 2-6-1-5-26 8-53 17-76 32v5c10 7 18 16 28 24 13 9 26 18 41 25 1 1 3 0 3-1a446 446 0 0 0 7-83c-1-3-5-2-5 2M956 617l14 8 23 14h3c9-10 13-25 19-38l-1-3-37-19c-2-2-5 2-2 4 12 7 24 14 36 19l-1-3c-5 12-8 26-18 36h3l-23-14-14-8c-2-2-5 2-2 4M842 476l15 46c1 3 6 2 5-1l-16-47c-1-3-5-1-4 2M857 470l16 47c1 3 5 2 4-1l-15-47c-1-3-6-2-5 1M1062 547l-22 44c-2 3 3 6 4 3l22-44c2-3-2-5-4-3M1077 555l-22 44c-2 3 3 5 4 3l23-45c1-3-3-5-5-2M1093 562l-23 44c-1 3 3 5 5 3l22-45c2-3-3-5-4-2M1082 456l29 7-1-4c-7 8-15 16-24 23-1 1 0 4 1 4 9 4 18 10 27 13l-1-5c-7 8-17 15-23 24l1 3c7 6 17 7 26 11 3 1 5-4 2-5-8-3-18-4-25-10l1 3c5-9 14-14 21-22 2-1 1-4-1-4-9-3-17-8-25-12v4l24-24c1-1 1-4-1-4l-30-7c-3-1-4 4-1 5M992 445c-10-8-23-11-31 0-3 5-3 10-2 15 3 6 9 9 14 12 3 2 5-3 2-4-7-4-13-8-11-17 3-13 18-8 24-2 3 2 6-2 4-4M910 424c5 7 2 17 1 24l-7 29c-1 7 0 14 5 20 4 5 13 7 19 5 7-2 10-9 10-16-1-8-8-14-14-19l-18-12c-8-6-21-11-19-24 1-3-4-4-4-1-2 8 1 15 8 20 5 5 12 9 18 13s13 8 18 13 9 15 1 21c-6 4-14 0-17-6-4-7-1-17 0-24 2-8 5-17 6-26 1-6 1-14-3-19-2-3-6 0-4 2M1004 471l12 9c2 2 6-1 3-3l-13-10c-3-2-5 2-2 4M936 343l-23 45c-1 3 3 5 5 2l22-44c2-3-3-6-4-3M951 350l-22 45c-2 3 3 5 4 2l23-44c1-3-3-5-5-3M1027 309c-4-8-12-16-21-12-8 4-6 14-3 20 3 10 9 18 13 27l2 5c1 3 0 3-1 5-6 6-13-1-16-6-2-3-6-1-5 2 5 8 15 15 23 8 3-3 5-5 4-9 0-3-2-7-4-10-5-9-10-18-13-27-1-4-1-9 3-11 7-2 12 6 14 10 1 3 5 1 4-2"/>
    <path d="M719 245a7 7 0 1 1-13 0 7 7 0 0 1 13 0M831 344a5 5 0 1 1-9 0 5 5 0 0 1 9 0M680 413a7 7 0 1 0 0 14 7 7 0 0 0 0-14m0 18a11 11 0 1 1 0-22 11 11 0 0 1 0 22"/>
    <path d="M653 402c0-9 1-19 7-27 8-8 21-6 28 1 7 6 11 11 20 12 7 2 14-2 17-8 4-8 5-17 12-24 12-11 20 2 29 9 8 6 18 7 26 2 9-4 12-15 12-24l-1-7c0-3-5-2-5 2 2 11-1 24-13 27s-18-8-27-14c-9-7-19-4-27 4-6 6-7 15-10 22-4 9-15 8-22 2-6-5-11-11-19-14-9-2-19 1-25 9-5 7-7 16-7 24v4c0 4 5 4 5 0M818 202a461 461 0 0 1-7 80l4-2c-14-6-27-15-39-24-10-8-19-18-29-25v4c22-15 49-24 74-32 3-1 2-6-1-5-26 8-53 17-76 33v4c10 7 18 17 28 24 13 10 26 19 41 25 1 1 3 1 3-1a446 446 0 0 0 7-82c0-4-5-2-5 1M717 448c4 4 9 6 14 9l23 14 3-1c10-10 13-25 19-37l-1-4c-13-5-25-12-37-19-2-2-5 3-2 4l36 20-1-4c-5 12-8 27-18 37l3-1-23-13-14-9c-2-2-5 2-2 4M603 307l15 47c1 3 6 2 5-2l-16-46c-1-3-5-2-4 1M618 301l16 48c1 3 6 1 5-2l-16-47c-1-3-6-2-5 1M823 379l-22 44c-2 3 3 5 4 2l23-44c1-3-3-5-5-2M838 386l-22 44c-2 3 3 6 4 3l23-45c1-2-3-5-5-2M854 393l-23 44c-1 3 3 6 5 3l22-44c2-3-3-6-4-3M843 287l30 7-2-4-23 24c-2 1-1 3 0 4l27 12-1-4c-7 8-17 14-23 23l1 3c8 6 18 8 27 11 3 1 4-4 1-5-8-3-18-4-25-9l1 3c5-9 15-15 22-23 1-1 0-3-2-4-9-3-17-8-25-12v4c9-7 16-15 24-23 1-2 1-4-1-5l-30-6c-3-1-4 4-1 4M753 277c-9-8-23-12-31 0-3 4-3 10-1 14 2 6 8 9 13 12 3 2 5-2 3-4-8-4-14-8-12-17 3-12 18-7 24-2 3 2 6-1 4-3M671 256c5 6 2 16 1 24-2 9-5 18-6 28-1 7-1 15 4 20 5 6 13 8 19 6 7-3 10-10 10-17-1-8-8-14-14-19l-18-11c-8-6-20-12-19-24 1-4-4-5-4-2-2 9 1 15 8 21l18 13c6 4 13 7 18 12s9 16 2 21c-6 4-15 0-18-6-4-6-1-17 0-23l6-26c1-7 1-14-3-20-2-2-6 0-4 3M765 302l12 9c2 2 6-1 3-3l-13-10c-3-2-5 3-2 4M697 175l-22 44c-2 3 2 6 4 3l22-45c2-3-2-5-4-2M713 182l-23 44c-1 3 3 6 4 3l23-45c1-3-3-5-4-2M788 140c-4-8-12-16-21-11-8 3-6 13-3 20 3 9 9 18 13 26l2 6c1 2 1 2-1 4-6 6-13-1-16-6-2-3-6 0-4 3 4 7 14 15 22 7 3-2 5-4 4-8 0-4-2-7-4-11-4-9-10-17-13-27-1-4-1-9 4-10 6-2 11 5 13 10 1 3 6 0 4-3"/>
    <path d="M489 74a7 7 0 1 1-13 0 7 7 0 0 1 13 0M601 173a5 5 0 1 1-9 0 5 5 0 0 1 9 0M450 242a7 7 0 1 0 0 14 7 7 0 0 0 0-14m0 18a11 11 0 1 1 0-22 11 11 0 0 1 0 22"/>
    <path d="M423 231c0-9 1-19 7-27 8-8 21-6 28 1 7 5 11 11 20 12 7 1 14-2 17-9 4-8 5-16 12-23 12-11 21 2 29 9 8 6 18 7 26 2 9-5 12-15 12-24l-1-7c0-3-5-2-5 1 3 11-1 25-13 28s-18-8-27-14c-9-7-19-4-27 4-6 6-7 15-10 22-4 8-15 8-22 2-6-5-11-11-19-14-9-2-19 1-25 8-5 7-7 17-7 25v4c0 4 5 4 5 0M487 277l14 9 23 13h3c10-10 13-25 19-37l-1-4-37-19c-2-2-5 3-2 4 12 7 24 14 36 19l-1-3c-5 12-8 27-18 37l3-1-22-14-15-8c-2-2-5 2-2 4M373 136l15 47c1 3 6 1 5-2l-15-46c-1-3-6-2-5 1M388 130l16 47c1 4 6 2 5-1l-16-47c-1-3-6-2-5 1M593 208l-22 43c-1 3 3 6 4 3l23-44c1-3-3-5-5-2M609 215l-23 44c-1 3 3 6 4 3l23-45c1-3-3-5-4-2M624 222l-23 44c-1 3 3 6 5 3l22-45c2-3-3-5-4-2M613 116l30 7-1-4-24 24v4l27 12-1-4c-7 8-17 14-22 23v3c8 6 18 8 27 11 3 1 4-4 1-5-8-3-18-4-25-9l1 3c5-9 15-15 22-23 1-1 0-3-2-4-9-3-17-8-25-12v4c9-7 16-16 24-24 1-1 1-3-1-4l-30-7c-3 0-4 4-1 5M523 105c-9-7-23-11-31 1-3 4-3 10-1 14 2 6 8 9 13 12 3 2 5-3 3-4-7-4-14-8-12-17 4-12 18-8 24-2 3 2 6-1 4-4M441 85c5 6 2 16 1 23-2 10-5 19-6 29-1 7-1 14 4 20 5 5 13 8 19 5 7-2 10-9 10-16-1-8-7-14-14-19l-18-11c-8-7-20-12-18-25 0-3-5-4-5-1-2 8 1 15 8 21l18 13c6 3 13 7 18 12s9 16 2 21c-6 4-15 0-18-6-4-7-1-17 0-24 2-8 5-17 6-26 1-6 1-14-3-19-2-3-6 0-4 3M535 131l12 9c2 2 6-1 4-3l-14-10c-3-2-5 3-2 4"/>
    <path d="M658 69a7 7 0 1 0 0 14 7 7 0 0 0 0-14m0 18a11 11 0 1 1 0-22 11 11 0 0 1 0 22"/>
    <path d="M695 105l14 8 23 14h3c10-11 13-25 19-38 1-1 0-3-1-3-12-6-24-12-36-20-3-1-6 3-3 5l37 19-1-3c-6 12-9 26-18 36h3l-23-14c-5-3-10-5-14-9-3-2-6 3-3 5M817 42l-23 45c-1 3 3 5 5 2l22-44c2-3-3-6-4-3M832 49l-22 45c-2 3 3 5 4 2l23-44c1-3-3-6-5-3"/>
    <path d="M1224 917a7 7 0 1 1-14 0 7 7 0 0 1 14 0"/>
    <path d="M1323 874c2 14 0 29-1 43l-6 37 4-2c-14-6-27-15-39-24-11-8-19-18-30-25v4c23-15 49-24 75-32 3-1 2-6-2-5-25 8-53 17-75 33-2 1-2 3 0 4 10 7 18 17 28 24 13 10 26 19 40 25 2 1 4 1 4-1a446 446 0 0 0 7-82c-1-4-6-2-5 1M1257 949c-9-8-22-12-30 0-3 4-4 10-2 14 2 6 9 9 14 12 2 2 5-2 2-4-7-4-14-8-11-17 3-12 17-7 24-2 2 2 6-1 3-3M1175 928c5 6 3 16 1 24-2 9-5 18-6 28-1 7-1 15 5 20 4 6 12 8 19 6 7-3 10-10 9-17 0-8-7-14-13-19l-18-11c-9-7-21-12-19-25 1-3-4-4-5-1-1 9 2 15 8 21l18 13c7 4 13 7 19 12 5 5 9 16 1 21-6 4-14 0-18-6s-1-17 1-23l6-26c0-7 1-14-3-20-2-2-7 0-5 3M1269 974l12 9c3 2 7-1 4-3l-13-10c-3-2-6 3-3 4M1202 847l-23 44c-1 3 3 5 4 3l23-45c1-3-3-5-4-2M1217 854l-22 44c-2 3 2 6 4 3l22-45c2-3-2-5-4-2M1293 812c-4-8-12-16-21-11-8 3-6 13-4 20l14 26 2 6c1 2 0 2-1 4-6 6-14-1-17-6-1-3-5 0-4 2 5 8 15 16 23 8 3-2 5-4 4-8l-4-11c-5-9-11-17-13-27-1-4-1-9 3-10 6-3 11 5 13 10 2 2 6 0 5-3"/>
    <path d="M1434 734a7 7 0 1 1-13 0 7 7 0 0 1 13 0M1395 902a7 7 0 1 0 0 14 7 7 0 0 0 0-14m0 18a11 11 0 1 1 0-22 11 11 0 0 1 0 22"/>
    <path d="M1318 796l15 47c1 3 6 2 5-1l-15-47c-1-3-6-2-5 1M1334 791l15 47c1 3 6 2 5-1l-16-48c-1-3-5-2-4 2M1386 745c5 7 3 17 1 24l-6 28c-1 8-1 15 4 21 5 5 13 7 20 5s10-10 9-17c-1-8-7-14-13-18l-18-12c-9-6-21-12-19-24 0-3-5-5-5-2-1 9 2 15 8 21l18 13c7 4 13 7 18 13 6 5 9 15 2 20-6 4-15 0-18-5-4-7-1-17 1-24l5-26c1-7 2-14-3-20-1-2-6 0-4 3M1412 664l-22 44c-2 3 3 6 4 3l23-44c1-3-3-6-5-3M1428 671l-23 44c-1 3 3 6 5 3l22-44c2-3-3-6-4-3"/>
    <path d="M990 756a7 7 0 1 1-14 0 7 7 0 0 1 14 0M1102 855a5 5 0 1 1-9 0 5 5 0 0 1 9 0M951 924a7 7 0 1 0 0 14 7 7 0 0 0 0-14m0 18a11 11 0 1 1 0-22 11 11 0 0 1 0 22"/>
    <path d="M923 913c0-9 2-19 8-27 8-8 20-6 28 1 6 6 10 11 19 12 8 2 14-2 18-8 4-8 5-17 12-24 11-11 20 2 29 9 7 6 18 7 26 2 8-4 12-15 12-24l-1-7c-1-3-5-2-5 2 2 10-1 24-13 27s-19-8-27-14c-9-7-19-4-27 4-6 6-7 15-10 22-5 9-16 8-22 2-6-5-11-11-19-14-9-2-19 1-25 9-5 7-7 16-7 24l-1 4c0 4 5 4 5 0M1089 713a461 461 0 0 1-7 80l4-2c-14-6-27-15-39-24-11-8-19-18-29-25v4c22-15 49-24 74-32 3-1 2-6-1-5-26 8-53 17-76 33v4c10 7 18 17 28 24 13 10 26 19 40 25 2 1 4 1 4-1a446 446 0 0 0 7-82c-1-4-5-2-5 1M988 959c4 4 9 6 14 9l23 14 3-1c9-10 13-25 19-37l-1-4c-13-5-25-12-37-19-3-2-5 3-2 4l36 20-1-4c-5 12-9 27-18 37l3-1-23-14-14-8c-2-2-5 2-2 4M873 818l16 47c1 3 6 2 5-2l-16-46c-1-3-6-2-5 1M889 812l16 48c1 3 5 1 4-2l-15-47c-1-3-6-2-5 1M1094 890l-22 44c-2 3 3 5 4 2l22-44c2-3-3-5-4-2M1109 897l-22 44c-2 3 3 6 4 3l23-45c1-2-3-5-5-2M1125 904l-23 44c-1 3 3 6 5 3l22-45c2-2-3-5-4-2M1114 798l29 7-1-4-24 24c-1 1-1 3 1 4 9 4 17 9 27 12l-1-4c-7 8-17 14-23 23l1 3c7 6 17 8 26 11 3 1 5-4 2-5-8-3-18-4-25-9l1 3c5-9 14-15 21-23 2-1 1-3-1-4-9-3-17-8-26-12l1 4 24-23c1-2 1-4-1-5l-30-6c-3-1-5 3-1 4M1024 788c-10-8-23-12-31 0-3 4-3 10-2 14 3 6 9 9 14 12 3 2 5-2 2-4-7-4-13-8-11-17 3-12 17-7 24-2 2 2 6-1 4-3M942 767c5 6 2 16 0 24l-6 28c-1 7 0 15 5 20 4 6 12 8 19 6 7-3 10-10 9-17 0-8-7-14-13-19l-18-11c-8-6-21-12-19-24 1-4-4-5-5-2-1 9 2 15 8 21l19 13c6 4 13 7 18 12s9 16 1 21c-6 4-14 0-18-6-3-6 0-17 1-23l6-26c1-7 1-14-3-20-2-2-6 0-4 3M1035 813l13 9c2 2 6-1 3-3l-13-10c-3-2-5 3-3 4M968 686l-23 44c-1 3 3 6 5 3l22-45c2-3-3-5-4-2M983 693l-22 44c-2 3 3 6 4 3l23-45c1-3-3-5-5-2M1059 651c-4-8-12-16-21-11-8 3-6 13-3 20 3 9 9 17 13 26l2 6c1 2 0 2-1 4-6 6-13-1-16-6-2-3-6 0-5 2 5 8 15 16 23 8 3-2 5-4 4-8 0-4-2-8-4-11-5-9-10-17-13-27-1-4-1-9 3-10 6-2 11 5 14 10 1 3 5 0 4-3"/>
    <path d="M745 587a7 7 0 1 1-13 0 7 7 0 0 1 13 0M857 686a5 5 0 1 1-9 0 5 5 0 0 1 9 0M706 755a7 7 0 1 0 0 14 7 7 0 0 0 0-14m0 18a11 11 0 1 1 0-22 11 11 0 0 1 0 22"/>
    <path d="M679 744c0-9 1-19 8-27s20-6 28 1c6 5 10 11 19 12 8 1 14-2 18-9s4-16 11-23c12-11 21 2 30 9 7 6 17 7 26 2 8-5 11-15 11-24v-7c-1-3-6-2-5 2 2 10-2 24-14 27s-18-8-26-14c-10-7-20-4-27 4-6 6-7 15-11 22-4 9-15 8-22 2-6-5-10-11-18-14-10-2-19 1-25 9-6 6-7 16-8 24v4c0 4 5 4 5 0M845 544c2 14 0 29-1 43l-6 37 4-2c-15-6-27-15-40-24-10-8-18-18-29-25v4c22-15 49-24 75-32 3-1 1-6-2-5-26 8-53 17-75 33-2 1-2 3 0 4 10 7 18 17 28 24 12 10 25 19 40 25 1 1 3 1 4-1a446 446 0 0 0 6-82c0-4-5-2-4 1M743 790l14 9 23 14 3-1c10-10 13-25 19-37 1-2 1-3-1-4l-36-19c-3-2-5 3-3 4l37 20-1-4c-6 12-9 27-18 37l3-1-23-14-14-8c-3-2-5 2-3 4M629 649l15 47c1 3 6 1 5-2l-15-46c-1-3-6-2-5 1M645 643l15 48c1 3 6 1 5-2l-16-47c-1-3-5-2-4 1M850 721l-23 44c-1 2 3 5 5 2l22-44c1-3-3-5-4-2M865 728l-23 44c-1 3 3 6 5 3l22-45c2-2-3-5-4-2M880 735l-22 44c-2 3 3 6 4 3l23-45c1-2-3-5-5-2M869 629l30 7-1-4-24 24c-1 1-1 3 1 4 8 4 17 9 26 12l-1-4c-7 8-17 14-22 23v3c8 6 18 8 27 11 3 1 4-4 1-5-8-3-17-4-24-9v3c6-9 15-15 22-23 1-1 1-3-1-4-9-3-17-8-26-12l1 4c8-7 16-15 23-24 2-1 1-3-1-4l-30-7c-3 0-4 4-1 5M779 619c-9-8-22-12-30 0-3 4-4 10-2 14 2 6 8 9 13 12 3 2 6-2 3-4-7-4-14-8-11-17 3-12 17-7 24-2 2 2 6-1 3-3M697 598c5 6 3 16 1 24-2 9-5 18-6 28-1 7-1 15 4 20 5 6 13 8 20 6 7-3 10-10 9-17-1-8-7-14-13-19l-18-11c-9-7-21-12-19-25 0-3-4-4-5-1-1 9 2 15 8 21l18 13c7 4 13 7 19 12 5 5 8 16 1 21-6 4-15 0-18-6-4-6-1-17 1-24l5-25c1-7 2-14-2-20-2-2-7 0-5 3M791 644l12 9c3 2 6-1 4-3l-13-10c-3-2-6 3-3 4M723 517l-22 44c-2 3 3 5 4 3l23-45c1-3-3-5-5-2M739 524l-23 44c-1 3 3 6 5 3l22-45c2-3-3-5-4-2M815 482c-4-8-12-16-21-11-8 3-6 13-4 20l14 26 2 6-2 4c-5 6-13-1-16-6-1-3-6 0-4 2 4 8 15 16 23 8 3-2 5-4 4-8l-4-11c-5-9-11-17-14-27-1-4 0-9 4-10 6-3 11 5 13 10 2 2 6 0 5-3"/>
    <path d="M510 422a7 7 0 1 1-13 0 7 7 0 0 1 13 0M622 521a5 5 0 1 1-9 0 5 5 0 0 1 9 0M471 590a7 7 0 1 0 0 14 7 7 0 0 0 0-14m0 18a11 11 0 1 1 0-22 11 11 0 0 1 0 22"/>
    <path d="M444 580c0-10 1-20 8-27 7-9 20-7 28 0 6 6 10 11 19 12 8 2 14-2 17-8 5-8 5-17 12-23 12-12 21 1 30 8 7 6 17 7 26 2 8-4 11-14 11-23v-8c-1-3-6-1-5 2 2 11-2 24-14 27s-18-8-26-14c-10-7-20-4-27 4-6 6-7 15-11 22-4 9-15 8-22 3-6-6-10-12-19-14-9-3-19 1-24 8-6 7-7 16-8 25v4c0 3 5 3 5 0M610 379c2 15 0 29-1 43l-6 37 4-2c-15-6-27-15-40-24l-29-25v4c22-15 49-24 75-32 3-1 1-5-2-5-26 8-53 18-75 33-2 1-2 3 0 4 10 8 18 17 28 24 12 10 25 19 40 26 1 0 3 0 4-2a446 446 0 0 0 6-82c0-3-5-2-4 1M508 625c4 4 10 6 14 9l23 14 3-1c10-10 13-25 19-37 1-1 1-3-1-4-12-5-24-12-36-19-3-1-6 3-3 5l37 19-1-4c-6 12-9 27-18 37l3-1-23-13-14-9c-3-2-5 3-3 4M394 484l15 47c1 3 6 2 5-1l-15-47c-1-3-6-2-5 1M410 478l15 48c1 3 6 2 5-2l-16-47c-1-3-5-2-4 1M615 556l-23 44c-1 3 3 5 5 2l22-44c1-2-3-5-4-2M630 563l-23 44c-1 3 3 6 5 3l22-44c2-3-3-6-4-3M645 570l-22 45c-2 2 3 5 4 2l23-44c1-3-3-6-5-3M634 465l30 6-1-4-24 24v4l27 12-1-4c-7 8-17 14-22 23v3c8 7 18 8 27 11 3 1 4-3 1-5-8-3-17-4-24-9v3c5-9 15-15 22-23 1-1 1-3-1-4l-26-11v4l24-24c2-2 1-4-1-4l-30-7c-3-1-4 4-1 5M544 454c-9-8-23-12-30 0-3 4-4 10-2 15s8 9 13 11c3 2 6-2 3-4-7-4-14-8-11-17 3-12 17-7 24-2 2 2 6-1 3-3M462 433c5 6 3 17 1 24-2 9-5 18-6 28-1 8-1 15 4 21 5 5 13 7 20 5s10-10 9-17c-1-8-7-14-13-18l-18-12c-9-6-21-12-19-24 0-3-5-5-5-2-1 9 2 15 8 21 5 5 12 9 18 13 7 4 13 7 18 12 6 6 9 16 2 21-6 4-15 0-18-6-4-6-1-16 1-23l5-26c1-7 2-14-3-20-1-2-6 0-4 3M556 480l12 9c3 2 6-2 4-4l-13-10c-3-1-6 3-3 5M488 352l-22 44c-2 3 3 6 4 3l23-45c1-2-3-5-5-2M504 359l-23 44c-1 3 3 6 5 3l22-45c2-2-3-5-4-2M579 317c-3-7-11-15-20-11-8 3-6 14-4 20l13 27 3 5-2 4c-5 6-13-1-16-6-1-3-6 0-4 3 4 7 14 15 23 8 3-3 5-5 4-9l-5-11c-4-8-10-17-13-27-1-4 0-9 4-10 6-2 11 6 13 10 2 3 6 0 4-3"/>
    <path d="M305 612a7 7 0 1 1-13 0 7 7 0 0 1 13 0M417 711a5 5 0 1 1-9 0 5 5 0 0 1 9 0M266 780a7 7 0 1 0 0 14 7 7 0 0 0 0-14m0 18a11 11 0 1 1 0-22 11 11 0 0 1 0 22"/>
    <path d="M239 769c0-9 1-19 7-27 8-8 21-6 28 1 7 5 11 11 20 12 8 1 14-2 17-9 5-8 5-16 12-23 12-11 21 2 29 9 8 6 18 7 26 2 9-5 12-15 12-24l-1-7c0-3-5-2-4 1 2 11-2 25-14 28s-18-8-27-14c-9-7-19-4-27 4-5 6-6 15-10 22-4 8-15 8-22 2-6-5-10-11-19-14-9-2-19 1-24 8-6 7-8 17-8 25v4c0 4 5 4 5 0M404 569a460 460 0 0 1-7 80l4-2c-14-6-26-15-39-24-10-8-19-18-29-25v4c22-15 49-24 74-32 3-1 2-6-1-5-26 8-53 17-75 33-2 1-2 3 0 4 9 7 17 17 27 24 13 10 26 19 41 25 1 1 3 1 3-1a446 446 0 0 0 7-83c0-3-5-1-5 2M303 815l14 9 23 13h3c10-10 13-25 19-37l-1-4c-12-6-25-12-36-19-3-2-6 3-3 4 12 7 24 14 36 19v-3c-6 12-9 27-19 37l3-1-22-14-15-8c-2-2-5 2-2 4M189 674l15 47c1 3 6 1 5-2l-15-46c-1-3-6-2-5 1M204 668l16 48c1 3 6 1 5-2l-16-47c-1-3-6-2-5 1M409 746l-22 44c-1 2 3 5 4 2l23-44c1-3-3-5-5-2M425 753l-23 44c-1 3 3 6 4 3l23-45c1-3-3-5-4-2M440 760l-22 44c-2 3 2 6 4 3l22-45c2-3-2-5-4-2M429 654l30 7-1-4-24 24v4l27 12-1-4c-7 8-17 14-22 23v3c8 6 18 8 27 11 3 1 4-4 1-5-8-3-18-4-24-9v3c5-9 15-15 22-23 1-1 0-3-1-4-9-3-18-8-26-12v4c9-7 16-16 24-24 1-1 1-3-1-4l-30-7c-3 0-4 4-1 5M339 644c-9-8-23-12-31 0-2 4-3 10-1 14 2 6 8 9 13 12 3 2 5-3 3-4-7-4-14-8-12-17 4-12 18-8 24-2 3 2 6-1 4-3M257 623c5 6 2 16 1 24-2 9-5 18-6 28-1 7-1 14 4 20s13 8 19 6c7-3 10-10 10-17-1-8-7-14-14-19l-17-11c-9-7-21-12-19-25 0-3-5-4-5-1-1 8 1 15 8 21l18 13c6 4 13 7 18 12 6 5 9 16 2 21-6 4-15 0-18-6-4-6-1-17 1-24l5-26c1-6 1-13-3-19-2-2-6 0-4 3M351 669l12 9c3 2 6-1 4-3l-14-10c-2-2-5 3-2 4M283 542l-22 44c-2 3 3 5 4 3l23-45c1-3-3-5-5-2M299 549l-23 44c-1 3 3 5 5 3l22-45c2-3-3-5-4-2M374 507c-4-8-11-16-21-12-7 4-6 14-3 21 3 9 9 17 13 26l3 6-2 4c-6 6-13-1-16-6-2-3-6 0-4 2 4 8 14 15 23 8 3-2 4-5 4-9l-5-10c-4-9-10-17-13-27-1-4-1-9 4-11 6-2 11 6 13 11 1 2 6 0 4-3"/>
    <path d="M783 935a7 7 0 1 1-14 0 7 7 0 0 1 14 0"/>
    <path d="M882 892a461 461 0 0 1-7 80l4-2c-14-7-27-15-39-24-10-8-19-18-29-25v4c22-15 49-24 74-32 3-1 2-6-1-5-26 8-53 17-76 33v4c10 7 18 17 28 24 13 10 26 19 41 25 1 1 3 1 3-1a446 446 0 0 0 7-83c-1-3-5-1-5 2M817 966c-10-7-23-11-31 1-3 4-3 10-2 14 3 6 9 9 14 12 3 2 5-3 2-4-7-4-13-8-11-17 3-12 18-8 24-2 3 2 6-1 4-4M829 992l12 9c2 2 6-1 3-3l-13-10c-3-2-5 3-2 4M761 865l-23 44c-1 3 3 5 5 2l22-44c2-3-3-5-4-2M776 872l-22 44c-2 3 3 5 4 3l23-45c1-3-3-5-5-2M852 830c-4-8-12-16-21-12-8 4-6 14-3 21 3 9 9 17 13 26l2 6c1 2 0 2-1 4-6 6-13-1-16-6-2-3-6 0-5 2 5 8 15 15 23 8 3-2 5-5 4-9 0-3-2-7-4-10-5-9-10-18-13-27-1-4-1-9 3-11 7-2 12 6 14 11 1 2 5 0 4-3"/>
    <path d="M544 766a7 7 0 1 1-13 0 7 7 0 0 1 13 0M656 865a5 5 0 1 1-9 0 5 5 0 0 1 9 0M505 934a7 7 0 1 0 0 14 7 7 0 0 0 0-14m0 18a11 11 0 1 1 0-22 11 11 0 0 1 0 22"/>
    <path d="M478 924c0-10 1-20 7-27 8-9 21-7 28 0 7 6 11 11 20 12 7 2 14-1 17-8 4-8 5-17 12-23 12-11 20 1 29 8 8 6 18 7 26 2 8-4 12-14 12-23l-1-8c0-3-5-1-5 2 2 11-1 24-13 27s-18-8-27-14c-9-7-19-4-27 4-6 6-7 15-10 22-4 9-15 8-22 3-6-6-11-12-19-14-9-3-19 1-25 8-5 7-7 16-7 25v4c0 3 5 3 5 0M643 723a460 460 0 0 1-7 80l4-2c-14-6-27-15-39-24l-29-25v4c22-15 49-24 74-32 3-1 2-5-1-4-26 7-53 17-76 32v4c10 8 18 17 28 24 13 10 26 19 41 26 1 0 3 0 3-2a446 446 0 0 0 7-82c0-3-5-2-5 1M542 969c4 4 9 6 14 9l23 14 3-1c10-10 13-25 19-37l-1-4c-13-5-25-12-37-19-2-1-5 3-2 5l36 19-1-4c-5 12-8 27-18 37h3l-23-14-14-9c-2-2-5 3-2 4M428 828l15 47c1 3 6 2 5-1l-16-47c-1-3-5-2-4 1M443 823l16 47c1 3 6 2 5-1l-16-48c-1-3-6-2-5 2M648 900l-22 44c-2 3 3 5 4 2l22-43c2-3-2-6-4-3M663 907l-22 45c-2 2 3 5 4 2l23-44c1-3-3-6-5-3M679 914l-23 45c-1 2 3 5 5 2l22-44c2-3-3-6-4-3M668 809l30 6-2-4-23 24c-2 1-1 3 0 4l27 12-1-4c-7 8-17 14-23 23l1 3c8 7 18 8 26 11 4 2 5-3 2-4-8-4-18-5-25-10l1 3c5-9 15-15 22-22 1-2 0-4-2-5l-25-11v4l24-24c1-2 1-4-1-4l-30-7c-3-1-4 4-1 5M578 798c-9-8-23-12-31 0-3 4-3 10-1 15s8 9 13 11c3 2 5-2 2-4-7-4-13-8-11-17 3-12 18-7 24-2 3 2 6-1 4-3M496 777c5 6 2 17 1 24l-6 28c-1 8-1 15 4 21 5 5 13 7 19 5 7-2 10-10 10-17-1-8-8-14-14-18-5-5-12-8-18-12-8-6-20-12-19-24 1-3-4-5-4-2-2 9 1 15 8 21 5 5 12 9 18 13s13 7 18 13c5 5 9 15 2 20-6 4-15 0-18-6-4-6-1-16 0-23 2-9 5-17 6-26 1-7 1-14-3-20-2-2-6 0-4 3M590 824l12 9c2 2 6-2 3-4l-13-10c-3-1-5 3-2 5M522 696l-22 44c-2 3 2 6 4 3l22-45c2-2-2-5-4-2M538 703l-23 44c-1 3 3 6 4 3l23-45c1-2-3-5-4-2M613 661c-4-7-12-15-21-11-8 3-6 14-3 20 3 9 9 18 13 27l2 5c1 2 1 2-1 4-6 6-13-1-16-6-2-3-6 0-4 3 4 7 14 15 22 8 3-3 5-5 4-9 0-4-2-7-4-10-4-9-10-18-13-28-1-4-1-9 4-10 6-2 11 6 13 10 1 3 6 0 4-3"/>
    <path d="M291 262a7 7 0 1 1-13 0 7 7 0 0 1 13 0M403 361a5 5 0 1 1-9 0 5 5 0 0 1 9 0M252 430a7 7 0 1 0 0 14 7 7 0 0 0 0-14m0 18a11 11 0 1 1 0-22 11 11 0 0 1 0 22"/>
    <path d="M225 420c0-10 1-20 8-27 7-9 20-7 27 0 7 6 11 11 20 12 8 2 14-1 17-8 5-8 5-17 12-23 12-11 21 1 30 8 7 6 17 7 26 2 8-4 11-14 11-23v-8c-1-3-6-1-5 2 2 11-2 24-14 27s-18-8-26-14c-10-7-20-4-27 4-6 6-7 15-11 22-4 9-15 8-22 3-6-6-10-12-19-14-9-3-19 1-24 8-6 7-7 16-8 25v4c0 3 5 3 5 0M391 219c2 15 0 29-1 43l-6 37 3-2c-14-6-26-15-39-24l-29-25v4c22-15 49-24 74-32 4-1 2-5-1-4-26 7-53 17-75 32-2 1-2 3 0 4l27 24c13 10 26 19 41 26 1 0 3 0 4-2a446 446 0 0 0 6-82c0-3-5-2-4 1M289 465c4 4 9 6 14 9l23 14 3-1c10-10 13-25 19-37 1-1 0-3-1-4-12-5-24-12-36-19-3-1-6 3-3 5l37 19-1-4c-6 12-9 27-18 37l3-1-23-13-14-9c-3-2-5 3-3 4M175 324l15 47c1 3 6 2 5-1l-15-47c-1-3-6-2-5 1M191 318l15 48c1 3 6 2 5-1l-16-48c-1-3-5-2-4 1M396 396l-23 44c-1 3 3 5 5 2l22-43c1-3-3-6-4-3M411 403l-23 45c-1 2 3 5 5 2l22-44c2-3-3-6-4-3M426 410l-22 45c-2 2 3 5 4 2l23-44c1-3-3-6-5-3M415 305l30 6-1-4-24 24v4l27 12-1-4c-7 8-17 14-22 23v3c8 7 18 8 27 11 3 1 4-3 1-4-8-4-17-5-24-10v3c5-9 15-15 22-23 1-1 1-3-1-4l-26-11v4l24-24c2-2 1-4-1-4l-30-7c-3-1-4 4-1 5M325 294c-9-8-23-12-30 0-3 4-4 10-2 15s8 9 13 11c3 2 6-2 3-4-7-4-14-8-11-17 3-12 17-7 24-2 2 2 6-1 3-3M243 273c5 6 2 17 1 24l-6 28c-1 8-1 15 4 21 5 5 13 7 20 5s10-10 9-17c-1-8-7-14-13-18l-18-12c-9-6-21-12-19-24 0-3-5-5-5-2-1 9 2 15 8 21 5 5 12 9 18 13 7 4 13 7 18 12 6 6 9 16 2 21-6 4-15 0-18-6-4-6-1-16 1-23l5-26c1-7 2-14-3-20-1-2-6 0-4 3M337 320l12 9c3 2 6-2 4-4l-14-10c-2-1-5 3-2 5M269 192l-22 44c-2 3 3 6 4 3l23-45c1-2-3-5-5-2M285 199l-23 44c-1 3 3 6 5 3l22-45c2-2-3-5-4-2M360 157c-3-7-11-15-21-11-7 3-5 14-3 20l13 27 3 5-2 4c-6 6-13-1-16-6-1-3-6 0-4 3 4 7 14 15 23 8 3-3 5-5 4-9l-5-11c-4-8-10-17-13-27-1-4-1-9 4-10 6-2 11 6 13 10 2 3 6 0 4-3"/>
    <path d="M159 192a5 5 0 1 1-9 0 5 5 0 0 1 9 0"/>
    <path d="M146 50a460 460 0 0 1-7 80l4-2c-14-6-27-15-39-24L75 79v4c22-15 49-24 74-32 3-1 2-5-1-5-26 8-53 18-76 33v4c10 8 18 17 28 24 13 10 26 19 41 26 1 0 3 0 3-2a446 446 0 0 0 7-82c0-3-5-2-5 1M151 227l-22 44c-2 3 3 5 4 2l22-44c2-2-2-5-4-2M166 234l-22 44c-2 3 3 6 4 3l23-44c1-3-3-6-5-3M182 241l-23 45c-1 2 3 5 5 2l22-44c2-3-3-6-4-3M171 135l29 7-1-4c-7 8-15 17-24 24-1 1 0 3 1 4l27 12-1-4c-7 8-17 14-23 23l1 3c7 6 17 8 26 11 3 1 5-3 2-5-8-3-18-4-25-9l1 3c5-9 14-15 21-23 2-1 1-3-1-4l-25-11v4l24-24c1-2 1-4-1-5l-30-6c-3-1-4 4-1 4M81 125c-10-8-23-12-31 0-3 4-3 10-2 15 3 5 9 9 14 11 3 2 5-2 2-4-7-4-13-8-11-17 3-12 18-7 24-2 3 2 6-1 4-3M93 151l12 9c2 2 6-2 3-4l-13-10c-3-1-5 3-2 5"/>
    <path d="M213 97a7 7 0 1 0 0 13 7 7 0 0 0 0-13m0 17a11 11 0 1 1 0-21 11 11 0 0 1 0 21"/>
    <path d="M250 132l14 8 23 14h3c9-10 13-25 19-38l-1-3-37-19c-2-2-5 2-2 4l36 19-1-3c-5 12-8 26-18 36h3l-23-14-14-8c-2-2-5 2-2 4M356 62l-22 44c-2 3 3 6 4 3l22-44c2-3-2-6-4-3M371 69l-22 45c-2 3 3 5 4 2l23-44c1-3-3-5-5-3M387 77l-23 44c-1 3 3 5 5 2l22-44c2-3-3-5-4-2"/>
    <path d="M323 952a7 7 0 1 1-14 0 7 7 0 0 1 14 0"/>
    <path d="M422 909c2 14 0 29-1 43l-6 36 4-1c-14-7-27-15-40-24-10-8-18-18-29-25v4c23-15 49-24 75-32 3-1 1-6-2-5-25 8-53 17-75 33-2 1-2 3 0 4 10 7 18 17 28 24 12 10 26 19 40 25 2 1 4 1 4-1a445 445 0 0 0 7-83c-1-3-6-1-5 2M356 983c-9-7-22-11-30 1-3 4-4 10-2 14 2 6 9 9 14 12 2 2 5-3 2-4-7-4-14-8-11-17 3-12 17-8 24-2 2 2 6-1 3-4M301 882l-23 44c-1 3 3 5 4 2l23-44c1-3-3-5-4-2M316 889l-22 44c-2 3 2 5 4 3l22-45c2-3-2-5-4-2M392 847c-4-8-12-16-21-12-8 4-6 14-4 21l14 26 2 6c1 2 0 2-1 4-6 6-14-1-17-6-1-3-6 0-4 2 4 8 15 15 23 8 3-2 5-5 4-9l-4-10c-5-9-11-18-13-27-2-4-1-9 3-11 6-2 11 6 13 11 2 2 6 0 5-3"/>
    <path d="M94 795a7 7 0 1 1-13 0 7 7 0 0 1 13 0M206 894a5 5 0 1 1-9 0 5 5 0 0 1 9 0"/>
    <path d="M193 752a460 460 0 0 1-7 80l4-2c-14-7-27-15-39-25-10-7-19-17-29-25v5c22-15 49-25 74-32 3-1 2-6-1-5-26 8-53 17-76 32v5c10 7 18 16 28 24 13 9 26 18 41 25 1 1 3 0 3-1a446 446 0 0 0 7-83c0-3-5-2-5 2M198 928l-22 44c-2 3 3 6 4 3l23-44c1-3-3-5-5-3M213 936l-22 44c-2 3 3 5 4 3l23-45c1-3-3-5-5-2M229 943l-23 44c-1 3 3 5 5 3l22-45c2-3-3-5-4-2M218 837l30 7-2-4-23 24c-2 1-1 3 0 3 9 5 18 10 27 13l-1-5c-7 8-17 15-23 24l1 3c8 6 18 7 27 11 3 1 4-4 1-5-8-3-18-4-25-10l1 3c5-8 15-14 22-22 1-1 0-4-2-4-9-3-17-8-25-12v4c9-7 16-16 24-24 1-1 1-4-1-4l-30-7c-3-1-4 4-1 5M128 826c-9-8-23-11-31 0-3 5-3 10-1 15 2 6 8 9 13 12 3 2 5-3 3-4-8-4-14-8-12-17 3-12 18-8 24-2 3 2 6-2 4-4M140 852l12 9c2 2 6-1 3-3l-13-10c-3-2-5 2-2 4M72 724l-22 45c-2 3 2 5 4 2l22-44c2-3-2-5-4-3M88 731l-23 45c-1 3 3 5 4 2l23-44c1-3-3-5-4-3M163 690c-4-8-12-16-21-12-8 4-6 14-3 20 3 10 9 18 13 27l2 5c1 3 1 3-1 5-6 6-13-1-16-6-2-3-6-1-4 2 4 8 14 15 22 8 4-3 5-5 4-9 0-3-2-7-4-10-4-9-10-18-13-27-1-4-1-9 4-11 6-2 11 6 13 10 1 3 6 1 4-2"/>
    <path d="M84 441a7 7 0 1 1-13 0 7 7 0 0 1 13 0M196 540a5 5 0 1 1-9 0 5 5 0 0 1 9 0"/>
    <path d="M184 398c2 14 0 29-1 43l-6 37 4-2c-15-6-27-15-40-24-10-8-19-18-29-25v4c22-15 49-24 75-32 3-1 1-6-2-5-26 8-53 17-75 33-2 1-2 3 0 4 10 7 18 17 28 24 12 10 25 19 40 25 1 1 3 1 4-1a446 446 0 0 0 6-82c0-4-5-2-4 1M82 644l14 9 23 14 3-1c10-10 13-25 19-37 1-1 1-3-1-4-12-5-24-12-36-19-3-2-5 3-3 4 12 8 24 14 37 20l-1-4c-6 12-9 27-18 37l3-1-23-13-14-9c-3-2-5 2-3 4M189 575l-23 44c-1 3 3 5 5 2l22-44c1-3-3-5-4-2M204 582l-23 44c-1 3 3 6 5 3l22-45c2-2-3-5-4-2M219 589l-22 44c-2 3 3 6 4 3l23-44c1-3-3-6-5-3M208 483l30 7-1-4-24 24v4l27 12-1-4c-7 8-17 14-22 23v3c8 6 18 8 27 11 3 1 4-3 1-5-8-3-17-4-24-9v3c5-9 15-15 22-23 1-1 1-3-1-4-9-3-17-8-26-12l1 4 23-23c2-2 1-4-1-5l-30-6c-3-1-4 4-1 4M118 473c-9-8-23-12-30 0-3 4-4 10-2 14 2 6 8 9 13 12 3 2 6-2 3-4-7-4-14-8-11-17 3-12 17-7 24-2 2 2 6-1 3-3M130 498l12 9c3 2 6-1 4-3l-13-10c-3-2-6 3-3 4M78 378l-23 44c-1 3 3 6 5 3l22-45c2-3-3-5-4-2M153 336c-3-8-11-16-20-11-8 3-6 13-4 20l13 26 3 6-2 4c-5 6-13-1-16-6-1-3-6 0-4 3 4 7 14 15 23 7 3-2 5-4 4-8l-4-11c-5-9-11-17-14-27-1-4 0-9 4-10 6-2 11 5 13 10 2 3 6 0 4-3"/>
  </g>
</svg>
