<svg xmlns="http://www.w3.org/2000/svg" viewBox="0 0 640 640">
  <g fill="none" fill-rule="evenodd" stroke="#FFF">
    <path d="M531.3 335.4l-2.6-2.3c-1.6-1.4-3.6-3.1-5.9-4.8-4.3-3.5-8.7-6.6-8.7-6.6l-6.5 6a99.5 99.5 0 0 1-4.6 3.8l-2.2 1.6 1.9 2 4 4.5 5.6 6.8 9.6-5.2 6.5-4 3-1.8zM527.3 363.9l-.6-.8-1.7-1.8a259.7 259.7 0 0 0-10.4-11l-1.8-1.7-.7-.6-.6.4-1.7 1.2a266.3 266.3 0 0 1-10 6.6l-1.7 1-.7.3 5 7.2c.5 1 1.1 1.8 1.7 2.7l1.4 2.4 1.4 2.4 3.2-1.2 3.4-1.2 3.7-1.5c5-2 10.1-4.4 10.1-4.4zM519.5 391.6l-6.3-9.2-2.4-3.2-2.2-2.8-2.1-2.6-2.5 1.3-2.4 1.2-3 1.4c-4 1.9-7.9 3.5-7.9 3.5a772 772 0 0 0 1.3 2.4A252.6 252.6 0 0 1 498 397l3.4-.6a254.6 254.6 0 0 0 17-4.5l1-.3z"/>
    <path d="M517.6 334.3l-2.6-2.9-3 2.5 2.6 3zM513.9 361l-1.1-1.6-1.1-1.7-1.7 1.1-1.6 1 2.1 3.3 3.4-2.1zM506.5 387l-1.7-3.7-3.6 1.7.9 1.8.8 1.7 1.8-.8 1.8-.8zM516.4 407.3l1.6-3.5 3.8-9.5c2.8-8 6.3-18.7 8.6-29.8l.8-4.1.7-4.1.7-4.1.5-4c.4-2.6.8-5.1 1-7.6l.5-6.8.2-3v-2.7l.2-4.5v-3.8 3.8l-.1 4.5-.1 2.7-.2 3-.6 6.8c-.1 2.5-.5 5-.9 7.6l-.5 4-.7 4-.7 4.2-.8 4.1a226.4 226.4 0 0 1-12.4 39.3l-1.6 3.5zM482.3 392.1l1.3-3 3.1-7.7a189 189 0 0 0 7-24.6c.4-1.1.5-2.3.7-3.4l.6-3.4.6-3.4.5-3.3.7-6.2.4-5.7.2-2.5v-2.2l.2-3.7v-3.2 3.2l-.1 3.7v2.2l-.3 2.5-.4 5.7-.7 6.2-.5 3.3-.6 3.4-.6 3.4c-.2 1.1-.3 2.3-.6 3.4a189 189 0 0 1-7.1 24.6l-3.1 7.8-1.3 3zM506.8 420.1s-2.4-5.1-5-10l-1.8-3.5-1.7-3c-1-1.9-1.8-3-1.8-3l-2.6.9-2.6.9-3.1 1-8.4 2.2 1 2.6a257.7 257.7 0 0 1 3.4 11.5l.6 2.7 3.5-.2a222 222 0 0 0 15-1.6l3.5-.5zM491.4 444.5s-1.6-5.4-3.4-10.5l-2.8-7.1-1.2-3.2-2.8.6-5.9 1-8.6 1.2.6 2.6 1 6 .8 6 .3 2v.7h1l2.4.2a259.7 259.7 0 0 0 15.2.5h3.4zM473 466.5l-.6-3.4-1.5-7.4-2.5-10.7-8.8.4h-8.7a5218.7 5218.7 0 0 0 .3 5.5v12s5.3 1.1 10.8 2a7147.6 7147.6 0 0 1 7.5 1.1c2 .4 3.4.5 3.4.5z"/>
    <path d="M494.6 413.6l-1.2-3.8-3.7 1.1a228 228 0 0 0 1.1 3.7l2-.5 1.3-.3.5-.2zM480.3 436.4l-.7-4-3.9.6a2265 2265 0 0 0 .7 4l2-.3 1.9-.3zM463 457l-.1-3.9h-4l.2 3.9zM463.8 479.7l.8-.6 2-2 3.3-3 2-2 2-2.1 4.8-5 5-5.7 2.6-3 2.5-3.3c1.7-2.2 3.5-4.4 5.1-6.7l4.9-6.9 4.4-6.8c1.4-2.2 2.6-4.5 3.8-6.6l1.8-3 1.5-3c2-3.7 3.6-6.8 4.6-9.1l1.5-3.6-1.5 3.6c-1 2.3-2.7 5.4-4.6 9.1l-1.5 3-1.8 3c-1.2 2-2.4 4.4-3.8 6.6l-4.4 6.8-4.9 7-5 6.6c-1 1-1.8 2.2-2.6 3.2l-2.6 3.1-5 5.7-4.7 5-2.1 2.2-2 1.8-3.2 3.1-2.1 2-.8.6zM438.8 452l.6-.6 1.7-1.6 2.7-2.6 1.6-1.5a1951.4 1951.4 0 0 1 5.7-6l4.1-4.7 2.2-2.5 2-2.7c1.5-1.8 3-3.6 4.3-5.5l4-5.7 3.6-5.7c1.2-1.8 2.2-3.7 3.2-5.4l1.4-2.5 1.3-2.4c1.6-3.1 3-5.7 3.8-7.6l1.3-2.9-1.3 3-3.8 7.5-1.3 2.4-1.4 2.5c-1 1.7-2 3.6-3.2 5.4l-3.6 5.7-4 5.7c-1.3 2-2.8 3.7-4.2 5.5l-2.1 2.7-2.2 2.5-4.1 4.8a9904 9904 0 0 1-5.7 5.9l-1.6 1.5-2.7 2.6-1.7 1.6-.6.5zM449.8 487.4s0-5.6-.4-11c-.4-5.6-1-11-1-11s-4.5-.3-8.8-.8l-6-.9-2.6-.4-.2 2.7-.7 6c-.5 4.2-1.3 8.7-1.3 8.7a264.5 264.5 0 0 0 21 6.7zM425.9 503.5l.4-3.5.4-3.5.3-4c.4-5.6.5-11 .5-11l-8.6-2-3-.8-2.7-.9-2.6-.8-.6 2.7-1.4 5.8-2.5 8.4s4.7 2.6 9.7 5c2.5 1.3 5 2.4 6.9 3.2l3.2 1.4zM400 516.2l1-3.3a213.3 213.3 0 0 0 3.5-17.3l.1-1-.7-.2-1.9-.7a257.7 257.7 0 0 1-11-4.6l-2.5-1.2-3.2 8.1-2.4 5.5-1.2 2.5 2.7 2 6.2 4.3 9.4 5.9z"/>
    <path d="M441.3 476.5l.5-3.9-3.9-.5-.5 3.9zM419 491.6l1-3.8-3.8-1.1-1 3.8zM394.8 503.4l.8-1.8.5-1.2.2-.6-.5-.2a403.4 403.4 0 0 0-3.1-1.4l-1.5 3.7 3.6 1.5zM386.3 524.5l3.7-1.2 4.2-1.5 5.4-2c4-1.5 8.4-3.7 13.2-5.8 4.7-2.4 9.8-5 14.6-7.8 9.8-5.6 19-12 25.6-17.4 1.7-1.3 3.3-2.5 4.5-3.6a5798.5 5798.5 0 0 1 6.3-5.5l-2.9 2.6-3.4 2.9c-1.2 1.1-2.8 2.3-4.5 3.6a207 207 0 0 1-25.6 17.4c-4.8 2.9-9.9 5.4-14.6 7.8-4.8 2.1-9.3 4.3-13.2 5.7l-5.4 2.1-4.2 1.5-3.7 1.2zM374.8 489l3-1 3.5-1.3 4.4-1.7c3.3-1.2 7-3 11-4.8 3.8-2 8-4 12-6.4 8-4.7 15.7-10 21.2-14.4l3.7-3 2.8-2.4 2.4-2-2.4 2-2.8 2.5c-1 .9-2.4 1.8-3.7 3-5.5 4.3-13.2 9.6-21.2 14.3-4 2.4-8.2 4.4-12 6.4-4 1.8-7.7 3.6-11 4.8l-4.4 1.7-3.5 1.2-3 1zM370.3 525.8l1.4-3.1a208 208 0 0 0 6-16.6l.3-.9-.6-.3a773.8 773.8 0 0 0-7-4 171.7 171.7 0 0 1-7.3-4.7s-2 3.7-4.3 7.5c-1.2 2-2.4 3.7-3.3 5l-1.5 2.4 2.4 2.4c1.5 1.4 3.5 3.4 5.5 5.1 4 3.7 8.4 7.2 8.4 7.2zM342 530.8s2.9-4.9 5.5-9.7l3.4-6.7 1.5-3-2.2-1.7-4.8-3.7-6.6-5.6-.4.6a1967.3 1967.3 0 0 1-5 6.2 253.5 253.5 0 0 1-5.6 6.7l2 2.8a243.1 243.1 0 0 0 11.5 13.4l.7.7zM313.2 531.8s3.5-4.4 6.7-8.8c3.3-4.5 6.2-9 6.2-9l-6.2-6.2-5.8-6.6-1.8 2-2 2-2.3 2.1-6.6 6a267.2 267.2 0 0 0 7.8 12.7l2 3 2 2.8z"/>
    <path d="M367 512.5l1.1-1.7.7-1.2.3-.5-.5-.3-1.2-.7-1.7-1.1-2 3.3 3.4 2.2zM340.6 517l2.4-3-3-2.5-.4.5-.8 1-1.3 1.5 1.5 1.3 1 1 .6.3zM313.6 518l2.9-2.7-2.7-2.9-2.8 2.7zM297.3 533.9h1l2.9.3 4.4.3 2.7.3h3l6.9.2a50.3 50.3 0 0 0 7.6 0c5.2-.1 10.9-.7 16.5-1.1 11.2-1.2 22.3-3.4 30.5-5.4l9.8-2.8 2.8-.8 1-.4-1 .4-2.8.8-9.8 2.8c-8.2 2-19.3 4.2-30.5 5.4-5.6.4-11.3 1-16.5 1a6585.8 6585.8 0 0 1-7.6.1l-6.9-.1-3-.1-2.7-.3c-1.7 0-3.2-.2-4.4-.3l-2.9-.2-1-.1zM301.2 496.7h.8l2.4.2 3.6.3 2.3.2h2.5l5.6.2H324.7l6.8-.4 6.9-.5c9.3-1 18.4-2.8 25.2-4.5l8.1-2.3 2.3-.7.8-.3-.8.3-2.3.7-8.1 2.3c-6.8 1.7-16 3.5-25.2 4.5l-7 .5c-2.2.2-4.5.3-6.7.3h-3.2c-1 .1-2 .2-3 .1l-5.7-.1-2.5-.1-2.3-.2-3.6-.3-2.4-.1-.8-.1zM282.2 528.6l2.5-2.4 5.4-5.3c3.9-4 7.5-8 7.5-8s-2.8-3.6-5.3-7.2l-3.3-5-1.4-2.2-2.2 1.6-4.8 3.5-7.4 4.9 4.2 10c1 2.7 2.3 5 3.2 7l1.6 3zM254.2 521.6l2.9-2a204.5 204.5 0 0 0 12-9.3l1.8-1.6.7-.6-.4-.7a5543.6 5543.6 0 0 0-3.8-7l-2.6-5.4-1.1-2.5s-3.7 2.1-7.7 4.1l-5.4 2.7-2.5 1.1.8 3.3 2 7.3c1.5 5.3 3.3 10.6 3.3 10.6zM227.5 510.9l.8-.5 2.3-1.2a269.7 269.7 0 0 0 13.1-7.5l2.9-1.9-1-2.5c-.7-1.5-1.4-3.7-2.1-5.7l-2-5.7-.5-1.8-.2-.8s-4 1.6-8.1 3l-5.7 2-2.7.7a5037.6 5037.6 0 0 0 1.3 10.9c.8 5.4 1.9 11 1.9 11z"/>
    <path d="M284.6 515l3.2-2.3-2.2-3.2-3.2 2.3zM258.5 508.5l1.7-1 1.2-.5.6-.3-.3-.6-.6-1.2-.9-1.8-3.4 1.8 1.7 3.6zM233.5 498.5l.6-.2 1.3-.5 1.8-.7-.6-1.8-.5-1.3c0-.4-.2-.6-.2-.6l-3.6 1.3 1.2 3.8zM212.1 506.2l3.4 2 1.8 1 2.1 1 5.2 2.7c7.6 3.7 17.9 8.3 28.7 11.6 2.6 1 5.4 1.7 8 2.5l4 1c1.3.5 2.6.7 3.9 1l7.4 1.7 6.8 1.2c4.1.8 7.6 1.2 10 1.5l3.9.5-3.8-.5c-2.5-.3-6-.7-10.1-1.5l-6.8-1.2c-2.3-.5-4.8-1-7.4-1.7-1.3-.3-2.6-.5-4-1l-3.9-1c-2.6-.8-5.4-1.5-8-2.5-10.8-3.3-21.1-8-28.7-11.6l-5.2-2.7-2.1-1-1.8-1-3.4-2zM230.9 473.8a9278.8 9278.8 0 0 0 4.2 2.4l1.8 1 4.2 2.1c6.3 3 14.8 6.9 23.7 9.6 2.2.8 4.5 1.4 6.7 2l3.2 1 3.3.7 6 1.5c2 .3 4 .6 5.6 1l8.4 1.2 3.2.4-3.2-.4c-2-.3-5-.6-8.4-1.3l-5.5-1-6.1-1.4-3.3-.7-3.2-1c-2.2-.6-4.5-1.2-6.7-2-8.9-2.7-17.4-6.6-23.7-9.6l-4.2-2.2-1.8-.9-1.4-.8-2.8-1.6zM200.5 495.2l3.3-1.1a266 266 0 0 0 17.2-7l-.7-2.7a195.7 195.7 0 0 1-2.2-11.8l-.4-2.6s-4.2 1-8.5 1.8l-3.2.6-2.7.4-2.8.4-.1 3.4a3988 3988 0 0 0-.2 7.5c0 5.5.3 11.1.3 11.1zM177.8 477.4s5.6-1 10.9-2.3l3.9-1 3.4-1c2-.5 3.2-1 3.2-1l-.2-2.7-.3-2.8-.1-3.2c-.3-4.4-.3-8.7-.3-8.7l-2.7.3a256.3 256.3 0 0 1-14.7.6l-.7 3.4a221.9 221.9 0 0 0-2 15l-.4 3.4zM157.8 456.8s5.6-.3 11-.9l7.6-1 3.3-.5.1-2.7.4-6c.4-4.5 1-8.7 1-8.7h-2.8l-6-.5-6-.6-2-.2-.7-.1-.3.9-.7 2.3a260 260 0 0 0-4.1 14.6l-.8 3.4z"/>
    <path d="M208.2 483.9l2-.4 2-.5-.5-1.9-.3-1.9-3.8.7.6 4zM187 467.2l4-.3-.2-3.9h-.6l-1.3.2h-2a2212 2212 0 0 0 .2 4zM168.3 447.9l4 .2.3-3.9h-2l-1.3-.2h-.6v.6l-.2 1.3-.2 2zM145.6 446.3l.6.8 1.7 2.3c1.6 2 3.7 4.8 6.4 8 5.4 6.5 13 14.8 21.4 22.3 8.4 7.6 17.5 14.3 24.5 19l8.6 5.6 3.3 1.9-3.3-2c-2.1-1.2-5-3.2-8.6-5.4a228.7 228.7 0 0 1-46-41.4l-6.3-8-1.7-2.3-.6-.8zM175.9 424.3l.5.7 1.4 1.9 5.2 6.6a191.2 191.2 0 0 0 38 34.2l7.1 4.5 2.8 1.6-2.8-1.6-7.1-4.5a191.2 191.2 0 0 1-38-34.2l-5.2-6.6c-.7-.8-1-1.5-1.4-2l-.5-.6zM139.4 431.5l11.1.8 7.6.1h3.4l.5-2.7 1.2-5.9c1-4.3 2.2-8.4 2.2-8.4l-2.7-.5a261.3 261.3 0 0 1-13.6-3.3c-.5 0-.7-.2-.7-.2l-.4.9-1.1 2.2a259.3 259.3 0 0 0-6.2 13.8l-1.3 3.2zM126 406a73722.4 73722.4 0 0 0 10.8 2.3c5.5 1 10.8 1.7 10.8 1.7s1.4-4.3 3-8.3l2.2-5.6 1-2.5-2.5-.8-2.6-1-3-1-8.2-3.4-6 9.1-2 3.5-1.8 3-1.7 3zM116 379l3.3 1.3 3.3 1.2 4 1.2c5.2 1.7 10.4 3.1 10.4 3.1l4-7.8 1.6-2.8 1.4-2.4 1.4-2.3-7.7-4c-3.8-2-7.6-4.4-7.6-4.4s-3.7 4-7.2 8.2c-3.5 4.2-6.8 8.7-6.8 8.7z"/>
    <path d="M151.2 424.3l3.8.8 1-3.8-2-.4c-.5 0-1-.2-1.3-.3l-.6-.1-.2.6-.3 1.3-.4 1.9zM138.6 400.5l3.7 1.4 1.4-3.7-3.7-1.4zM129.3 375.2l3.4 1.9 2-3.5-3.5-1.8zM109.2 364.5a94981.2 94981.2 0 0 0 1.9 8.1c.3 1.7 1 3.6 1.5 5.6 2.2 8.2 6 18.8 10.5 29.1l1.8 3.9.8 2 1 1.8 3.7 7.2 3.8 6.6 1.8 3 1.7 2.9 3.2 4.8 2.5 3.7 2.2 3.1-2.2-3.1-2.5-3.7-3.2-4.8-1.7-2.8-1.8-3-3.8-6.7-3.7-7.2-1-1.9-.8-2-1.8-3.8c-4.6-10.3-8.3-21-10.5-29.1-.6-2-1.2-3.9-1.5-5.6l-1-4.3-1-3.8zM145.8 356.8l.7 3.1.8 3.6 1.3 4.6c1.8 6.7 5 15.5 8.7 24l1.4 3.2.7 1.6.8 1.5 3.1 6 3.1 5.4 1.5 2.6 1.5 2.3c1 1.4 1.8 2.8 2.5 4 .8 1.2 1.6 2.1 2.1 3l1.9 2.6-1.9-2.6-2-3-2.6-4-1.5-2.3-1.5-2.6-3.1-5.4-3-6-.9-1.5-.7-1.6-1.4-3.2c-3.8-8.5-7-17.3-8.7-24l-1.3-4.6-.8-3.6-.7-3.1zM109.6 348.5a4576.4 4576.4 0 0 0 9.8 5.2c5 2.5 9.9 4.6 9.9 4.6s2.5-3.7 5.2-7.1l3.6-4.7 1.8-2.1-7-5-7-5.6-8.3 7c-4 3.7-8 7.7-8 7.7zM107.6 319.8a281.8 281.8 0 0 0 15.3 10.6l3 1.8 1.8-2a172.5 172.5 0 0 1 10.5-10.4l-6.2-6-4.3-4.3-1.8-2-3 1.7c-1.7 1-4 2.6-6.2 4.1-4.6 3.1-9 6.5-9 6.5zM109.6 291a274 274 0 0 0 16.4 14.8s3.4-2.9 6.8-5.5l7-5.1-1.7-2.1-3.6-4.7c-2.7-3.5-5.2-7.1-5.2-7.1s-5 2.1-10 4.6a150 150 0 0 0-6.7 3.5l-3 1.7z"/>
    <path d="M123.2 346.7l3.2 2.3 2.4-3.1-3.1-2.3zM121.4 319.8l2.9 2.8 2.7-2.8-2.7-2.7zM123.2 292.9l2.5 3.2 3.1-2.4-2.4-3.1zM109.2 275s-.4 1.4-.8 3.8l-.7 4.4-1 5.7c-1.2 8.4-2.1 19.6-2.2 30.9 0 11.2 1 22.5 2.2 30.8l1 5.7.7 4.4c.4 2.5.8 3.8.8 3.8s-.4-1.3-.8-3.8l-.7-4.4-1-5.7c-1.2-8.3-2.1-19.6-2.2-30.8 0-11.3 1-22.5 2.2-30.9l1-5.7.7-4.4c.4-2.4.8-3.8.8-3.8zM145.8 282.8l-.6 3.1-.7 3.6-.7 4.7c-1 7-1.8 16.2-1.9 25.6.1 9.3.9 18.6 1.9 25.5l.7 4.7.7 3.6.6 3.2-.6-3.2-.7-3.6-.7-4.7c-1-6.9-1.8-16.2-1.9-25.5.1-9.4.9-18.7 1.9-25.6l.7-4.7.7-3.6.6-3.1zM116 260.5a249.3 249.3 0 0 0 14.1 17l7.6-4.5 7.7-4-1.4-2.3c-.4-.7-1-1.5-1.4-2.4l-1.6-2.7-4-7.9s-5.2 1.4-10.5 3.1l-3.9 1.3-3.3 1.2-3.2 1.2zM126 233.5l1.6 3 1.8 3 2.1 3.6c3 4.7 6 9 6 9l8.2-3.3 3-1.1 2.6-1 2.6-.8-1-2.4-2.4-5.6-2.9-8.3-10.8 1.6-7.4 1.5-3.4.8zM139.4 208l1.3 3.3a270.6 270.6 0 0 0 7.2 16l.5.8.7-.2 2-.5a264.3 264.3 0 0 1 11.6-2.8l2.7-.4-2.2-8.4c-.5-2.2-1-4.3-1.2-6l-.6-2.7H158c-2 0-4.8 0-7.5.2-5.5.2-11 .7-11 .7z"/>
    <path d="M129.3 264.4l1.9 3.4 3.5-1.8-2-3.5zM138.5 239.1l1.5 3.7 3.7-1.4-1.5-3.7zM151.1 215.3a9708.7 9708.7 0 0 0 1 3.8l.6-.1 1.3-.3 2-.4-1-3.8-3.9.8zM145.6 193.2l-2.2 3.2-2.5 3.6-3.2 4.9-1.7 2.8-1.8 3-3.8 6.6-3.7 7.3-1 1.8-.8 2-1.8 3.8a206 206 0 0 0-10.5 29.1c-.6 2-1.2 4-1.5 5.6l-1 4.4-1 3.7 1-3.7 1-4.4c.3-1.7 1-3.5 1.5-5.6a206 206 0 0 1 10.5-29l1.8-4 .8-1.9 1-1.8 3.7-7.3 3.8-6.6 1.8-3 1.7-2.8 3.2-4.9 2.5-3.6 2.2-3.2zM175.9 215.3l-1.9 2.6-2 3-2.6 4-1.5 2.3-1.5 2.5-3.1 5.5-3 6-.9 1.5-.7 1.6-1.4 3.1c-3.8 8.6-7 17.3-8.7 24l-1.3 4.7-.8 3.6-.7 3 .7-3 .8-3.6 1.3-4.6c1.8-6.8 5-15.5 8.7-24l1.4-3.2.7-1.6.8-1.5 3.1-6c1-2 2.1-3.8 3.1-5.5l1.5-2.5 1.5-2.3 2.5-4 2.1-3 1.9-2.6zM157.8 182.8l.8 3.4a203.8 203.8 0 0 0 4 14.6l.8 2.3.3.9.7-.1a946.8 946.8 0 0 0 8-.8l6-.5h2.7l-1-8.7-.3-6-.1-2.8-3.4-.5-7.5-1c-5.4-.5-11-.8-11-.8zM177.8 162.1l.3 3.5a267.5 267.5 0 0 0 2.1 15l.6 3.4a4993.7 4993.7 0 0 0 8.9.2 262.1 262.1 0 0 1 8.6.6l.2-8.6a5540 5540 0 0 1 .7-8.8l-3.3-1a5524.3 5524.3 0 0 1-7.2-1.9c-5.3-1.3-10.9-2.4-10.9-2.4zM200.5 144.3s-.3 5.7-.3 11.2a3575 3575 0 0 0 .3 10.9l2.7.4 2.8.4 3.2.6c4.3.8 8.5 1.8 8.5 1.8s0-1 .4-2.7a261.4 261.4 0 0 1 2.8-14.4l-3-1.5a216.2 216.2 0 0 0-17.4-6.7z"/>
    <path d="M168.3 191.7l.2 2v1.3l.2.6h.6l1.3-.1 2-.1-.4-4-3.9.3zM187 172.4v2l-.1 2h2l1.9.1.2-3.8-4-.3zM208.2 155.7l-.7 4 3.9.7.3-2 .4-1.9-2-.4-2-.4zM212.1 133.4l-3.3 1.9-8.6 5.5a228.9 228.9 0 0 0-46 41.3l-6.3 8-1.7 2.3c-.3.6-.6.8-.6.8s.3-.2.6-.8l1.7-2.3 6.4-8c5.4-6.5 13-14.7 21.4-22.3 8.4-7.6 17.5-14.3 24.5-19l8.6-5.5 3.3-2zM230.9 165.8l-2.8 1.5-7.1 4.6a191 191 0 0 0-38 34.2l-5.2 6.6-1.4 1.9-.5.7.5-.7 1.4-2 5.2-6.5a191 191 0 0 1 38-34.2l7.1-4.6 2.8-1.5zM227.5 128.7l-2 11-.9 7.4-.3 3.4a2624.3 2624.3 0 0 0 8.4 2.7l8 3s.2-.2.3-.7l.6-1.8 1.9-5.7 2-5.7 1-2.6-2.8-1.8a178.8 178.8 0 0 0-13.1-7.6l-2.3-1.2-.8-.4zM254.2 118l-3.4 10.5-2 7.3-.7 3.3 2.5 1.2 5.4 2.6c4 2 7.6 4.2 7.6 4.2l1.2-2.5a161.2 161.2 0 0 1 5.4-10.7l1-1.8.4-.6-.7-.7-1.9-1.5a251.1 251.1 0 0 0-12-9.3l-2.8-2zM282.2 111l-1.6 3.1c-1 1.9-2.1 4.3-3.2 6.9-2.3 5-4.2 10-4.2 10l7.3 5c1.8 1.1 3.6 2.5 4.9 3.4l2.1 1.7 1.5-2.3c.9-1.3 2-3.3 3.3-5l5.2-7s-3.5-4.1-7.4-8.1l-5.4-5.3-2.5-2.4z"/>
    <path d="M233.5 141.1l-1.3 3.8 3.7 1.3.2-.6.4-1.3.7-1.8-1.9-.7-1.3-.5-.5-.2zM258.4 131l-1.7 3.6 3.5 1.8.8-1.7.6-1.3.3-.5-.5-.3-1.2-.6-1.8-1zM284.6 124.6l-2.3 3.2 3.3 2.3 2.2-3.3zM297.3 105.7l-3.8.4c-2.5.4-6 .7-10.2 1.5l-6.7 1.2-7.4 1.7-4 1-3.9 1-8 2.5a212 212 0 0 0-28.7 11.7l-5.2 2.6-2.1 1.1-1.8 1-3.4 2 3.4-2 1.8-1 2.1-1c1.5-.9 3.3-1.7 5.2-2.7a212 212 0 0 1 28.7-11.7c2.6-1 5.4-1.6 8-2.4l4-1.1 3.9-1 7.4-1.7 6.7-1.2c4.2-.8 7.7-1.1 10.2-1.5l3.8-.4zM301.2 142.9l-3.2.4c-2 .3-5 .5-8.4 1.2l-5.5 1-6.1 1.4-3.3.8-3.2 1c-2.2.6-4.5 1.1-6.7 2-8.9 2.7-17.4 6.5-23.7 9.5l-4.2 2.2-1.8 1-1.4.8-2.8 1.6 2.8-1.6 1.4-.9 1.8-.9 4.2-2.2c6.3-3 14.8-6.8 23.7-9.6 2.2-.8 4.5-1.3 6.7-2l3.2-1 3.3-.7 6-1.4 5.6-1c3.5-.7 6.4-1 8.4-1.2l3.2-.4zM313.2 107.8l-2 2.8-2 3-2.2 3.4c-3 4.6-5.6 9.3-5.6 9.3a283 283 0 0 0 12.7 12l5.8-6.5 6.2-6.2-6.2-9c-3.2-4.5-6.7-8.8-6.7-8.8zM342 108.8l-.7.6-1.7 2a266.9 266.9 0 0 0-9.8 11.5l-2 2.7a12220.8 12220.8 0 0 0 5.7 6.7 255 255 0 0 1 3.7 4.7l1.1 1.6.5.6 6.6-5.6 4.7-3.8 2.2-1.6-1.4-3.1-3.5-6.7c-2.6-4.8-5.5-9.6-5.5-9.6zM370.3 113.7s-4.4 3.6-8.4 7.2l-5.5 5.2-2.4 2.4 1.5 2.3 3.2 5 4.4 7.6 2.2-1.5a169 169 0 0 1 10.3-6.2l1.7-1 .7-.4-.3-.9-.7-2.3a258.7 258.7 0 0 0-5.3-14.2l-1.4-3.2z"/>
    <path d="M313.6 121.5l-2.7 2.9 2.9 2.8 2.6-2.9zM340.5 122.5l-.5.3-1 1-1.5 1.2 1.2 1.5.8 1 .4.6 3-2.5-2.4-3.1zM367 127l-3.3 2.2 2 3.3 1.7-1 1.1-.7.5-.4s0-.2-.3-.5l-.7-1.1-1-1.7zM386.3 115l-1-.3-2.7-.9-9.8-2.7c-8.2-2-19.3-4.3-30.5-5.4-5.6-.5-11.3-1-16.5-1l-4-.2h-3.6l-6.9.2-3 .1-2.7.2-4.4.3-2.9.3h-1 1l2.9-.3 4.4-.3 2.7-.2 3-.1a8939 8939 0 0 1 10.6-.2l3.9.1c5.2 0 10.9.6 16.5 1 11.2 1.2 22.3 3.5 30.5 5.5l9.8 2.7 2.8.9 1 .3zM374.8 150.6s-.3 0-.8-.3l-2.3-.7-8.1-2.2c-6.8-1.7-16-3.5-25.2-4.5l-7-.6c-2.2-.2-4.5-.2-6.7-.3h-11.9l-2.5.2-2.3.1-3.6.3-2.4.2h-.8.8l2.4-.2 3.6-.3 2.3-.1 2.5-.1 5.6-.2h3.1l3.2.1 6.8.3 6.9.6c9.3 1 18.4 2.8 25.2 4.5 3.4.8 6.1 1.7 8.1 2.2l2.3.7.8.3zM400 123.3l-9.4 6c-2.3 1.4-4.5 3-6.2 4.2l-2.7 2 1.1 2.5 2.5 5.5c1.7 4.1 3.1 8.1 3.1 8.1l2.5-1.1a171.8 171.8 0 0 1 11-4.7l2-.7.7-.2-.2-1-.4-2.4a255.5 255.5 0 0 0-3.1-14.8l-.9-3.4zM425.9 136l-3.2 1.4-7 3.2c-5 2.4-9.7 5-9.7 5s1.4 4.3 2.5 8.4l1.5 5.9.6 2.6 2.5-.8 2.7-.8 3-.8 8.7-2.1-.5-11-.4-4c0-1.3-.2-2.5-.3-3.5l-.4-3.5zM449.7 152.1l-3.3 1c-2 .5-4.7 1.3-7.3 2.2-5.3 1.7-10.3 3.6-10.3 3.6a280.3 280.3 0 0 0 2 14.7l.2 2.7s4.2-.8 8.6-1.4c4.3-.5 8.7-.8 8.7-.8s.7-5.4 1-11c.4-5.4.4-11 .4-11z"/>
    <path d="M394.8 136l-3.6 1.7 1.5 3.6 1.8-.8 1.2-.6.6-.2-.2-.6-.6-1.2-.7-1.8zM418.9 148l-3.7 1 .9 3.8 3.8-1zM441.3 163l-3.9.5.4 3.9 3.9-.5zM463.8 159.8s-1-1-2.9-2.5l-3.4-3-4.5-3.5a207.2 207.2 0 0 0-25.6-17.4c-4.8-3-9.9-5.4-14.6-7.8-4.8-2.2-9.3-4.3-13.2-5.8l-5.4-2c-1.6-.7-3-1.1-4.2-1.5l4.2 1.4 5.4 2.1c4 1.5 8.4 3.6 13.2 5.8 4.7 2.4 9.8 4.9 14.6 7.8 9.8 5.6 19 12 25.6 17.4 1.7 1.3 3.3 2.4 4.5 3.6 1.3 1 2.5 2 3.4 2.9l3 2.5zM438.8 187.6l-2.4-2-2.8-2.5c-1-1-2.4-1.9-3.7-3-5.5-4.4-13.2-9.7-21.2-14.3-4-2.5-8.2-4.5-12-6.5-4-1.7-7.7-3.5-11-4.7l-4.4-1.8-3.5-1.2-3-1 3 1 3.5 1.2 4.4 1.8c3.3 1.2 7 3 11 4.7 3.8 2 8 4 12 6.5 8 4.6 15.7 10 21.2 14.3l3.7 3c1 1 2 1.7 2.8 2.4l2.4 2.1zM473 173l-3.5.4-3.5.5-4 .7c-5.5.9-10.8 2-10.8 2V188.8l-.2 2.8-.1 2.7 2.7-.1h6l8.7.4s1.4-5.2 2.6-10.6l1.5-7.5.5-3.4zM491.4 195h-3.5a194.7 194.7 0 0 0-15.1.5l-2.4.2h-1v.8l-.3 2-.9 6c-.3 2.2-.6 4.3-1 5.9l-.5 2.7 8.6 1 6 1.1 2.6.6 1.3-3.2 2.7-7c1.9-5.2 3.5-10.5 3.5-10.5zM506.8 219.4l-3.5-.5a267.3 267.3 0 0 0-15-1.5l-3.5-.2-.6 2.6a212.2 212.2 0 0 1-4.4 14.1 263.5 263.5 0 0 0 11.5 3.3l2.6.8 2.6 1 1.8-3a6431 6431 0 0 0 3.6-6.6 276 276 0 0 0 4.9-10z"/>
    <path d="M463 182.5h-4l-.1 3.9 3.9.1zM480.3 203.2l-2-.3-2-.3-.2 2-.4 1.9 3.9.6.7-4zM494.6 226s-.9-.4-1.9-.6l-1.9-.5-.5 1.8-.6 1.9 3.7 1.1 1.2-3.8zM516.4 232.2l-1.5-3.5c-1-2.3-2.7-5.4-4.6-9.2l-1.5-2.9-1.8-3c-1.2-2.1-2.4-4.4-3.8-6.6-1.5-2.2-3-4.5-4.4-6.9l-4.9-6.9c-1.6-2.3-3.4-4.5-5-6.6-1-1.1-1.8-2.2-2.6-3.3l-2.6-3-5-5.8-4.7-5-2.1-2.1-2-1.9-3.2-3-2.1-2-.8-.7a378.1 378.1 0 0 0 2.9 2.6l3.2 3.1 2 1.9 2 2.2 4.8 5 5 5.7 2.6 3 2.5 3.3c1.7 2.1 3.5 4.3 5.1 6.6l4.9 7 4.4 6.8 3.8 6.5 1.8 3.1 1.5 3c2 3.7 3.6 6.8 4.6 9l1.5 3.6zM482.3 247.4l-1.3-2.9c-.8-1.9-2.2-4.4-3.8-7.5l-1.3-2.4-1.4-2.6c-1-1.7-2-3.6-3.2-5.4l-3.6-5.7-4-5.6c-1.3-2-2.8-3.8-4.2-5.6l-2.1-2.7-2.2-2.5-4.1-4.7-4-4.1-1.7-1.8-1.6-1.6-2.7-2.5 2.7 2.5 1.6 1.6 1.8 1.8 3.9 4 4.1 4.8 2.2 2.5 2 2.7c1.5 1.8 3 3.6 4.3 5.6l4 5.6 3.6 5.7c1.2 1.8 2.2 3.7 3.2 5.4l1.4 2.6 1.3 2.4c1.6 3.1 3 5.6 3.8 7.5l1.3 3zM519.5 248l-1-.3-2.4-.8a266.2 266.2 0 0 0-14.6-3.7l-3.4-.7-1 2.5a256.4 256.4 0 0 1-6 12.6l-.4.7a260.8 260.8 0 0 0 10.9 4.9l2.4 1.3 2.5 1.3 2.1-2.7 2.2-2.8 2.4-3.2c3.2-4.4 6.3-9.2 6.3-9.2zM527.3 275.7s-5-2.4-10.1-4.5l-3.7-1.5-3.4-1.2-3.2-1.2-1.4 2.4-1.4 2.4-1.8 2.7-4.9 7.2.7.4 1.7 1a260.3 260.3 0 0 1 10 6.5l1.7 1.2.6.4.7-.6 1.7-1.7a255.1 255.1 0 0 0 10.5-11c.8-.7 1.3-1.4 1.7-1.8l.6-.7zM531.3 304.2l-2.9-1.9c-1.8-1.1-4-2.6-6.5-4-4.8-2.7-9.6-5.1-9.6-5.1l-5.6 6.8-4 4.4-1.9 2a1785.5 1785.5 0 0 0 6.8 5.5l6.5 6s4.4-3.2 8.7-6.6c2.3-1.7 4.3-3.5 6-4.8l2.5-2.3z"/>
    <path d="M506.5 252.6l-1.8-.8-1.8-.8-.8 1.7-.9 1.8 3.5 1.7 1.8-3.6zM513.9 278.5l-3.4-2.1-2.1 3.3 1.6 1 1.7 1 1-1.6 1.2-1.6zM517.6 305.2l-3-2.6-2.6 3 3 2.5zM535 319.8v-3.9l-.1-4.4-.1-2.8-.2-3-.6-6.8c-.1-2.4-.5-5-.9-7.5l-.5-4-.7-4.1-.7-4.1-.8-4.2a226.4 226.4 0 0 0-12.4-39.3l-1.6-3.5 1.6 3.5 3.8 9.5c2.8 8 6.3 18.8 8.6 29.8l.8 4.2.7 4.1.7 4 .5 4c.4 2.7.8 5.2 1 7.6l.5 6.8.2 3v2.8a9236 9236 0 0 1 .3 8.3zM497.7 319.8l-.1-3.2-.1-3.7v-2.3l-.3-2.5-.4-5.6-.7-6.2-.5-3.3c-.1-1.2-.4-2.3-.6-3.4l-.6-3.4c-.2-1.1-.3-2.3-.6-3.4-1.9-9.2-4.8-18-7.1-24.6l-3.1-7.8-1.3-3 1.3 3 3.1 7.8c2.3 6.6 5.2 15.4 7 24.6.4 1.1.5 2.3.7 3.4l.6 3.4c.2 1.1.5 2.2.6 3.4l.5 3.3.7 6.2.4 5.6.2 2.5v2.3l.2 3.7v3.2z"/>
    <path d="M439.8 321.3v1.8c-.1 1.1 0 2.7-.3 4.6-.2 2-.2 4.2-.6 6.5a3058.8 3058.8 0 0 0-1.1 7.5c-.4 2.5-1 5-1.6 7.3-.5 2.3-1.2 4.4-1.7 6.3a9607.4 9607.4 0 0 1-1.9 5.6c0 .3-.2.4-.2.4s.7 0 1.8-.3a173.3 173.3 0 0 0 23-5.8 186 186 0 0 0 10.4-4l4.6-2 1.8-.9-5-5a150.3 150.3 0 0 0-17.9-14.7c-1-.8-2-1.4-3-2l-2.7-1.9-5.6-3.4z"/>
    <path d="M432.4 361.3l-.6 1.6-1.7 4.3c-1.6 3.5-3.7 8.2-6.4 12.6-1.2 2.2-2.6 4.3-3.9 6.3l-3.8 5.4-2.8 3.7-.8 1-.3.3.4.1 1.4.3a173.4 173.4 0 0 0 23.6 2.1 178.6 178.6 0 0 0 11-.2l5.1-.4 2-.2-3-6.4a192 192 0 0 0-7.5-13.3c-3-4.6-6-9-8.5-12l-4.2-5.2z"/>
    <path d="M412 396.5l-1 1.4-1.4 1.5-1.8 2-2.1 2.2-1.2 1.2-1.3 1.2-2.6 2.6-3 2.5-1.4 1.2-1.4 1.2-3 2.3-5.3 3.8-3.9 2.5-1.1.6-.4.3a1496.7 1496.7 0 0 0 5.8 3.1 175.2 175.2 0 0 0 13.5 6.2 152.3 152.3 0 0 0 21.2 6.7l-.7-7a150.3 150.3 0 0 0-6.6-29.3l-2.2-6.2zM440 329v1.2l-.3 2.9-.5 4c0 .8-.2 1.5-.4 2.3l-.4 2.4-.4 2.3-.5 2.3-1 4-1 3.8 3.7-1 4-1.2 4.4-1.5c3-1 6-2.2 8.3-3.2l3.7-1.6-2.9-3-3-2.7a177.7 177.7 0 0 0-10.5-8.6L440 329z"/>
    <path d="M439.4 336.5l-.2 1.7-.6 3.6-.7 3.6-.4 1.6 5-1.7 4.8-1.9-3.9-3.5-2.7-2.4-1.3-1zM430 368.7l-1.6 3.6c-1 2.1-2.5 5-4.1 7.8l-1.2 2-1.3 2-2.2 3.5-2.3 3.2a155.3 155.3 0 0 0 22.4.9l4.2-.3-1.9-3.8a133.2 133.2 0 0 0-7.1-12.1l-2.4-3.5-2.4-3.3z"/>
    <path d="M427 375.5l-.7 1.5-1.9 3.2-1.8 3.1-1 1.4 5.8.4h5.7l-3-4.8-2-3.3-1-1.5zM407.4 402.7l-.8.8-2 2-3 2.9-3.5 3.1-1.8 1.6-1.8 1.4c-1.2 1-2.3 1.9-3.3 2.5l-3.3 2.3a152.5 152.5 0 0 0 20.9 8.3l4 1.2-.5-4.2-.7-4.3a184.1 184.1 0 0 0-3-13.7l-1.2-4z"/>
    <path d="M402.2 408l-1.2 1.2-2.8 2.5-1.5 1.3-1.3 1-1.3 1 5.2 2.3 3.7 1.4 1.7.6-1.1-5.7c-.3-1.3-.6-2.7-1-3.8l-.4-1.7zM473.6 348.2l6.6-3.4c3.3-1.8 6.5-3.8 6.5-3.8a187.1 187.1 0 0 0 7 11l-1.7 1.2-3.5 2.8c-2.6 2-5.2 3.7-5.2 3.7l-4.7-5.9a103 103 0 0 0-5-5.6zM455.2 398l7.5-1 7.4-1.5a249.7 249.7 0 0 0 2.8 12.7l-2 .7c-1.1.4-2.6 1-4.2 1.4l-6.2 1.8-2.5-7.2-1.9-4.8-.9-2.1zM421.3 438.7a212.4 212.4 0 0 0 14.8 2.7l-.6 6.4-1 6.4h-2a79.9 79.9 0 0 1-10.9-.4v-7.6l-.1-5.1-.2-2.4z"/>
    <path d="M482.5 349.9l2.2-1.8 1.5 2.5-2.2 1.7zM463.1 402.5l2.7-.9.5 2.8-2.6.9zM427.2 445.6l2.8.1-.3 2.8-2.8-.1zM378.4 424.5l-1.5.9-4.1 2-2.8 1.4-3.1 1.4-3.5 1.4c-1.1.4-2.3 1-3.5 1.3l-3.6 1.3-3.6 1-3.3 1-3 .6-2.5.6-2 .3-1.7.4a154.3 154.3 0 0 0 20.6 21l3 2.3 2.6 2c3.4 2.6 5.8 4.2 5.8 4.2l1.8-6.8a193.1 193.1 0 0 0 3-15 142.9 142.9 0 0 0 1.4-19.5v-1.8z"/>
    <path d="M340.2 438l-1.8.4-4.6.6c-1.9.3-4.1.3-6.5.5-1.2.2-2.4.2-3.7.2l-3.8.1H316c-1.3-.1-2.5-.1-3.7-.3-2.4-.2-4.7-.2-6.6-.5l-4.6-.6-1.7-.3a2836 2836 0 0 0 2.3 6.2 174 174 0 0 0 10.3 20.4 163.2 163.2 0 0 0 7.8 11.9s1.7-2.3 4-5.9a161.8 161.8 0 0 0 14-26.4 95 95 0 0 0 1.7-4.5l.7-1.7zM299.4 438s-.6 0-1.7-.3l-2-.3-2.5-.6-3-.7c-1.1-.2-2.2-.6-3.4-1-1.1-.3-2.3-.5-3.5-1l-3.6-1.2c-1.2-.3-2.4-.9-3.6-1.3l-3.4-1.4-3.1-1.4-2.8-1.3-4.2-2.1-1.5-1v2a142.6 142.6 0 0 0 6.3 41.3l5.7-4.2 2.7-2 3-2.5a182.7 182.7 0 0 0 11.7-10.9l4.7-5 4.2-5zM372 428.6l-3.7 1.7-1.8.8-2 .7-2.2.9-1 .4-1.2.4-4.5 1.5-4 1.1-2.7.8-1 .2a151.7 151.7 0 0 0 16 14.3l3.4 2.4.3-1 .7-3a178.5 178.5 0 0 0 3.2-17.3l.4-3.9z"/>
    <path stroke-widt="2" d="M365.1 431.8l-1.5.6-3.4 1.3a4720.4 4720.4 0 0 1-5.1 1.7 1292.7 1292.7 0 0 0 4 3.4l4 3.3s.7-2.6 1.1-5.2l1-5.1zM332.6 439.7l-1 .2c-.8 0-1.8 0-3 .2-2.4.2-5.6.2-8.8.3-3.2 0-6.5 0-8.8-.3l-3-.2c-.7 0-1-.2-1-.2a889.6 889.6 0 0 0 1.6 3.8 176.6 176.6 0 0 0 11.2 19.6s3.8-5.7 7-11.5l4.1-8.1 1.3-2.7.4-1z"/>
    <path d="M325.2 440.5l-5.4.1-5.4-.1a179 179 0 0 0 5.4 10.1l2.8-5 2.6-5.1zM291.8 437.1l-1.1-.2-2.8-.8-4-1-4.4-1.6-1.2-.4-1-.4-2.2-.9-2-.7-1.8-.8-3.6-1.7a150.5 150.5 0 0 0 4.2 26.3l3.4-2.6a126.3 126.3 0 0 0 13.6-12.2l2.9-3z"/>
    <path d="M284.5 435.4l-1.6-.5-3.5-1.2-3.4-1.3-1.6-.6a176.1 176.1 0 0 0 1.7 11.3l4.3-3.8 2.8-2.7 1.3-1.2zM372 467.2a4384.3 4384.3 0 0 0 6.3 4l6.6 3.8-2.9 5.7a161 161 0 0 1-2.1 4l-1 1.7s-3.1-1.1-6.1-2.4l-2.2-.9-1.9-.9-1.8-.8 1-2.2.8-2.3 1-2.6 2.3-7zM319.8 476.2a209.5 209.5 0 0 0 9 11.1l.5.5-.4.4-1 1-3.2 3-5 4.4-4.8-4.4-3.2-3-1-1-.4-.4.4-.5 1.1-1.3c1-1 2.2-2.5 3.4-4l4.6-5.8zM267.5 467.2l2.4 7.1 1 2.6a2985 2985 0 0 1 1.8 4.5l-1.9.8-1.8.9-2.2 1-6 2.3-1.1-1.7a168 168 0 0 1-5-9.7s3.3-1.8 6.5-3.8l4.4-2.7 2-1.3z"/>
    <path d="M375 475.8l1.4.5 1.3.5-.7 1.3-.7 1.2-2.6-1 1.4-2.5zM319.8 485.3l2.1 1.8-2.1 1.9-2.1-1.9zM264.5 475.8l1.4 2.4-2.6 1.1-.7-1.2-.7-1.2 1.3-.6 1.3-.5zM258.5 423l-.4-.3-1.1-.6-4-2.5-5.3-3.8-2.9-2.3-1.5-1.2-1.4-1.2-2.9-2.5-2.7-2.6-1.3-1.2-1.1-1.2-2.2-2.3-1.7-2c-.5-.5-1-1-1.3-1.5l-1.2-1.3s-1 2.4-2.2 6.2a147 147 0 0 0-6.6 29.3l-.7 7 1.9-.4 4.9-1.4a152.7 152.7 0 0 0 33.7-14.2z"/>
    <path d="M227.5 396.5l-.3-.3-.8-1-2.9-3.7-3.7-5.4c-1.3-2-2.8-4-4-6.3-2.6-4.4-4.7-9-6.3-12.6-.8-1.7-1.3-3.2-1.7-4.3l-.7-1.6-4.1 5.1a142.3 142.3 0 0 0-16 25.4c-1.9 3.8-3 6.4-3 6.4l2 .2 5 .4 7.2.2h4a177.5 177.5 0 0 0 23.5-2.2l1.3-.2h.5z"/>
    <path d="M207.1 361.3l-.1-.4-.4-1.2c-.4-1.1-1-2.6-1.5-4.4l-1.8-6.3c-.5-2.4-1.1-4.8-1.5-7.3l-.7-3.8-.4-3.7c-.4-2.3-.5-4.6-.7-6.5-.2-1.9-.1-3.5-.2-4.6v-1.8l-5.7 3.4-2.7 1.8-3 2a182.3 182.3 0 0 0-17.9 14.8l-4.9 5 1.8.8a189.3 189.3 0 0 0 26.6 9.5 151.7 151.7 0 0 0 11.4 2.4l1.7.3zM251.6 419.3l-3.2-2.3c-1-.6-2-1.6-3.3-2.5l-1.8-1.4-1.8-1.6-3.6-3-3-3-2-2-.7-.8-1 3.8a124.6 124.6 0 0 0-2.7 13.2l-.6 4.1-.4 4.1 3.9-1a177 177 0 0 0 16.7-6l3.5-1.6z"/>
    <path d="M245.5 415l-1.3-1-1.4-1-1.4-1.3c-1-1-2-1.8-2.8-2.4l-1.2-1.2-.4 1.6-.6 3.5-.8 5.2 1.6-.4 3.4-1.2 5-1.7zM222.3 390.8l-2.3-3.3-2.3-3.4-1.2-2-1.2-2c-1.7-2.8-3-5.7-4.2-7.8l-1.6-3.6-2.4 3.3-2.4 3.5a172.9 172.9 0 0 0-7.1 12.1l-2 3.8a172 172 0 0 0 18.4.1 169.4 169.4 0 0 0 8.3-.7z"/>
    <path d="M218 384.7l-1-1.4-1.9-3.1-1.8-3.2-.7-1.5-1 1.4-2.2 3.4-3 4.9 5.8-.1c2.9-.1 5.7-.4 5.7-.4zM204.1 354.2l-1-3.8-1-4-.5-2.3-.4-2.3-.5-2.4a24 24 0 0 1-.3-2.3l-.5-4-.3-3v-1l-3.5 2.3a130.5 130.5 0 0 0-11 8.7L182 343l-3 2.9a171.3 171.3 0 0 0 12.6 4.8l4.6 1.4a176.6 176.6 0 0 0 8 2.1z"/>
    <path d="M202 347s0-.6-.3-1.6-.5-2.3-.7-3.6l-.7-3.6c0-1-.2-1.7-.2-1.7l-1.4 1-3.1 2.5c-2.3 1.7-4.5 3.6-4.5 3.6a142.3 142.3 0 0 0 11 3.4zM218.2 438.7l-.1 2.4-.2 5v7.7l-6.4.3-4.5.1h-2l-1-6.4-.6-6.4s3.8-.5 7.5-1.2l7.3-1.5zM184.3 398l-.9 2.1-1.9 4.8-2.5 7.2-6.1-1.8-4.3-1.4-2-.7 1.3-6.4 1.6-6.3a215.8 215.8 0 0 0 14.8 2.5zM166 348.2l-1.6 1.8-3.4 3.8c-2.4 2.9-4.7 6-4.7 6L151 356l-3.6-2.8-1.6-1.3 3.4-5.6 3.5-5.4 6.5 3.9 6.7 3.4z"/>
    <path d="M212.4 445.6l.3 2.8-2.8.1-.4-2.8zM176.5 402.5l-.6 2.8-2.7-.9.6-2.8zM157.1 349.9l-1.5 2.4-2.2-1.7 1.5-2.4zM199.8 318.2v-1.7c0-1.1 0-2.8.2-4.7.2-1.9.3-4.1.7-6.5l.4-3.7.7-3.7c.4-2.5 1-5 1.5-7.3l1.8-6.3 1.5-4.4.4-1.2.1-.5-1.7.3a169.4 169.4 0 0 0-23 5.8 185.8 185.8 0 0 0-10.4 4c-2 .8-3.5 1.6-4.6 2.1l-1.8.8a179.4 179.4 0 0 0 16.4 15l6.4 4.8 3 2 2.7 1.8c3.4 2.2 5.7 3.4 5.7 3.4zM207.1 278.2l.7-1.6 1.7-4.3c1.6-3.5 3.7-8.1 6.3-12.5 1.2-2.3 2.7-4.4 4-6.4l3.7-5.4 2.9-3.6.8-1 .3-.4h-.5l-1.3-.3a173.3 173.3 0 0 0-23.6-2.2 172.6 172.6 0 0 0-11.1.3c-2.1 0-3.8.3-5 .4l-2 .2a181.8 181.8 0 0 0 10.4 19.6c3 4.7 6 9 8.6 12.1 2.4 3.2 4.1 5.1 4.1 5.1z"/>
    <path d="M227.5 243l1.2-1.3 1.3-1.5 1.7-2 2.2-2.2 1.1-1.2 1.3-1.2 2.7-2.6 2.9-2.5 1.4-1.3 1.5-1.1 3-2.3 5.3-3.8 3.9-2.5 1-.7.5-.2-1.6-1a138.6 138.6 0 0 0-17.7-8.3A152 152 0 0 0 220 201l-2-.5a183.4 183.4 0 0 0 3.4 22 147 147 0 0 0 6.2 20.5zM199.5 310.5l.1-1.1c0-.7 0-1.7.3-2.9l.5-4 .3-2.4a1609.7 1609.7 0 0 1 .9-4.7l.5-2.2c.4-1.5.6-2.9 1-4l1-3.9-3.7 1-4 1.2-4.4 1.5c-3 1-6 2.3-8.3 3.2L180 294l2.9 2.9 3 2.8a177.6 177.6 0 0 0 10.4 8.6l3.2 2.3z"/>
    <path d="M200.1 303l.2-1.6.7-3.6c.2-1.4.4-2.7.7-3.7l.4-1.6-5 1.7-4.9 2a176.2 176.2 0 0 0 8 6.8zM209.5 270.9l1.6-3.7c1.2-2 2.5-5 4.2-7.7l1.2-2.1 1.2-2 2.3-3.4 2.3-3.3-4-.4a179.1 179.1 0 0 0-18.4-.4c-2.5 0-4.2.2-4.2.2a173.4 173.4 0 0 0 9 16l2.4 3.5 2.4 3.3z"/>
    <path d="M212.6 264l.7-1.4 1.8-3.2c.7-1.2 1.3-2.4 2-3.2l.8-1.4-5.7-.3-5.7-.1 2.9 4.9 2.2 3.3 1 1.5zM232.2 236.9l.7-.8 2-2.1 3-2.8 3.6-3.2 1.8-1.5 1.8-1.5 3.3-2.5 3.2-2.3-3.6-1.7a128.8 128.8 0 0 0-17.2-6.5l-4-1.2s.1 1.7.5 4.2l.6 4.3a183.3 183.3 0 0 0 3.1 13.6l1.2 4z"/>
    <path d="M237.4 231.5l1.2-1.2 2.8-2.4 1.4-1.3 1.4-1 1.3-1.1-5.3-2.2c-1.3-.6-2.6-1-3.7-1.4l-1.7-.6a184.4 184.4 0 0 0 2.1 9.4l.5 1.8zM166 291.3s-3.3 1.6-6.7 3.5l-6.5 3.8-3.5-5.4-3.4-5.6 1.6-1.3a81.7 81.7 0 0 1 8.8-6.5 216.7 216.7 0 0 0 8.1 9.8l1.6 1.7zM184.3 241.6l-7.4 1-7.4 1.4-1.6-6.3-1.2-6.3 2-.7c1-.4 2.6-1 4.2-1.4 3-1 6.1-1.8 6.1-1.8l2.5 7.1 2 4.8.8 2.2zM218.2 200.8l-7.3-1.5-7.5-1.1.7-6.4.9-6.5h2a81.9 81.9 0 0 1 11 .5v7.6a101.6 101.6 0 0 0 .2 7.4z"/>
    <path d="M157.1 289.7l-2.2 1.7-1.5-2.4 2.2-1.7zM176.5 237l-2.7.9-.6-2.7 2.7-.9zM212.3 194l-2.8-.1.4-2.8h2.8zM261.1 215l1.5-.8 4.2-2.1c.8-.5 1.8-.9 2.8-1.3l3.1-1.5 3.4-1.3 3.6-1.4 3.6-1.2 3.5-1 3.3-1 3-.7 2.6-.5 2-.4 1.7-.3-4.2-5a121.9 121.9 0 0 0-10.4-10.7 186.2 186.2 0 0 0-17.4-13.8s-.8 2.6-1.8 6.8a191.6 191.6 0 0 0-3 15 142.8 142.8 0 0 0-1.5 21.3z"/>
    <path d="M299.4 201.5l1.7-.3 4.6-.6c2-.3 4.2-.4 6.6-.6l3.7-.2h7.6c1.3 0 2.5 0 3.7.2 2.4.2 4.6.3 6.5.6l4.6.6 1.8.3-.7-1.7a95 95 0 0 0-4.4-10.8 143.2 143.2 0 0 0-11.3-20.2l-4-5.8-4 5.8a163.2 163.2 0 0 0-14 26.5 94 94 0 0 0-1.8 4.5l-.6 1.7z"/>
    <path d="M340.2 201.5l1.7.3 2 .4a4215.1 4215.1 0 0 1 5.5 1.2l3.3 1 3.6 1 3.6 1.2 3.5 1.4 3.5 1.3 3.1 1.5c1 .4 2 .8 2.8 1.3l4.1 2 1.5 1v-1.9-4.8a143 143 0 0 0-4.4-29.6c-1-4.2-1.8-6.8-1.8-6.8l-5.8 4-2.6 2.1-3 2.4a186.2 186.2 0 0 0-11.7 11c-1.8 1.7-3.4 3.4-4.7 5l-4.2 5zM267.7 211l3.6-1.7 1.8-.8 2-.8 2.1-.8 1.1-.5 1.2-.4a6396.7 6396.7 0 0 0 8.4-2.6l2.8-.7 1-.3-2.7-2.8a159.8 159.8 0 0 0-13.4-11.4l-3.3-2.5-.3 1.1-.8 2.9a179.6 179.6 0 0 0-3.1 17.4l-.4 3.8z"/>
    <path d="M274.4 207.8l1.6-.6c1-.4 2.1-1 3.4-1.3l3.5-1.2 1.6-.5-1.2-1.1-2.7-2.3c-2-1.7-4.2-3.3-4.2-3.3s-.6 2.5-1 5.1l-1 5.2zM307 199.8l1-.1 3-.2c2.3-.3 5.6-.3 8.8-.4 3.2.1 6.4.1 8.8.4l3 .2 1 .1-.4-1-1.3-2.7-4-8.1c-3.3-5.8-7.1-11.6-7.1-11.6s-3.9 5.8-7 11.6a176.6 176.6 0 0 0-5.8 11.8z"/>
    <path d="M314.4 199h10.8l-2.6-5-2.8-5-2.8 5-2.6 5zM347.8 202.4a1379.6 1379.6 0 0 0 3.9 1l4 1.1 4.4 1.5 1.1.4 1.1.5 2.2.8 2 .8 1.8.8 3.6 1.6-.3-4a144.2 144.2 0 0 0-3.7-21.1l-.2-1.1-3.4 2.6a125.5 125.5 0 0 0-16.5 15.1z"/>
    <path d="M355 204.2s.7.1 1.7.5l3.4 1.2 3.5 1.3 1.5.6-.7-5.7c-.4-2.9-1-5.7-1-5.7l-4.2 3.8-2.9 2.7-1.2 1.3zM267.5 172.3l-2-1.3-4.3-2.7-6.6-3.8 3-5.7a159 159 0 0 1 2.1-4l1-1.7 6 2.4 2.3 1a1801.4 1801.4 0 0 1 3.7 1.7l-1 2.2-.8 2.2-1 2.6-2.4 7.1zM319.8 163.3l-4.6-5.8a218.7 218.7 0 0 0-4.5-5.3l-.4-.5.3-.4 1-1 3.3-3 4.9-4.3a264.8 264.8 0 0 0 9.5 8.7l-.4.5-1.2 1.3-3.3 4-4.6 5.8zM372 172.3s-1-3.5-2.3-7l-1-2.7-.9-2.2-.9-2.2 1.8-.9 2-.8 2-1 6.1-2.4a4017.3 4017.3 0 0 0 3.2 5.7l3 5.7-6.7 3.8-4.3 2.7-2 1.3z"/>
    <path d="M264.5 163.8l-1.3-.6-1.3-.5.7-1.2.7-1.3 2.6 1.1-1.4 2.5zM319.8 154.3l-2.1-1.8 2.1-2 2.1 2zM375 163.8l-1.3-2.5 2.6-1 .7 1.2.7 1.2-1.3.5-1.3.6zM381.1 216.6a144 144 0 0 0 1.5.9l3.9 2.5c1.6 1 3.4 2.4 5.3 3.8l3 2.3 1.4 1.1 1.5 1.3 2.9 2.5 2.6 2.6 1.3 1.2 1.2 1.2 2.1 2.2 1.8 2c.5.6 1 1 1.3 1.5l1.2 1.3s1-2.4 2.2-6.2a146.9 146.9 0 0 0 6.6-29.3l.7-7-1.9.5-5 1.3a152.7 152.7 0 0 0-33.6 14.3z"/>
    <path d="M412 243l.4.4.8 1 2.8 3.6 3.8 5.4c1.3 2 2.7 4.1 4 6.4 2.6 4.4 4.7 9 6.3 12.5l1.7 4.3.6 1.6 4.2-5a142.2 142.2 0 0 0 16-25.5l3-6.3-2-.2-5-.4a193.5 193.5 0 0 0-23.2.4 163.9 163.9 0 0 0-11.5 1.5l-1.4.2-.4.1z"/>
    <path d="M432.4 278.2l.2.5a297.6 297.6 0 0 1 1.9 5.6c.5 1.8 1.2 4 1.7 6.3s1.2 4.8 1.6 7.3l.7 3.7.4 3.7c.4 2.4.4 4.6.6 6.5.2 2 .2 3.6.2 4.7v1.7s2.3-1.2 5.7-3.4l2.8-1.8 3-2a181.4 181.4 0 0 0 17.8-14.8l5-5-1.8-.8c-1.1-.5-2.7-1.3-4.6-2a190 190 0 0 0-22-7.5 151.4 151.4 0 0 0-13.2-2.7zM388 220.2l3.2 2.3 3.2 2.5 1.9 1.5 1.8 1.5c1.2 1.1 2.5 2 3.5 3.1l3 2.9 2 2 .8.9 1-3.8a124 124 0 0 0 2.7-13.3l.6-4 .4-4.2-4 1a179.6 179.6 0 0 0-16.6 6l-3.6 1.6z"/>
    <path d="M394 224.5l1.4 1 1.3 1.1a1809.7 1809.7 0 0 1 5.5 4.9l.3-1.6a79.4 79.4 0 0 0 1.5-8.8l-1.6.5-3.4 1.1-5 1.8zM417.3 248.7l2.3 3.3 2.2 3.5c.4.6.9 1.2 1.3 2l1.2 2c1.6 2.7 3 5.6 4.1 7.7l1.7 3.7 2.4-3.3 2.4-3.5a169.6 169.6 0 0 0 7.1-12.2l2-3.8-4.3-.2a151.6 151.6 0 0 0-18.4.4l-4 .4z"/>
    <path d="M421.7 254.8l.9 1.4 1.8 3.2 1.9 3.2.7 1.5 1-1.5 2.2-3.3 3-5s-3 0-5.8.2c-3 0-5.7.3-5.7.3zM435.4 285.3l1.1 3.9 1 4a1403 1403 0 0 0 .9 4.6l.4 2.3.4 2.3.5 4 .3 3v1l3.4-2.2a130.5 130.5 0 0 0 11-8.7c1.3-1 2.3-2 3.2-2.9l3.1-3-3.9-1.6c-2.3-1-5.6-2-8.7-3.1l-4.6-1.5a168.3 168.3 0 0 0-8-2z"/>
    <path d="M437.5 292.5l.4 1.6.7 3.6.6 3.7.2 1.6 1.5-1 3.1-2.4 4.4-3.7-5.4-1.8-5.5-1.6zM421.3 200.8l.2-2.3.2-5.1v-7.6l6.4-.4h6.4l1 6.4.6 6.4-7.4 1.1-7.4 1.5zM455.2 241.6l1-2.2 1.8-4.8 2.5-7.1 6.2 1.8c1.6.4 3.1 1 4.3 1.4l1.9.7-1.3 6.3-1.5 6.3-7.4-1.4-7.5-1zM473.6 291.3l1.6-1.7 3.4-3.9 4.7-5.9a244 244 0 0 0 10.3 7.8l-3.3 5.6a188 188 0 0 1-3.6 5.4s-3.2-2-6.5-3.8l-6.6-3.5z"/>
    <path d="M427.2 193.9l-.4-2.8h2.9l.3 2.8zM463.1 237l.6-2.7 2.6.9-.5 2.7zM482.5 289.7l1.5-2.4 2.2 1.7-1.5 2.4zM432.8 350.5a26.5 26.5 0 0 0-1-16.8 25 25 0 0 0-2.5-4.5 21.8 21.8 0 0 0-7.5-6.2c-3-1.4-6.2-2.2-9.6-2.3v2l-.3 5.4a94.3 94.3 0 0 1-8.5 31.1L401 364l-1 1.7a20.9 20.9 0 0 0 19 1.3 24.9 24.9 0 0 0 13.8-16.5z"/>
    <path d="M411.5 331.2s-.7 6.5-2.5 12.8c-.8 3.2-1.9 6.3-2.7 8.6l-1.1 2.7a9.4 9.4 0 0 1-.5 1c3.3 1.8 7 .8 11-1.2l5.6-3.3c1.9-1.2 3.7-2.3 5.5-3a25.2 25.2 0 0 1-3.7-5 100.5 100.5 0 0 1-3.2-5.6c-2.1-3.6-4.7-6.5-8.4-7zM402.6 402.6a24.8 24.8 0 0 0 7.5-20.2 21.2 21.2 0 0 0-10.5-15.8l-.3.4-.8 1.3a907.3 907.3 0 0 0-3 4.4 91.2 91.2 0 0 1-24 23.8l-1.2.8-2 1.2-1.3.8-.4.2c3.5 5.9 9 9.8 15.8 10.6 6.7.8 14.4-1.7 20.2-7.5z"/>
    <path d="M393.8 375.3l-2.6 3.2-2.7 3.2-3.3 3.5-3.5 3.3-3.2 2.7-3.2 2.5c2 3.1 5.7 4.1 10 4.4l6.7-.1c2.2-.1 4.3-.1 6.2.1-.6-1.9-.7-4-.7-6.2v-6.4c0-2-.2-4.1-.8-5.9a8.7 8.7 0 0 0-3-4.3zM350.5 432.8c8-2.2 14-7.6 16.5-13.8a20.9 20.9 0 0 0-1.3-19l-1.7 1-4.8 2.4a90.7 90.7 0 0 1-31 8.5l-3.1.2h-2.3l-2 .1a22.7 22.7 0 0 0 4.8 13.7 21.8 21.8 0 0 0 13.3 7.4c3.6.7 7.6.6 11.6-.5z"/>
    <path d="M356.4 404.7l-.3.1-.8.4-2.7 1a91.6 91.6 0 0 1-17.3 4.7l-3 .5-1 .1c0 1.8.7 3.4 1.9 4.9l2 2a27 27 0 0 0 5.4 3.6l3 1.5c1.9 1 3.8 2.1 5.3 3.3.5-2 1.4-3.9 2.5-5.7 1-2 2.2-3.8 3.2-5.6 2-3.8 3.2-7.3 1.8-10.8zM289 432.8a26.5 26.5 0 0 0 16.9-1 24.8 24.8 0 0 0 4.4-2.5 21.9 21.9 0 0 0 6.3-7.5c1.4-3 2.1-6.2 2.2-9.6h-2l-5.3-.3a94.4 94.4 0 0 1-31.1-8.5l-4.8-2.4-1.8-1a20.9 20.9 0 0 0-1.3 19 24.9 24.9 0 0 0 16.6 13.8z"/>
    <path d="M308.4 411.5s-6.6-.7-12.9-2.5c-3.1-.8-6.2-1.9-8.5-2.7l-2.7-1.1a9.6 9.6 0 0 1-1-.5c-1.8 3.3-.8 7 1.1 10.9 1 2 2.2 3.8 3.4 5.7 1.1 1.9 2.3 3.7 3 5.5 1.3-1.4 3.1-2.6 5-3.7a99.1 99.1 0 0 1 5.6-3.2c3.6-2.1 6.5-4.7 7-8.4zM237 402.6a24.8 24.8 0 0 0 20.2 7.5c6.7-.8 12.3-4.7 15.8-10.6l-.4-.2-1.3-.8-2-1.3-1.2-.7-1.3-1a91.2 91.2 0 0 1-23.7-24l-.8-1.3-1.2-2c-.4-.4-.6-.9-.8-1.2l-.3-.5a21.2 21.2 0 0 0-10.5 15.9 24.8 24.8 0 0 0 7.5 20.2z"/>
    <path d="M264.3 393.7l-3.2-2.5-3.2-2.7-3.5-3.3-3.3-3.5-2.7-3.2-2.6-3.2c-3 2-4 5.7-4.3 10v6.7c.2 2.1.2 4.3 0 6.2 1.9-.6 4-.7 6.1-.7h6.5c2 0 4.1-.3 5.8-.8a8.7 8.7 0 0 0 4.4-3zM206.8 350.5c2.1 8 7.6 14 13.7 16.5a20.9 20.9 0 0 0 19-1.3l-1-1.7-2.4-4.8a90.7 90.7 0 0 1-8.4-31.1l-.2-3-.1-2.3v-2a22.7 22.7 0 0 0-13.7 4.8 21.9 21.9 0 0 0-7.5 13.3c-.6 3.6-.5 7.6.6 11.6z"/>
    <path d="M234.8 356.4v-.3l-.4-.8-1-2.7a91.9 91.9 0 0 1-4.8-17.3l-.4-3-.2-1c-1.8 0-3.4.7-4.8 1.9-.8.5-1.5 1.2-2.1 2a27.1 27.1 0 0 0-3.5 5.4l-1.6 3c-1 1.9-2 3.8-3.2 5.3 2 .4 3.8 1.4 5.7 2.5l5.6 3.2c3.7 2 7.3 3.2 10.7 1.8zM206.8 289a26.5 26.5 0 0 0 1 16.9 25 25 0 0 0 2.5 4.4 21.8 21.8 0 0 0 7.5 6.3c2.9 1.4 6.1 2.1 9.5 2.2v-2l.4-5.3a94.4 94.4 0 0 1 8.4-31.2l2.4-4.7 1-1.8a20.9 20.9 0 0 0-19-1.3 24.9 24.9 0 0 0-13.7 16.6z"/>
    <path d="M228 308.4s.8-6.6 2.5-12.9c.9-3.1 2-6.2 2.8-8.5.5-1.1.8-2 1-2.8l.4-.7.1-.3c-3.2-1.7-7-.7-10.8 1.2-2 1-3.8 2.2-5.8 3.4a34.6 34.6 0 0 1-5.4 3c1.4 1.3 2.6 3.1 3.7 5a100.5 100.5 0 0 1 3.1 5.6c2.2 3.6 4.8 6.5 8.4 7zM237 237a24.8 24.8 0 0 0-7.5 20.2c.8 6.7 4.7 12.3 10.5 15.8l.3-.5.8-1.2 1.2-2 .8-1.2.9-1.3a91.2 91.2 0 0 1 22.8-22.8l1.3-1a1253.7 1253.7 0 0 1 3.2-2l1.3-.7.4-.3a21.2 21.2 0 0 0-15.8-10.5A24.8 24.8 0 0 0 237 237z"/>
    <path d="M245.8 264.3l2.5-3.2 2.8-3.2 3.3-3.5 3.5-3.3 3.1-2.8 3.3-2.5c-2-3-5.7-4-10-4.3h-6.7c-2.2.2-4.3.2-6.2 0 .5 1.8.7 4 .7 6.1v6.5c0 2 .2 4 .8 5.8a8.7 8.7 0 0 0 3 4.4zM289 206.8c-7.9 2.1-13.9 7.5-16.5 13.7a20.9 20.9 0 0 0 1.3 19l1.8-1 4.8-2.4a90.7 90.7 0 0 1 31-8.4l3-.2 2.4-.1h2a22.7 22.7 0 0 0-4.9-13.7 22 22 0 0 0-13.2-7.5c-3.7-.7-7.7-.5-11.6.6z"/>
    <path d="M283.2 234.8h.3c.1-.2.4-.3.7-.4l2.8-1a91.4 91.4 0 0 1 17.3-4.8l3-.4 1-.2c0-1.8-.7-3.4-2-4.8-.5-.8-1.2-1.5-2-2.1a27 27 0 0 0-5.3-3.5l-3-1.6c-2-1-3.8-2-5.3-3.2-.5 2-1.4 3.8-2.5 5.7L285 224c-2 3.7-3.3 7.3-1.8 10.7zM350.5 206.8a26.5 26.5 0 0 0-16.8 1 25 25 0 0 0-4.5 2.5 21.9 21.9 0 0 0-6.2 7.5c-1.4 2.9-2.2 6.1-2.3 9.5h2c1.4 0 3.2.2 5.4.4a94.4 94.4 0 0 1 31.1 8.4l4.8 2.4 1.7 1a20.9 20.9 0 0 0 1.3-19 24.9 24.9 0 0 0-16.5-13.7z"/>
    <path d="M331.2 228a92.6 92.6 0 0 0 21.4 5.3l2.7 1 .8.4.2.1c1.8-3.2.8-7-1.2-10.8-1-2-2.2-3.9-3.3-5.8a34.6 34.6 0 0 1-3-5.4 25.2 25.2 0 0 1-5 3.6 99.1 99.1 0 0 1-5.6 3.2c-3.6 2.2-6.5 4.8-7 8.4zM402.6 237a24.8 24.8 0 0 0-20.2-7.5c-6.7.7-12.3 4.6-15.8 10.5l.4.3 1.3.7 2 1.3 1.2.8 1.3.9a91.2 91.2 0 0 1 25.7 27.3l.8 1.2.3.5c5.8-3.5 9.7-9.1 10.5-15.8.8-6.7-1.7-14.4-7.5-20.2z"/>
    <path d="M375.3 245.8l3.2 2.5 3.2 2.8 3.5 3.3 3.3 3.5a6116.2 6116.2 0 0 1 5.2 6.3c3.1-1.9 4.2-5.6 4.4-10l-.1-6.6c0-2.2-.1-4.3.2-6.2-2 .5-4.1.7-6.2.6h-6.5c-2 0-4.1.3-5.9.9a8.7 8.7 0 0 0-4.3 2.9zM432.8 289c-2.1-7.9-7.6-13.9-13.8-16.5a20.9 20.9 0 0 0-19 1.3l1 1.8 2.4 4.7a90.8 90.8 0 0 1 8.5 31.2l.2 3v2.3l.1 2A22.7 22.7 0 0 0 426 314a21.9 21.9 0 0 0 7.5-13.2c.6-3.7.5-7.7-.6-11.6z"/>
    <path d="M404.7 283.2a47.6 47.6 0 0 0 .5 1l1 2.8a92.1 92.1 0 0 1 4.7 17.3l.5 3 .1 1c1.9 0 3.5-.8 5-2l2-2a27.1 27.1 0 0 0 3.5-5.4l1.5-2.9c1-2 2.1-3.8 3.3-5.3-2-.5-3.9-1.4-5.7-2.5-2-1-3.8-2.3-5.6-3.3-3.8-2-7.3-3.2-10.8-1.7z"/>
  </g>
</svg>
