<svg xmlns="http://www.w3.org/2000/svg" viewBox="0 0 640 640">
  <g fill="none" fill-rule="evenodd">
    <path d="M461.21 474.29c-59.55-27.97-64.07-15.99-24.67-40.35 39.4-24.37 84.23 68.31 24.67 40.35z" opacity=".01"/>
    <path d="M459.74 471.9c-60.5-25.86-64.6-13.73-26.07-39.46 38.52-25.72 86.56 65.34 26.07 39.47z" opacity=".02"/>
    <path d="M458.24 469.51c-61.36-23.74-65.03-11.47-27.43-38.53 37.6-27.05 88.8 62.27 27.43 38.53z" opacity=".02"/>
    <path d="M456.74 467.1c-62.16-21.59-65.4-9.2-28.76-37.55 36.63-28.35 90.91 59.14 28.76 37.55z" opacity=".03"/>
    <path d="M455.22 464.67c-62.87-19.4-65.68-6.91-30.06-36.52 35.63-29.62 92.93 55.92 30.06 36.52z" opacity=".04"/>
    <path d="M453.68 462.22c-63.5-17.2-65.88-4.61-31.3-35.45 34.56-30.84 94.8 52.65 31.3 35.45z" opacity=".05"/>
    <path d="M452.13 459.76c-64.07-14.97-66-2.31-32.53-34.34 33.47-32.02 96.6 49.31 32.53 34.34z" opacity=".05"/>
    <path d="M450.56 457.28c-64.55-12.72-66.04 0-33.7-33.18 32.33-33.17 98.25 45.9 33.7 33.18z" opacity=".06"/>
    <path d="M448.97 454.79c-64.95-10.47-66 2.3-34.84-31.99 31.16-34.28 99.8 42.45 34.84 31.99z" opacity=".07"/>
    <path d="M447.37 452.28c-65.28-8.2-65.88 4.6-35.94-30.75 29.94-35.35 101.23 38.94 35.94 30.75z" opacity=".08"/>
    <path d="M445.75 449.76c-65.53-5.9-65.68 6.9-36.99-29.48 28.7-36.37 102.52 35.39 37 29.48z" opacity=".09"/>
    <path d="M444.11 447.23c-65.7-3.62-65.4 9.18-38-28.17 27.4-37.35 103.7 31.79 38 28.17z" opacity=".09"/>
    <path d="M442.45 444.68c-65.78-1.32-65.03 11.46-38.95-26.82 26.08-38.29 104.74 28.14 38.95 26.82z" opacity=".1"/>
    <path d="M440.78 442.12c-65.8.98-64.6 13.73-39.87-25.44 24.73-39.18 105.65 24.47 39.87 25.44z" opacity=".11"/>
    <path d="M439.08 439.56c-65.71 3.26-64.08 15.97-40.73-24.05 23.35-40 106.44 20.78 40.73 24.05z" opacity=".12"/>
    <path d="M437.36 436.98c-65.56 5.56-63.48 18.2-41.54-22.6 21.93-40.81 107.1 17.04 41.54 22.6z" opacity=".13"/>
    <path d="M435.63 434.39c-65.33 7.84-62.81 20.4-42.31-21.14s107.63 13.3 42.3 21.14z" opacity=".13"/>
    <path d="M433.87 431.8c-65.01 10.11-62.06 22.57-43.02-19.66 19.03-42.23 108.03 9.53 43.02 19.65z" opacity=".14"/>
    <path d="M432.09 429.19c-64.62 12.38-61.23 24.73-43.68-18.14 17.55-42.87 108.3 5.76 43.68 18.14z" opacity=".15"/>
    <path d="M430.29 426.58c-64.15 14.63-60.33 26.85-44.29-16.6 16.05-43.47 108.44 1.97 44.29 16.6z" opacity=".16"/>
    <path d="M428.47 423.96c-63.6 16.86-59.36 28.94-44.84-15.05 14.52-44 108.44-1.81 44.84 15.05z" opacity=".16"/>
    <path d="M426.62 421.33c-62.97 19.07-58.3 31-45.33-13.47 12.97-44.47 108.3-5.6 45.33 13.47z" opacity=".17"/>
    <path d="M424.76 418.7c-62.27 21.26-57.2 33.02-45.78-11.88 11.41-44.9 108.05-9.37 45.78 11.88z" opacity=".18"/>
    <path d="M422.87 416.07c-61.49 23.41-56 34.99-46.16-10.28 9.83-45.27 107.65-13.14 46.16 10.28z" opacity=".19"/>
    <path d="M420.96 413.43c-60.63 25.55-54.75 36.92-46.5-8.66 8.26-45.58 107.14-16.89 46.5 8.66z" opacity=".2"/>
    <path d="M419.03 410.79c-59.7 27.65-53.43 38.81-46.77-7.03 6.66-45.85 106.47-20.62 46.77 7.03z" opacity=".2"/>
    <path d="M417.08 408.15c-58.7 29.71-52.05 40.65-47-5.4 5.06-46.05 105.7-24.32 47 5.4z" opacity=".21"/>
    <path d="M415.1 405.5c-57.63 31.75-50.6 42.45-47.15-3.75 3.45-46.2 104.78-28 47.15 3.75z" opacity=".22"/>
    <path d="M413.1 402.86c-56.49 33.74-49.08 44.18-47.25-2.1 1.83-46.3 103.74-31.64 47.25 2.1z" opacity=".23"/>
    <path d="M411.08 400.22c-55.28 35.68-47.5 45.87-47.3-.46.22-46.32 102.57-35.23 47.3.46z" opacity=".23"/>
    <path d="M409.03 397.57c-54 37.6-45.87 47.5-47.28 1.2-1.4-46.3 101.28-38.8 47.28-1.2z" opacity=".24"/>
    <path d="M406.97 394.93c-52.65 39.46-44.2 49.07-47.21 2.85-3.02-46.23 99.86-42.3 47.2-2.85z" opacity=".25"/>
    <path d="M404.88 392.3c-51.24 41.27-42.45 50.58-47.08 4.49-4.63-46.1 98.32-45.77 47.08-4.5z" opacity=".26"/>
    <path d="M402.77 389.66c-49.77 43.03-40.66 52.04-46.9 6.13-6.24-45.9 96.67-49.16 46.9-6.13z" opacity=".27"/>
    <path d="M400.64 387.03c-48.24 44.74-38.83 53.42-46.66 7.76-7.83-45.65 94.9-52.5 46.66-7.76z" opacity=".27"/>
    <path d="M398.48 384.4c-46.65 46.4-36.93 54.75-46.36 9.4-9.42-45.36 93-55.8 46.36-9.4z" opacity=".28"/>
    <path d="M396.3 381.79c-45 48-35 56-46 11s91-59 46-11z" opacity=".29"/>
    <path d="M394.1 379.17c-43.3 49.54-33.02 57.19-45.58 12.6-12.57-44.59 88.88-62.14 45.59-12.6z" opacity=".3"/>
    <path d="M391.89 376.57c-41.55 51.02-31.01 58.3-45.12 14.18-14.12-44.12 86.66-65.2 45.12-14.18z" opacity=".3"/>
    <path d="M389.65 373.97c-39.74 52.44-28.96 59.35-44.6 15.75-15.65-43.6 84.33-68.2 44.6-15.75z" opacity=".31"/>
    <path d="M387.38 371.38c-37.88 53.8-26.86 60.33-44.02 17.3-17.15-43.03 81.9-71.1 44.02-17.3z" opacity=".32"/>
    <path d="M385.1 368.8c-35.98 55.09-24.74 61.23-43.39 18.82-18.64-42.4 79.37-73.9 43.4-18.82z" opacity=".33"/>
    <path d="M382.8 366.23c-34.04 56.31-22.6 62.06-42.7 20.33-20.12-41.73 76.74-76.63 42.7-20.33z" opacity=".34"/>
    <path d="M380.48 363.67c-32.05 57.47-20.41 62.8-41.97 21.8s74.02-79.26 41.97-21.8z" opacity=".34"/>
    <path d="M378.14 361.13c-30.03 58.54-18.2 63.48-41.19 23.25-22.97-40.22 71.22-81.8 41.19-23.25z" opacity=".35"/>
    <path d="M375.78 358.6c-27.96 59.55-15.98 64.07-40.35 24.67-24.37-39.4 68.31-84.23 40.35-24.68z" opacity=".36"/>
    <path d="M373.4 356.07c-25.87 60.5-13.73 64.6-39.46 26.07-25.73-38.52 65.33-86.56 39.46-26.07z" opacity=".37"/>
    <path d="M371 353.56c-23.74 61.37-11.47 65.04-38.52 27.43-27.06-37.6 62.27-88.79 38.53-27.43z" opacity=".38"/>
    <path d="M368.6 351.07c-21.6 62.15-9.2 65.4-37.56 28.76-28.35-36.64 59.14-90.91 37.55-28.76z" opacity=".38"/>
    <path d="M366.16 348.6c-19.4 62.86-6.9 65.67-36.52 30.04-29.61-35.62 55.93-92.92 36.52-30.05z" opacity=".39"/>
    <path d="M363.72 346.13c-17.2 63.5-4.62 65.87-35.46 31.3-30.83-34.56 52.65-94.81 35.46-31.3z" opacity=".4"/>
    <path d="M361.25 343.68c-14.97 64.07-2.3 66-34.33 32.53-32.03-33.48 49.3-96.6 34.33-32.53z" opacity=".41"/>
    <path d="M358.78 341.25c-12.73 64.55-.01 66.04-33.19 33.7-33.17-32.33 45.91-98.26 33.19-33.7z" opacity=".41"/>
    <path d="M356.28 338.83c-10.46 64.96 2.3 66-31.98 34.84-34.29-31.15 42.45-99.8 31.98-34.84z" opacity=".42"/>
    <path d="M353.78 336.44c-8.2 65.28 4.6 65.87-30.75 35.93-35.35-29.94 38.94-101.22 30.75-35.93z" opacity=".43"/>
    <path d="M351.26 334.06c-5.91 65.53 6.9 65.67-29.48 36.98-36.37-28.68 35.38-102.51 29.48-36.98z" opacity=".44"/>
    <path d="M348.72 331.7c-3.62 65.7 9.19 65.4-28.17 37.99-37.35-27.4 31.79-103.69 28.17-38z" opacity=".45"/>
    <path d="M346.18 329.35c-1.33 65.78 11.46 65.04-26.83 38.96-38.28-26.08 28.15-104.74 26.83-38.96z" opacity=".45"/>
    <path d="M343.62 327.03c.97 65.79 13.72 64.6-25.45 39.87-39.17-24.73 24.48-105.66 25.45-39.87z" opacity=".46"/>
    <path d="M341.05 324.73c3.27 65.71 15.97 64.07-24.04 40.73C277 342.1 337.78 259 341.05 324.73z" opacity=".47"/>
    <path d="M338.47 322.44c5.56 65.56 18.2 63.49-22.6 41.55-40.8-21.94 17.04-107.1 22.6-41.55z" opacity=".48"/>
    <path d="M335.88 320.18c7.85 65.33 20.4 62.8-21.14 42.31-41.54-20.5 13.3-107.63 21.14-42.3z" opacity=".48"/>
    <path d="M333.29 317.94c10.12 65.01 22.58 62.06-19.66 43.02-42.23-19.04 9.54-108.03 19.66-43.02z" opacity=".49"/>
    <path d="M330.68 315.72c12.38 64.62 24.73 61.23-18.14 43.68-42.87-17.55 5.76-108.3 18.14-43.68z" opacity=".5"/>
    <path d="M328.07 313.52c14.63 64.15 26.85 60.33-16.6 44.29-43.46-16.05 1.97-108.44 16.6-44.3z" opacity=".51"/>
    <path d="M325.45 311.34c16.86 63.6 28.94 59.36-15.05 44.84-43.99-14.52-1.8-108.44 15.05-44.84z" opacity=".52"/>
    <path d="M322.83 309.18c19.07 62.97 31 58.31-13.48 45.34-44.47-12.97-5.6-108.3 13.48-45.34z" opacity=".52"/>
    <path d="M320.2 307.05c21.25 62.27 33.01 57.2-11.89 45.78-44.9-11.42-9.37-108.05 11.89-45.78z" opacity=".53"/>
    <path d="M317.56 304.94c23.42 61.48 35 56-10.28 46.16-45.26-9.84-13.13-107.65 10.28-46.16z" opacity=".54"/>
    <path d="M314.92 302.85c25.55 60.63 36.93 54.75-8.66 46.5-45.58-8.26-16.88-107.14 8.66-46.5z" opacity=".55"/>
    <path d="M312.28 300.78c27.65 59.7 38.82 53.43-7.03 46.77-45.84-6.66-20.61-106.48 7.03-46.77z" opacity=".55"/>
    <path d="M309.64 298.73c29.72 58.7 40.65 52.04-5.4 46.99-46.04-5.06-24.31-105.7 5.4-46.99z" opacity=".56"/>
    <path d="M307 296.7c31.74 57.64 42.44 50.6-3.76 47.16-46.2-3.45-27.99-104.78 3.76-47.15z" opacity=".57"/>
    <path d="M304.35 294.7c33.74 56.5 44.19 49.09-2.1 47.26-46.29-1.83-31.63-103.74 2.1-47.25z" opacity=".58"/>
    <path d="M301.71 292.73c35.69 55.27 45.87 47.5-.45 47.3-46.33-.22-35.24-102.58.45-47.3z" opacity=".59"/>
    <path d="M299.07 290.77c37.6 54 47.5 45.88 1.2 47.28-46.31 1.4-38.8-101.27-1.2-47.28z" opacity=".59"/>
    <path d="M296.43 288.84c39.45 52.65 49.07 44.2 2.84 47.21-46.22 3.02-42.3-99.86-2.84-47.21z" opacity=".6"/>
    <path d="M293.79 286.93c41.27 51.24 50.58 42.45 4.49 47.08-46.1 4.63-45.76-98.32-4.5-47.08z" opacity=".61"/>
    <path d="M291.15 285.04c43.04 49.77 52.04 40.66 6.14 46.9-45.9 6.23-49.17-96.67-6.14-46.9z" opacity=".62"/>
    <path d="M288.52 283.17c44.75 48.24 53.43 38.82 7.77 46.66-45.66 7.83-52.5-94.9-7.77-46.66z" opacity=".63"/>
    <path d="M285.9 281.33c46.4 46.64 54.74 36.93 9.39 46.35-45.36 9.43-55.8-93-9.39-46.35z" opacity=".63"/>
    <path d="M283.28 279.5c48 45 56 35 11 46s-59-91-11-46z" opacity=".64"/>
    <path d="M280.67 277.7c49.54 43.3 57.18 33.03 12.6 45.59-44.6 12.56-62.14-88.89-12.6-45.59z" opacity=".65"/>
    <path d="M278.06 275.92c51.02 41.54 58.3 31 14.18 45.12-44.12 14.11-65.2-86.66-14.18-45.12z" opacity=".66"/>
    <path d="M275.46 274.16c52.45 39.74 59.36 28.96 15.75 44.6-43.6 15.64-68.19-84.33-15.75-44.6z" opacity=".66"/>
    <path d="M272.88 272.42c53.8 37.88 60.32 26.87 17.3 44.02-43.04 17.16-71.1-81.9-17.3-44.02z" opacity=".67"/>
    <path d="M270.3 270.7c55.08 35.99 61.22 24.75 18.82 43.4-42.4 18.64-73.9-79.38-18.82-43.4z" opacity=".68"/>
    <path d="M267.73 269c56.3 34.04 62.05 22.6 20.32 42.71-41.73 20.12-76.63-76.74-20.32-42.7z" opacity=".69"/>
    <path d="M265.17 267.33c57.46 32.05 62.8 20.41 21.8 41.97s-79.26-74.02-21.8-41.97z" opacity=".7"/>
    <path d="M262.62 265.67c58.55 30.02 63.48 18.2 23.26 41.18-40.23 22.98-81.8-71.2-23.26-41.18z" opacity=".7"/>
    <path d="M260.09 264.03c59.55 27.96 64.07 15.98 24.67 40.35-39.4 24.36-84.23-68.32-24.67-40.35z" opacity=".71"/>
    <path d="M257.57 262.4c60.5 25.87 64.59 13.74 26.07 39.47-38.53 25.73-86.57-65.33-26.07-39.47z" opacity=".72"/>
    <path d="M255.06 260.8c61.36 23.74 65.03 11.47 27.43 38.53-37.6 27.06-88.8-62.27-27.43-38.53z" opacity=".73"/>
    <path d="M252.56 259.21c62.16 21.59 65.4 9.2 28.76 37.55-36.63 28.36-90.9-59.13-28.76-37.55z" opacity=".73"/>
    <path d="M250.09 257.64c62.86 19.4 65.67 6.91 30.05 36.53-35.63 29.61-92.92-55.93-30.05-36.53z" opacity=".74"/>
    <path d="M247.62 256.1c63.5 17.19 65.88 4.6 31.3 35.44-34.56 30.84-94.8-52.65-31.3-35.45z" opacity=".75"/>
    <path d="M245.17 254.55c64.07 14.97 66 2.31 32.53 34.34s-96.6-49.3-32.53-34.34z" opacity=".76"/>
    <path d="M242.74 253.03c64.55 12.73 66.04 0 33.7 33.18-32.33 33.18-98.25-45.9-33.7-33.18z" opacity=".77"/>
    <path d="M240.33 251.52c64.95 10.47 66-2.3 34.84 31.99-31.16 34.28-99.8-42.45-34.84-31.99z" opacity=".77"/>
    <path d="M237.93 250.03c65.28 8.2 65.88-4.6 35.94 30.75-29.94 35.35-101.22-38.94-35.94-30.75z" opacity=".78"/>
    <path d="M235.55 248.55c65.53 5.91 65.68-6.9 36.99 29.48-28.69 36.37-102.52-35.39-36.99-29.48z" opacity=".79"/>
    <path d="M233.19 247.09c65.7 3.61 65.4-9.19 38 28.16-27.4 37.35-103.7-31.78-38-28.16z" opacity=".8"/>
    <path d="M230.85 245.63c65.78 1.32 65.03-11.46 38.95 26.83-26.08 38.28-104.73-28.15-38.95-26.83z" opacity=".8"/>
    <path d="M228.52 244.19c65.8-.97 64.6-13.73 39.87 25.45-24.73 39.17-105.65-24.48-39.87-25.45z" opacity=".81"/>
    <path d="M226.22 242.76c65.72-3.27 64.08-15.97 40.73 24.04-23.34 40.01-106.44-20.77-40.73-24.04z" opacity=".82"/>
    <path d="M223.94 241.34c65.56-5.56 63.48-18.2 41.54 22.6-21.93 40.8-107.1-17.04-41.54-22.6z" opacity=".83"/>
    <path d="M221.68 239.92c65.32-7.84 62.8-20.4 42.3 21.15-20.5 41.54-107.63-13.3-42.3-21.15z" opacity=".84"/>
    <path d="M219.43 238.52c65.02-10.12 62.06-22.58 43.02 19.65-19.03 42.24-108.03-9.53-43.02-19.65z" opacity=".84"/>
    <path d="M217.21 237.13c64.62-12.39 61.23-24.74 43.68 18.13-17.55 42.88-108.3-5.75-43.68-18.13z" opacity=".85"/>
    <path d="M215.01 235.74c64.15-14.63 60.33-26.86 44.29 16.6s-108.44-1.97-44.29-16.6z" opacity=".86"/>
    <path d="M212.83 234.36c63.6-16.86 59.36-28.95 44.84 15.04-14.51 44-108.43 1.82-44.84-15.04z" opacity=".87"/>
    <path d="M210.68 232.98c62.97-19.07 58.3-31 45.33 13.47-12.97 44.48-108.3 5.6-45.33-13.47z" opacity=".88"/>
    <path d="M208.54 231.61c62.27-21.25 57.2-33.01 45.78 11.88-11.41 44.9-108.04 9.38-45.78-11.88z" opacity=".88"/>
    <path d="M206.43 230.24c61.49-23.41 56-34.98 46.17 10.28-9.84 45.27-107.66 13.14-46.17-10.28z" opacity=".89"/>
    <path d="M204.34 228.88c60.63-25.54 54.75-36.92 46.5 8.66-8.26 45.59-107.13 16.89-46.5-8.66z" opacity=".9"/>
    <path d="M202.27 227.52c59.7-27.64 53.43-38.8 46.77 7.04-6.66 45.84-106.47 20.61-46.77-7.04z" opacity=".91"/>
    <path d="M200.23 226.17c58.7-29.72 52.04-40.66 46.98 5.4-5.05 46.04-105.69 24.31-46.98-5.4z" opacity=".91"/>
    <path d="M198.2 224.8c57.63-31.74 50.6-42.43 47.15 3.76-3.44 46.2-104.78 28-47.15-3.75z" opacity=".92"/>
    <path d="M196.2 223.45c56.49-33.73 49.08-44.18 47.25 2.1-1.83 46.3-103.74 31.64-47.25-2.1z" opacity=".93"/>
    <path d="M194.22 222.1c55.28-35.7 47.51-45.87 47.3.45-.22 46.33-102.57 35.23-47.3-.45z" opacity=".94"/>
    <path d="M192.27 220.74c54-37.6 45.88-47.5 47.28-1.2 1.4 46.3-101.28 38.8-47.28 1.2z" opacity=".95"/>
    <path d="M190.33 219.38c52.65-39.46 44.2-49.07 47.21-2.84 3.02 46.22-99.86 42.3-47.2 2.84z" opacity=".95"/>
    <path d="M188.42 218.02c51.24-41.27 42.46-50.59 47.09-4.5 4.63 46.1-98.33 45.77-47.09 4.5z" opacity=".96"/>
    <path d="M186.53 216.65c49.77-43.03 40.66-52.03 46.9-6.13 6.24 45.9-96.67 49.17-46.9 6.13z" opacity=".97"/>
    <path d="M184.67 215.28c48.23-44.74 38.82-53.42 46.65-7.76 7.84 45.66-94.9 52.5-46.65 7.76z" opacity=".98"/>
    <path d="M182.82 213.9c46.65-46.4 36.93-54.74 46.36-9.38 9.42 45.36-93 55.79-46.36 9.39z" opacity=".98"/>
    <path d="M181 212.53c45-48 35-56 46-11s-91 59-46 11z" opacity=".99"/>
  </g>
</svg>
