<?xml version="1.0" encoding="UTF-8"?>
<svg width="640px" height="640px" viewBox="0 0 640 640" version="1.1" xmlns="http://www.w3.org/2000/svg" xmlns:xlink="http://www.w3.org/1999/xlink">
    <!-- Generator: Sketch 55.2 (78181) - https://sketchapp.com -->
    <title>Artboard</title>
    <desc>Created with Sketch.</desc>
    <defs>
        <linearGradient x1="50%" y1="0%" x2="50%" y2="98.0759079%" id="linearGradient-1">
            <stop stop-color="#25A4D1" offset="0%"></stop>
            <stop stop-color="#CB21EF" offset="100%"></stop>
        </linearGradient>
        <linearGradient x1="50%" y1="0%" x2="50%" y2="100%" id="linearGradient-2">
            <stop stop-color="#25A4D1" offset="0%"></stop>
            <stop stop-color="#CB21EF" offset="98.0759079%"></stop>
        </linearGradient>
        <linearGradient x1="50%" y1="0%" x2="50%" y2="100%" id="linearGradient-3">
            <stop stop-color="#25A4D1" offset="0%"></stop>
            <stop stop-color="#CB21EF" offset="98.0759079%"></stop>
        </linearGradient>
        <linearGradient x1="50%" y1="0%" x2="50%" y2="100%" id="linearGradient-4">
            <stop stop-color="#25A4D1" offset="0%"></stop>
            <stop stop-color="#CB21EF" offset="98.0759079%"></stop>
        </linearGradient>
        <linearGradient x1="50%" y1="0%" x2="50%" y2="100%" id="linearGradient-5">
            <stop stop-color="#25A4D1" offset="0%"></stop>
            <stop stop-color="#CB21EF" offset="98.0759079%"></stop>
        </linearGradient>
        <linearGradient x1="50%" y1="0%" x2="50%" y2="100%" id="linearGradient-6">
            <stop stop-color="#25A4D1" offset="0%"></stop>
            <stop stop-color="#CB21EF" offset="98.0759079%"></stop>
        </linearGradient>
        <linearGradient x1="50%" y1="0%" x2="50%" y2="100%" id="linearGradient-7">
            <stop stop-color="#25A4D1" offset="0%"></stop>
            <stop stop-color="#CB21EF" offset="98.0759079%"></stop>
        </linearGradient>
        <linearGradient x1="50%" y1="0%" x2="50%" y2="100%" id="linearGradient-8">
            <stop stop-color="#25A4D1" offset="0%"></stop>
            <stop stop-color="#CB21EF" offset="98.0759079%"></stop>
        </linearGradient>
        <linearGradient x1="50%" y1="0%" x2="50%" y2="100%" id="linearGradient-9">
            <stop stop-color="#25A4D1" offset="0%"></stop>
            <stop stop-color="#CB21EF" offset="98.0759079%"></stop>
        </linearGradient>
        <linearGradient x1="50%" y1="0%" x2="50%" y2="100%" id="linearGradient-10">
            <stop stop-color="#25A4D1" offset="0%"></stop>
            <stop stop-color="#CB21EF" offset="98.0759079%"></stop>
        </linearGradient>
        <linearGradient x1="50%" y1="0%" x2="50%" y2="100%" id="linearGradient-11">
            <stop stop-color="#25A4D1" offset="0%"></stop>
            <stop stop-color="#CB21EF" offset="98.0759079%"></stop>
        </linearGradient>
        <linearGradient x1="50%" y1="0%" x2="50%" y2="100%" id="linearGradient-12">
            <stop stop-color="#25A4D1" offset="0%"></stop>
            <stop stop-color="#CB21EF" offset="98.0759079%"></stop>
        </linearGradient>
        <linearGradient x1="50%" y1="0%" x2="50%" y2="100%" id="linearGradient-13">
            <stop stop-color="#25A4D1" offset="0%"></stop>
            <stop stop-color="#CB21EF" offset="98.0759079%"></stop>
        </linearGradient>
        <linearGradient x1="50%" y1="0%" x2="50%" y2="100%" id="linearGradient-14">
            <stop stop-color="#25A4D1" offset="0%"></stop>
            <stop stop-color="#CB21EF" offset="98.0759079%"></stop>
        </linearGradient>
        <linearGradient x1="50%" y1="0%" x2="50%" y2="100%" id="linearGradient-15">
            <stop stop-color="#25A4D1" offset="0%"></stop>
            <stop stop-color="#CB21EF" offset="98.0759079%"></stop>
        </linearGradient>
        <linearGradient x1="50%" y1="0%" x2="50%" y2="100%" id="linearGradient-16">
            <stop stop-color="#25A4D1" offset="0%"></stop>
            <stop stop-color="#CB21EF" offset="98.0759079%"></stop>
        </linearGradient>
        <linearGradient x1="50%" y1="0%" x2="50%" y2="100%" id="linearGradient-17">
            <stop stop-color="#25A4D1" offset="0%"></stop>
            <stop stop-color="#CB21EF" offset="98.0759079%"></stop>
        </linearGradient>
        <linearGradient x1="50%" y1="0%" x2="50%" y2="100%" id="linearGradient-18">
            <stop stop-color="#25A4D1" offset="0%"></stop>
            <stop stop-color="#CB21EF" offset="98.0759079%"></stop>
        </linearGradient>
        <linearGradient x1="50%" y1="0%" x2="50%" y2="100%" id="linearGradient-19">
            <stop stop-color="#25A4D1" offset="0%"></stop>
            <stop stop-color="#CB21EF" offset="98.0759079%"></stop>
        </linearGradient>
        <linearGradient x1="50%" y1="0%" x2="50%" y2="100%" id="linearGradient-20">
            <stop stop-color="#25A4D1" offset="0%"></stop>
            <stop stop-color="#CB21EF" offset="98.0759079%"></stop>
        </linearGradient>
        <linearGradient x1="50%" y1="0%" x2="50%" y2="100%" id="linearGradient-21">
            <stop stop-color="#25A4D1" offset="0%"></stop>
            <stop stop-color="#CB21EF" offset="98.0759079%"></stop>
        </linearGradient>
        <linearGradient x1="50%" y1="0%" x2="50%" y2="100%" id="linearGradient-22">
            <stop stop-color="#25A4D1" offset="0%"></stop>
            <stop stop-color="#CB21EF" offset="98.0759079%"></stop>
        </linearGradient>
        <linearGradient x1="50%" y1="0%" x2="50%" y2="100%" id="linearGradient-23">
            <stop stop-color="#25A4D1" offset="0%"></stop>
            <stop stop-color="#CB21EF" offset="98.0759079%"></stop>
        </linearGradient>
        <linearGradient x1="50%" y1="0%" x2="50%" y2="100%" id="linearGradient-24">
            <stop stop-color="#25A4D1" offset="0%"></stop>
            <stop stop-color="#CB21EF" offset="98.0759079%"></stop>
        </linearGradient>
        <linearGradient x1="50%" y1="0%" x2="50%" y2="100%" id="linearGradient-25">
            <stop stop-color="#25A4D1" offset="0%"></stop>
            <stop stop-color="#CB21EF" offset="98.0759079%"></stop>
        </linearGradient>
        <linearGradient x1="50%" y1="0%" x2="50%" y2="100%" id="linearGradient-26">
            <stop stop-color="#25A4D1" offset="0%"></stop>
            <stop stop-color="#CB21EF" offset="98.0759079%"></stop>
        </linearGradient>
        <linearGradient x1="50%" y1="0%" x2="50%" y2="100%" id="linearGradient-27">
            <stop stop-color="#25A4D1" offset="0%"></stop>
            <stop stop-color="#CB21EF" offset="98.0759079%"></stop>
        </linearGradient>
        <linearGradient x1="50%" y1="0%" x2="50%" y2="100%" id="linearGradient-28">
            <stop stop-color="#25A4D1" offset="0%"></stop>
            <stop stop-color="#CB21EF" offset="98.0759079%"></stop>
        </linearGradient>
        <linearGradient x1="50%" y1="0%" x2="50%" y2="100%" id="linearGradient-29">
            <stop stop-color="#25A4D1" offset="0%"></stop>
            <stop stop-color="#CB21EF" offset="98.0759079%"></stop>
        </linearGradient>
        <linearGradient x1="50%" y1="0%" x2="50%" y2="100%" id="linearGradient-30">
            <stop stop-color="#25A4D1" offset="0%"></stop>
            <stop stop-color="#CB21EF" offset="98.0759079%"></stop>
        </linearGradient>
        <linearGradient x1="50%" y1="0%" x2="50%" y2="100%" id="linearGradient-31">
            <stop stop-color="#25A4D1" offset="0%"></stop>
            <stop stop-color="#CB21EF" offset="98.0759079%"></stop>
        </linearGradient>
        <linearGradient x1="50%" y1="0%" x2="50%" y2="100%" id="linearGradient-32">
            <stop stop-color="#25A4D1" offset="0%"></stop>
            <stop stop-color="#CB21EF" offset="98.0759079%"></stop>
        </linearGradient>
        <linearGradient x1="50%" y1="0%" x2="50%" y2="100%" id="linearGradient-33">
            <stop stop-color="#25A4D1" offset="0%"></stop>
            <stop stop-color="#CB21EF" offset="98.0759079%"></stop>
        </linearGradient>
        <linearGradient x1="50%" y1="0%" x2="50%" y2="100%" id="linearGradient-34">
            <stop stop-color="#25A4D1" offset="0%"></stop>
            <stop stop-color="#CB21EF" offset="98.0759079%"></stop>
        </linearGradient>
        <linearGradient x1="50%" y1="0%" x2="50%" y2="100%" id="linearGradient-35">
            <stop stop-color="#25A4D1" offset="0%"></stop>
            <stop stop-color="#CB21EF" offset="98.0759079%"></stop>
        </linearGradient>
        <linearGradient x1="50%" y1="0%" x2="50%" y2="100%" id="linearGradient-36">
            <stop stop-color="#25A4D1" offset="0%"></stop>
            <stop stop-color="#CB21EF" offset="98.0759079%"></stop>
        </linearGradient>
        <linearGradient x1="50%" y1="0%" x2="50%" y2="100%" id="linearGradient-37">
            <stop stop-color="#25A4D1" offset="0%"></stop>
            <stop stop-color="#CB21EF" offset="98.0759079%"></stop>
        </linearGradient>
        <linearGradient x1="50%" y1="0%" x2="50%" y2="100%" id="linearGradient-38">
            <stop stop-color="#25A4D1" offset="0%"></stop>
            <stop stop-color="#CB21EF" offset="98.0759079%"></stop>
        </linearGradient>
        <linearGradient x1="50%" y1="0%" x2="50%" y2="100%" id="linearGradient-39">
            <stop stop-color="#25A4D1" offset="0%"></stop>
            <stop stop-color="#CB21EF" offset="98.0759079%"></stop>
        </linearGradient>
        <linearGradient x1="50%" y1="0%" x2="50%" y2="100%" id="linearGradient-40">
            <stop stop-color="#25A4D1" offset="0%"></stop>
            <stop stop-color="#CB21EF" offset="98.0759079%"></stop>
        </linearGradient>
        <linearGradient x1="50%" y1="0%" x2="50%" y2="100%" id="linearGradient-41">
            <stop stop-color="#25A4D1" offset="0%"></stop>
            <stop stop-color="#CB21EF" offset="98.0759079%"></stop>
        </linearGradient>
        <linearGradient x1="50%" y1="0%" x2="50%" y2="100%" id="linearGradient-42">
            <stop stop-color="#25A4D1" offset="0%"></stop>
            <stop stop-color="#CB21EF" offset="98.0759079%"></stop>
        </linearGradient>
        <linearGradient x1="50%" y1="0%" x2="50%" y2="100%" id="linearGradient-43">
            <stop stop-color="#25A4D1" offset="0%"></stop>
            <stop stop-color="#CB21EF" offset="98.0759079%"></stop>
        </linearGradient>
        <linearGradient x1="50%" y1="0%" x2="50%" y2="100%" id="linearGradient-44">
            <stop stop-color="#25A4D1" offset="0%"></stop>
            <stop stop-color="#CB21EF" offset="98.0759079%"></stop>
        </linearGradient>
        <linearGradient x1="50%" y1="0%" x2="50%" y2="100%" id="linearGradient-45">
            <stop stop-color="#25A4D1" offset="0%"></stop>
            <stop stop-color="#CB21EF" offset="98.0759079%"></stop>
        </linearGradient>
        <linearGradient x1="50%" y1="0%" x2="50%" y2="100%" id="linearGradient-46">
            <stop stop-color="#25A4D1" offset="0%"></stop>
            <stop stop-color="#CB21EF" offset="98.0759079%"></stop>
        </linearGradient>
        <linearGradient x1="50%" y1="0%" x2="50%" y2="100%" id="linearGradient-47">
            <stop stop-color="#25A4D1" offset="0%"></stop>
            <stop stop-color="#CB21EF" offset="98.0759079%"></stop>
        </linearGradient>
        <linearGradient x1="50%" y1="0%" x2="50%" y2="100%" id="linearGradient-48">
            <stop stop-color="#25A4D1" offset="0%"></stop>
            <stop stop-color="#CB21EF" offset="98.0759079%"></stop>
        </linearGradient>
        <linearGradient x1="50%" y1="0%" x2="50%" y2="100%" id="linearGradient-49">
            <stop stop-color="#25A4D1" offset="0%"></stop>
            <stop stop-color="#CB21EF" offset="98.0759079%"></stop>
        </linearGradient>
        <linearGradient x1="50%" y1="0%" x2="50%" y2="100%" id="linearGradient-50">
            <stop stop-color="#25A4D1" offset="0%"></stop>
            <stop stop-color="#CB21EF" offset="98.0759079%"></stop>
        </linearGradient>
    </defs>
    <g id="Artboard" stroke="none" stroke-width="1" fill="none" fill-rule="evenodd">
        <path d="M203.045058,219.05149 C369.159488,100.015807 354.17172,70.5636788 411.624832,209.234114 C469.077943,347.90455 410.375851,581.067229 386.645218,409.26315 C362.914585,237.45907 36.9306269,338.087174 203.045058,219.05149 Z" id="Path_50" stroke="url(#linearGradient-1)" transform="translate(296.070912, 293.468022) rotate(49.000000) translate(-296.070912, -293.468022) "></path>
        <path d="M204.373998,220.105284 C368.115366,102.755235 353.341709,73.7201716 409.974061,210.42693 C466.606414,347.133688 408.742923,576.994608 385.351299,407.623404 C361.959675,238.252199 40.632631,337.455333 204.373998,220.105284 Z" id="Path_49" stroke="url(#linearGradient-2)" transform="translate(296.070912, 293.468022) rotate(48.000000) translate(-296.070912, -293.468022) "></path>
        <path d="M205.702939,221.159074 C367.071243,105.494653 352.511697,76.8766523 408.323291,211.61974 C464.134885,346.362829 407.109996,572.922003 384.057381,405.983664 C361.004766,239.045325 44.334635,336.823495 205.702939,221.159074 Z" id="Path_48" stroke="url(#linearGradient-3)" transform="translate(296.070912, 293.468022) rotate(47.000000) translate(-296.070912, -293.468022) "></path>
        <path d="M207.03188,222.21286 C366.027121,108.23406 351.681686,80.0331204 406.672521,212.812546 C461.663356,345.591973 405.477068,568.849415 382.763462,404.343931 C360.049856,239.838447 48.0366391,336.191659 207.03188,222.21286 Z" id="Path_47" stroke="url(#linearGradient-4)" transform="translate(296.070912, 293.468022) rotate(46.000000) translate(-296.070912, -293.468022) "></path>
        <path d="M208.360821,223.266641 C364.982998,110.973456 350.851674,83.1895754 405.021751,214.005348 C459.191827,344.82112 403.84414,564.776843 381.469543,402.704205 C359.094947,240.631567 51.7386432,335.559826 208.360821,223.266641 Z" id="Path_46" stroke="url(#linearGradient-5)" transform="translate(296.070912, 293.468022) rotate(45.000000) translate(-296.070912, -293.468022) "></path>
        <path d="M209.689762,224.320418 C363.938876,113.71284 350.021663,86.3460166 403.37098,215.198143 C456.720298,344.05027 402.211212,560.704289 380.175625,401.064486 C358.140037,241.424682 55.4406472,334.927996 209.689762,224.320418 Z" id="Path_45" stroke="url(#linearGradient-6)" transform="translate(296.070912, 293.468022) rotate(44.000000) translate(-296.070912, -293.468022) "></path>
        <path d="M211.018702,225.37419 C362.894753,116.452211 349.191651,89.5024433 401.72021,216.390934 C454.248769,343.279424 400.578285,556.631753 378.881706,399.424774 C357.185127,242.217795 59.1426513,334.296168 211.018702,225.37419 Z" id="Path_44" stroke="url(#linearGradient-7)" transform="translate(296.070912, 293.468022) rotate(43.000000) translate(-296.070912, -293.468022) "></path>
        <path d="M212.347643,226.427957 C361.850631,119.191569 348.361639,92.6588548 400.06944,217.583718 C451.77724,342.508582 398.945357,552.559238 377.587787,397.78507 C356.230218,243.010903 62.8446554,333.664344 212.347643,226.427957 Z" id="Path_43" stroke="url(#linearGradient-8)" transform="translate(296.070912, 293.468022) rotate(42.000000) translate(-296.070912, -293.468022) "></path>
        <path d="M213.676584,227.481718 C360.806508,121.930913 347.531628,95.8152505 398.418669,218.776497 C449.305711,341.737744 397.312429,548.486742 376.293869,396.145375 C355.275308,243.804007 66.5466594,333.032523 213.676584,227.481718 Z" id="Path_42" stroke="url(#linearGradient-9)" transform="translate(296.070912, 293.468022) rotate(41.000000) translate(-296.070912, -293.468022) "></path>
        <path d="M215.005525,228.535474 C359.762386,124.670243 346.701616,98.9716295 396.767899,219.969269 C446.834182,340.966909 395.679502,544.414269 374.99995,394.505688 C354.320398,244.597108 70.2486635,332.400705 215.005525,228.535474 Z" id="Path_41" stroke="url(#linearGradient-10)" transform="translate(296.070912, 293.468022) rotate(40.000000) translate(-296.070912, -293.468022) "></path>
        <path d="M216.334465,229.589224 C358.718263,127.409558 345.871605,102.127991 395.117129,221.162035 C444.362653,340.196079 394.046574,540.341817 373.706031,392.86601 C353.365489,245.390203 73.9506676,331.76889 216.334465,229.589224 Z" id="Path_40" stroke="url(#linearGradient-11)" transform="translate(296.070912, 293.468022) rotate(39.000000) translate(-296.070912, -293.468022) "></path>
        <path d="M217.663406,230.642968 C357.674141,130.148856 345.041593,105.284334 393.466359,222.354794 C441.891124,339.425254 392.413646,536.26939 372.412113,391.226342 C352.410579,246.183295 77.6526716,331.13708 217.663406,230.642968 Z" id="Path_39" stroke="url(#linearGradient-12)" transform="translate(296.070912, 293.468022) rotate(38.000000) translate(-296.070912, -293.468022) "></path>
        <path d="M218.992347,231.696705 C356.630018,132.888138 344.211582,108.440657 391.815588,223.547545 C439.419595,338.654433 390.780719,532.196988 371.118194,389.586684 C351.45567,246.976381 81.3546757,330.505273 218.992347,231.696705 Z" id="Path_38" stroke="url(#linearGradient-13)" transform="translate(296.070912, 293.468022) rotate(37.000000) translate(-296.070912, -293.468022) "></path>
        <path d="M220.321288,232.750436 C355.585896,135.627402 343.38157,111.59696 390.164818,224.740289 C436.948066,337.883617 389.147791,528.124612 369.824275,387.947037 C350.50076,247.769462 85.0566798,329.87347 220.321288,232.750436 Z" id="Path_37" stroke="url(#linearGradient-14)" transform="translate(296.070912, 293.468022) rotate(36.000000) translate(-296.070912, -293.468022) "></path>
        <path d="M221.650228,233.804159 C354.541773,138.366647 342.551559,114.753242 388.514048,225.933024 C434.476537,337.112807 387.514863,524.052264 368.530357,386.307401 C349.54585,248.562538 88.7586839,329.241672 221.650228,233.804159 Z" id="Path_36" stroke="url(#linearGradient-15)" transform="translate(296.070912, 293.468022) rotate(35.000000) translate(-296.070912, -293.468022) "></path>
        <path d="M222.979169,234.857875 C353.497651,141.105873 341.721547,117.909501 386.863277,227.125751 C432.005008,336.342002 385.881935,519.979945 367.236438,384.667777 C348.590941,249.355608 92.4606879,328.609878 222.979169,234.857875 Z" id="Path_35" stroke="url(#linearGradient-16)" transform="translate(296.070912, 293.468022) rotate(34.000000) translate(-296.070912, -293.468022) "></path>
        <path d="M224.30811,235.911583 C352.453528,143.845077 340.891535,121.065735 385.212507,228.318469 C429.533479,335.571203 384.249008,515.907658 365.942519,383.028165 C347.636031,250.148672 96.162692,327.978089 224.30811,235.911583 Z" id="Path_34" stroke="url(#linearGradient-17)" transform="translate(296.070912, 293.468022) rotate(33.000000) translate(-296.070912, -293.468022) "></path>
        <path d="M225.637051,236.965282 C351.409406,146.58426 340.061524,124.221945 383.561737,229.511177 C427.06195,334.80041 382.61608,511.835403 364.648601,381.388566 C346.681122,250.941729 99.8646961,327.346305 225.637051,236.965282 Z" id="Path_33" stroke="url(#linearGradient-18)" transform="translate(296.070912, 293.468022) rotate(32.000000) translate(-296.070912, -293.468022) "></path>
        <path d="M226.965992,238.018973 C350.365283,149.323419 339.231512,127.378127 381.910967,230.703875 C424.590421,334.029624 380.983152,507.763183 363.354682,379.748981 C345.726212,251.73478 103.5667,326.714527 226.965992,238.018973 Z" id="Path_32" stroke="url(#linearGradient-19)" transform="translate(296.070912, 293.468022) rotate(31.000000) translate(-296.070912, -293.468022) "></path>
        <path d="M228.294932,239.072653 C349.32116,152.062553 338.401501,130.534281 380.260196,231.896563 C422.118892,333.258844 379.350225,503.691 362.060763,378.109412 C344.771302,252.527823 107.268704,326.082754 228.294932,239.072653 Z" id="Path_31" stroke="url(#linearGradient-20)" transform="translate(296.070912, 293.468022) rotate(30.000000) translate(-296.070912, -293.468022) "></path>
        <path d="M229.623873,240.126324 C348.277038,154.801661 337.571489,133.690404 378.609426,233.089238 C419.647363,332.488073 377.717297,499.618856 360.766845,376.469858 C343.816393,253.320859 110.970708,325.450987 229.623873,240.126324 Z" id="Path_30" stroke="url(#linearGradient-21)" transform="translate(296.070912, 293.468022) rotate(29.000000) translate(-296.070912, -293.468022) "></path>
        <path d="M230.952814,241.179984 C347.232915,157.540741 336.741478,136.846495 376.958656,234.281902 C417.175834,331.717309 376.084369,495.546754 359.472926,374.83032 C342.861483,254.113887 114.672712,324.819227 230.952814,241.179984 Z" id="Path_29" stroke="url(#linearGradient-22)" transform="translate(296.070912, 293.468022) rotate(28.000000) translate(-296.070912, -293.468022) "></path>
        <path d="M232.281755,242.233632 C346.188793,160.279791 335.911466,140.002552 375.307885,235.474552 C414.704305,330.946553 374.451442,491.474695 358.179007,373.190801 C341.906573,254.906907 118.374716,324.187473 232.281755,242.233632 Z" id="Path_28" stroke="url(#linearGradient-23)" transform="translate(296.070912, 293.468022) rotate(27.000000) translate(-296.070912, -293.468022) "></path>
        <path d="M233.610695,243.287268 C345.14467,163.01881 335.081455,143.158572 373.657115,236.667189 C412.232776,330.175806 372.818514,487.402684 356.885089,371.5513 C340.951664,255.699917 122.07672,323.555727 233.610695,243.287268 Z" id="Path_27" stroke="url(#linearGradient-24)" transform="translate(296.070912, 293.468022) rotate(26.000000) translate(-296.070912, -293.468022) "></path>
        <path d="M234.939636,244.340892 C344.100548,165.757794 334.251443,146.314554 372.006345,237.859811 C409.761247,329.405069 371.185586,483.330723 355.59117,369.91182 C339.996754,256.492917 125.778725,322.923989 234.939636,244.340892 Z" id="Path_26" stroke="url(#linearGradient-25)" transform="translate(296.070912, 293.468022) rotate(25.000000) translate(-296.070912, -293.468022) "></path>
        <path d="M236.268577,245.394501 C343.056425,168.496743 333.421431,149.470494 370.355575,239.052418 C407.289718,328.634342 369.552658,479.258816 354.297251,368.272362 C339.041845,257.285907 129.480729,322.292259 236.268577,245.394501 Z" id="Path_25" stroke="url(#linearGradient-26)" transform="translate(296.070912, 293.468022) rotate(24.000000) translate(-296.070912, -293.468022) "></path>
        <path d="M237.597518,246.448095 C342.012303,171.235653 332.59142,152.626389 368.704804,240.245007 C404.818189,327.863626 367.919731,475.186967 353.003333,366.632926 C338.086935,258.078885 133.182733,321.660538 237.597518,246.448095 Z" id="Path_24" stroke="url(#linearGradient-27)" transform="translate(296.070912, 293.468022) rotate(23.000000) translate(-296.070912, -293.468022) "></path>
        <path d="M238.926459,247.501674 C340.96818,173.974522 331.761408,155.782237 367.054034,241.437579 C402.34666,327.092921 366.286803,471.115178 351.709414,364.993515 C337.132025,258.871852 136.884737,321.028826 238.926459,247.501674 Z" id="Path_23" stroke="url(#linearGradient-28)" transform="translate(296.070912, 293.468022) rotate(22.000000) translate(-296.070912, -293.468022) "></path>
        <path d="M240.255399,248.555235 C339.924058,176.713346 330.931397,158.938033 365.403264,242.630131 C399.875131,326.322229 364.653875,467.043456 350.415495,363.354131 C336.177116,259.664806 140.586741,320.397125 240.255399,248.555235 Z" id="Path_22" stroke="url(#linearGradient-29)" transform="translate(296.070912, 293.468022) rotate(21.000000) translate(-296.070912, -293.468022) "></path>
        <path d="M241.58434,249.608779 C338.879935,179.452123 330.101385,162.093775 363.752493,243.822663 C397.403602,325.551551 363.020948,462.971805 349.121577,361.714775 C335.222206,260.457746 144.288745,319.765435 241.58434,249.608779 Z" id="Path_21" stroke="url(#linearGradient-30)" transform="translate(296.070912, 293.468022) rotate(20.000000) translate(-296.070912, -293.468022) "></path>
        <path d="M242.913281,250.662302 C337.835813,182.190848 329.271374,165.249457 362.101723,245.015172 C394.932072,324.780886 361.38802,458.90023 347.827658,360.07545 C334.267296,261.250671 147.990749,319.133756 242.913281,250.662302 Z" id="Path_20" stroke="url(#linearGradient-31)" transform="translate(296.070912, 293.468022) rotate(19.000000) translate(-296.070912, -293.468022) "></path>
        <path d="M244.242222,251.715804 C336.79169,184.929517 328.441362,168.405075 360.450953,246.207657 C392.460543,324.010238 359.755092,454.828737 346.53374,358.436159 C333.312387,262.04358 151.692753,318.502091 244.242222,251.715804 Z" id="Path_19" stroke="url(#linearGradient-32)" transform="translate(296.070912, 293.468022) rotate(18.000000) translate(-296.070912, -293.468022) "></path>
        <path d="M245.571162,252.769283 C335.747568,187.668127 327.611351,171.560625 358.800183,247.400115 C389.989014,323.239606 358.122164,450.757334 345.239821,356.796903 C332.357477,262.836472 155.394757,317.870439 245.571162,252.769283 Z" id="Path_18" stroke="url(#linearGradient-33)" transform="translate(296.070912, 293.468022) rotate(17.000000) translate(-296.070912, -293.468022) "></path>
        <path d="M246.900103,253.822737 C334.703445,190.406672 326.781339,174.716099 357.149412,248.592546 C387.517485,322.468993 356.489237,446.686027 343.945902,355.157686 C331.402568,263.629345 159.096761,317.238802 246.900103,253.822737 Z" id="Path_17" stroke="url(#linearGradient-34)" transform="translate(296.070912, 293.468022) rotate(16.000000) translate(-296.070912, -293.468022) "></path>
        <path d="M248.229044,254.876164 C333.659323,193.145146 325.951328,177.871492 355.498642,249.784946 C385.045956,321.698399 354.856309,442.614825 342.651984,353.518511 C330.447658,264.422197 162.798765,316.607181 248.229044,254.876164 Z" id="Path_16" stroke="url(#linearGradient-35)" transform="translate(296.070912, 293.468022) rotate(15.000000) translate(-296.070912, -293.468022) "></path>
        <path d="M249.557985,255.929561 C332.6152,195.883544 325.121316,181.026797 353.847872,250.977312 C382.574427,320.927827 353.223381,438.543738 341.358065,351.879383 C329.492748,265.215028 166.500769,315.975578 249.557985,255.929561 Z" id="Path_15" stroke="url(#linearGradient-36)" transform="translate(296.070912, 293.468022) rotate(14.000000) translate(-296.070912, -293.468022) "></path>
        <path d="M250.886925,256.982926 C331.571078,198.621857 324.291304,184.182005 352.197101,252.169642 C380.102898,320.157279 351.590454,434.472774 340.064146,350.240304 C328.537839,266.007834 170.202773,315.343995 250.886925,256.982926 Z" id="Path_14" stroke="url(#linearGradient-37)" transform="translate(296.070912, 293.468022) rotate(13.000000) translate(-296.070912, -293.468022) "></path>
        <path d="M252.215866,258.036256 C330.526955,201.36008 323.461293,187.337108 350.546331,253.361932 C377.631369,319.386756 349.957526,430.401947 338.770228,348.60128 C327.582929,266.800613 173.904777,314.712432 252.215866,258.036256 Z" id="Path_13" stroke="url(#linearGradient-38)" transform="translate(296.070912, 293.468022) rotate(12.000000) translate(-296.070912, -293.468022) "></path>
        <path d="M253.544807,259.089547 C329.482833,204.098202 322.631281,190.492095 348.895561,254.554179 C375.15984,318.616262 348.324598,426.331269 337.476309,346.962316 C326.62802,267.593364 177.606782,314.080893 253.544807,259.089547 Z" id="Path_12" stroke="url(#linearGradient-39)" transform="translate(296.070912, 293.468022) rotate(11.000000) translate(-296.070912, -293.468022) "></path>
        <path d="M254.873748,260.142796 C328.43871,206.836213 321.80127,193.646955 347.244791,255.746377 C372.688311,317.845799 346.691671,422.260756 336.18239,345.323419 C325.67311,268.386082 181.308786,313.449379 254.873748,260.142796 Z" id="Path_11" stroke="url(#linearGradient-40)" transform="translate(296.070912, 293.468022) rotate(10.000000) translate(-296.070912, -293.468022) "></path>
        <path d="M256.202689,261.195998 C327.394587,209.574102 320.971258,196.801674 345.59402,256.938522 C370.216782,317.07537 345.058743,418.190423 334.888472,343.684594 C324.7182,269.178765 185.01079,312.817894 256.202689,261.195998 Z" id="Path_10" stroke="url(#linearGradient-41)" transform="translate(296.070912, 293.468022) rotate(9.000000) translate(-296.070912, -293.468022) "></path>
        <path d="M257.531629,262.249148 C326.350465,212.311857 320.141247,199.956238 343.94325,258.130608 C367.745253,316.304979 343.425815,414.120291 333.594553,342.04585 C323.763291,269.971409 188.712794,312.186439 257.531629,262.249148 Z" id="Path_9" stroke="url(#linearGradient-42)" transform="translate(296.070912, 293.468022) rotate(8.000000) translate(-296.070912, -293.468022) "></path>
        <path d="M258.86057,263.30224 C325.306342,215.049461 319.311235,203.110629 342.29248,259.32263 C365.273724,315.53463 341.792887,410.050383 332.300634,340.407196 C322.808381,270.76401 192.414798,311.555019 258.86057,263.30224 Z" id="Path_8" stroke="url(#linearGradient-43)" transform="translate(296.070912, 293.468022) rotate(7.000000) translate(-296.070912, -293.468022) "></path>
        <path d="M260.189511,264.355268 C324.26222,217.786898 318.481224,206.264828 340.641709,260.514578 C362.802195,314.764328 340.15996,405.980722 331.006716,338.768642 C321.853471,271.556562 196.116802,310.923638 260.189511,264.355268 Z" id="Path_7" stroke="url(#linearGradient-44)" transform="translate(296.070912, 293.468022) rotate(6.000000) translate(-296.070912, -293.468022) "></path>
        <path d="M261.518452,265.408224 C323.218097,220.524148 317.651212,209.41881 338.990939,261.706445 C360.330666,313.994079 338.527032,401.911341 329.712797,337.130201 C320.898562,272.34906 199.818806,310.2923 261.518452,265.408224 Z" id="Path_6" stroke="url(#linearGradient-45)" transform="translate(296.070912, 293.468022) rotate(5.000000) translate(-296.070912, -293.468022) "></path>
        <path d="M262.847392,266.461099 C322.173975,223.261187 316.8212,212.57255 337.340169,262.898219 C357.859137,313.223889 336.894104,397.842272 328.418878,335.491885 C319.943652,273.141497 203.52081,309.66101 262.847392,266.461099 Z" id="Path_5" stroke="url(#linearGradient-46)" transform="translate(296.070912, 293.468022) rotate(4.000000) translate(-296.070912, -293.468022) "></path>
        <path d="M264.176333,267.513882 C321.129852,225.997988 315.991189,215.726015 335.689399,264.089891 C355.387608,312.453767 335.261177,393.773558 327.12496,333.853712 C318.988743,273.933865 207.222814,309.029775 264.176333,267.513882 Z" id="Path_4" stroke="url(#linearGradient-47)" transform="translate(296.070912, 293.468022) rotate(3.000000) translate(-296.070912, -293.468022) "></path>
        <path d="M265.505274,268.566561 C320.08573,228.734518 315.161177,218.879168 334.038628,265.281444 C352.916079,311.68372 333.628249,389.705247 325.831041,332.215701 C318.033833,274.726155 210.924818,308.398603 265.505274,268.566561 Z" id="Path_3" stroke="url(#linearGradient-48)" transform="translate(296.070912, 293.468022) rotate(2.000000) translate(-296.070912, -293.468022) "></path>
        <path d="M266.834215,269.619121 C319.041607,231.470739 314.331166,222.031964 332.387858,266.472863 C350.44455,310.913761 331.995321,385.637395 324.537122,330.577875 C317.078923,275.518355 214.626822,307.767502 266.834215,269.619121 Z" id="Path_2" stroke="url(#linearGradient-49)" transform="translate(296.070912, 293.468022) rotate(1.000000) translate(-296.070912, -293.468022) "></path>
        <path d="M268.163155,270.703162 C317.997485,234.288798 313.501154,225.279058 330.737088,267.699915 C347.973021,310.120773 330.362393,381.447878 323.243204,328.891064 C316.124014,276.334249 218.328826,307.117526 268.163155,270.703162 Z" id="Path_1" stroke="url(#linearGradient-50)"></path>
    </g>
</svg>