<svg xmlns="http://www.w3.org/2000/svg" viewBox="0 0 355 355">
    <path fill="#000" d="M298.5 246.5l-42 67-59-12-46 24-82-19 32.5-22.1 62.3 15.7 72.9-41.3-.4-.4z"/>
    <path fill="#FFF200" d="M61.1 111.8l-.4-.4v.3l.1.5 16.3 146.3 45.1-35.4h26.7l23.2-18.3z"/>
    <path fill="#FF5F85" d="M176.8 145.3L137 133.8l-28.5-32.9 49.6-38.6z"/>
    <path fill="#66FFE2" d="M296 211.5l-51.5 18-12.1-37.2L263.1 96l-27-8.9 16.1-34z"/>
    <path fill="#FF9BC5" d="M187 191.6l-50-57.8 39.8 11.5 7.4 33.1z"/>
    <path fill="#66FFE2" d="M194.3 223.1h-.2l-22-18.3-111-93 75.9 22 50 57.8-2.8-13.2zM194.1 223.1l.1.2.1-.2z"/>
    <path fill="#FFF800" d="M236.1 87.1l-76.5-25.3-.6-.2-1.1-.4.2 1.1 18.7 83 7.4 33.1 10.1 44.7.1-.1h.1l13.7-20.6 18.5-27.8 5.7 17.7L263.1 96z"/>
    <path fill="#FFFB85" d="M214.3 207l-19.8 16 13.7-20.6zM232.4 192.3l-.1.2-18 14.5-6.1-4.6 18.5-27.8z"/>
    <path fill="#FFF" d="M244.5 229.5l-.3.1-29.9-22.6 18-14.5.1-.2z"/>
    <path fill="#FF5F85" d="M244.5 229.6l-29.3 10.9-20.9-17.3.1-.2h.1l19.8-16 29.9 22.6.3-.1z"/>
    <path fill="#FF9BC5" d="M215.2 240.5l-42.8 15.8 17.7-26.7 4.2-6.4z"/>
    <path fill="#FF5F85" d="M237.2 258.8l-72.9 41.3-62.3-15.7-43.7-11.1 18.8-14.8 2.2 19.7 69.6-55h45.2l.2.1v-.1l-4.2 6.4-17.7 26.7 42.8-15.8 21.6 17.9z"/>
    <path fill="#FFFB85" d="M148.9 223.1l-69.6 55.1-2.2-19.7 45.1-35.4z"/>
    <path fill="#FF5F85" d="M194.1 223.1l.1.2.1-.2z"/>
</svg>
