<svg xmlns="http://www.w3.org/2000/svg" viewBox="0 0 640 640">
  <g fill="none" fill-rule="evenodd" stroke="#979797">
    <path d="M306.8 299c8.6-5.5 26.7 1 24.9 16.6-1.8 15.5-12 15.5-21 10.4-9-5-12.6-21.6-4-27z" opacity=".1"/>
    <path d="M306.8 299c8.6-5.5 26.7 1 24.9 16.6-1.8 15.5-12 15.5-21 10.4-9-5-12.6-21.6-4-27z" opacity=".1"/>
    <path d="M306.8 299c8.6-5.5 26.7 1 24.9 16.6-1.8 15.5-12 15.5-21 10.4-9-5-12.6-21.6-4-27z" opacity=".1"/>
    <path d="M306.8 299c8.6-5.5 26.7 1 24.9 16.6-1.8 15.5-12 15.5-21 10.4-9-5-12.6-21.6-4-27z" opacity=".1"/>
    <path d="M306.8 299c8.6-5.5 26.7 1 24.9 16.6-1.8 15.5-12 15.5-21 10.4-9-5-12.6-21.6-4-27z" opacity=".1"/>
    <path d="M306.8 299c8.6-5.5 26.7 1 24.9 16.6-1.8 15.5-12 15.5-21 10.4-9-5-12.6-21.6-4-27z" opacity=".2"/>
    <path d="M306.8 299c8.6-5.5 26.7 1 24.9 16.6-1.8 15.5-12 15.5-21 10.4-9-5-12.6-21.6-4-27z" opacity=".2"/>
    <path d="M306.8 299c8.6-5.5 26.7 1 24.9 16.6-1.8 15.5-12 15.5-21 10.4-9-5-12.6-21.6-4-27z" opacity=".2"/>
    <path d="M306.8 299c8.6-5.5 26.7 1 24.9 16.6-1.8 15.5-12 15.5-21 10.4-9-5-12.6-21.6-4-27z" opacity=".2"/>
    <path d="M306.8 299c8.6-5.5 26.7 1 24.9 16.6-1.8 15.5-12 15.5-21 10.4-9-5-12.6-21.6-4-27z" opacity=".2"/>
    <path d="M306.8 299c8.6-5.5 26.7 1 24.9 16.6-1.8 15.5-12 15.5-21 10.4-9-5-12.6-21.6-4-27z" opacity=".3"/>
    <path d="M306.8 299c8.6-5.5 26.7 1 24.9 16.6-1.8 15.5-12 15.5-21 10.4-9-5-12.6-21.6-4-27z" opacity=".3"/>
    <path d="M306.8 299c8.6-5.5 26.7 1 24.9 16.6-1.8 15.5-12 15.5-21 10.4-9-5-12.6-21.6-4-27z" opacity=".3"/>
    <path d="M306.8 299c8.6-5.5 26.7 1 24.9 16.6-1.8 15.5-12 15.5-21 10.4-9-5-12.6-21.6-4-27z" opacity=".3"/>
    <path d="M306.8 299c8.6-5.5 26.7 1 24.9 16.6-1.8 15.5-12 15.5-21 10.4-9-5-12.6-21.6-4-27z" opacity=".3"/>
    <path d="M306.8 299c8.6-5.5 26.7 1 24.9 16.6-1.8 15.5-12 15.5-21 10.4-9-5-12.6-21.6-4-27z" opacity=".4"/>
    <path d="M306.8 299c8.6-5.5 26.7 1 24.9 16.6-1.8 15.5-12 15.5-21 10.4-9-5-12.6-21.6-4-27z" opacity=".4"/>
    <path d="M306.8 299c8.6-5.5 26.7 1 24.9 16.6-1.8 15.5-12 15.5-21 10.4-9-5-12.6-21.6-4-27z" opacity=".4"/>
    <path d="M306.8 299c8.6-5.5 26.7 1 24.9 16.6-1.8 15.5-12 15.5-21 10.4-9-5-12.6-21.6-4-27z" opacity=".4"/>
    <path d="M306.8 299c8.6-5.5 26.7 1 24.9 16.6-1.8 15.5-12 15.5-21 10.4-9-5-12.6-21.6-4-27z" opacity=".4"/>
    <path d="M306.8 299c8.6-5.5 26.7 1 24.9 16.6-1.8 15.5-12 15.5-21 10.4-9-5-12.6-21.6-4-27z" opacity=".5"/>
    <path d="M306.8 299c8.6-5.5 26.7 1 24.9 16.6-1.8 15.5-12 15.5-21 10.4-9-5-12.6-21.6-4-27z" opacity=".5"/>
    <path d="M306.8 299c8.6-5.5 26.7 1 24.9 16.6-1.8 15.5-12 15.5-21 10.4-9-5-12.6-21.6-4-27z" opacity=".5"/>
    <path d="M306.8 299c8.6-5.5 26.7 1 24.9 16.6-1.8 15.5-12 15.5-21 10.4-9-5-12.6-21.6-4-27z" opacity=".5"/>
    <path d="M306.8 299c8.6-5.5 26.7 1 24.9 16.6-1.8 15.5-12 15.5-21 10.4-9-5-12.6-21.6-4-27z" opacity=".5"/>
    <path d="M306.8 299c8.6-5.5 26.7 1 24.9 16.6-1.8 15.5-12 15.5-21 10.4-9-5-12.6-21.6-4-27z" opacity=".6"/>
    <path d="M306.8 299c8.6-5.5 26.7 1 24.9 16.6-1.8 15.5-12 15.5-21 10.4-9-5-12.6-21.6-4-27z" opacity=".6"/>
    <path d="M306.8 299c8.6-5.5 26.7 1 24.9 16.6-1.8 15.5-12 15.5-21 10.4-9-5-12.6-21.6-4-27z" opacity=".6"/>
    <path d="M306.8 299c8.6-5.5 26.7 1 24.9 16.6-1.8 15.5-12 15.5-21 10.4-9-5-12.6-21.6-4-27z" opacity=".6"/>
    <path d="M306.8 299c8.6-5.5 26.7 1 24.9 16.6-1.8 15.5-12 15.5-21 10.4-9-5-12.6-21.6-4-27z" opacity=".6"/>
    <path d="M306.8 299c8.6-5.5 26.7 1 24.9 16.6-1.8 15.5-12 15.5-21 10.4-9-5-12.6-21.6-4-27z" opacity=".7"/>
    <path d="M306.8 299c8.6-5.5 26.7 1 24.9 16.6-1.8 15.5-12 15.5-21 10.4-9-5-12.6-21.6-4-27z" opacity=".7"/>
    <path d="M306.8 299c8.6-5.5 26.7 1 24.9 16.6-1.8 15.5-12 15.5-21 10.4-9-5-12.6-21.6-4-27z" opacity=".7"/>
    <path d="M306.8 299c8.6-5.5 26.7 1 24.9 16.6-1.8 15.5-12 15.5-21 10.4-9-5-12.6-21.6-4-27z" opacity=".7"/>
    <path d="M306.8 299c8.6-5.5 26.7 1 24.9 16.6-1.8 15.5-12 15.5-21 10.4-9-5-12.6-21.6-4-27z" opacity=".7"/>
    <path d="M306.8 299c8.6-5.5 26.7 1 24.9 16.6-1.8 15.5-12 15.5-21 10.4-9-5-12.6-21.6-4-27z" opacity=".8"/>
    <path d="M306.8 299c8.6-5.5 26.7 1 24.9 16.6-1.8 15.5-12 15.5-21 10.4-9-5-12.6-21.6-4-27z" opacity=".8"/>
    <path d="M306.8 299c8.6-5.5 26.7 1 24.9 16.6-1.8 15.5-12 15.5-21 10.4-9-5-12.6-21.6-4-27z" opacity=".8"/>
    <path d="M306.8 299c8.6-5.5 26.7 1 24.9 16.6-1.8 15.5-12 15.5-21 10.4-9-5-12.6-21.6-4-27z" opacity=".8"/>
    <path d="M306.8 299c8.6-5.5 26.7 1 24.9 16.6-1.8 15.5-12 15.5-21 10.4-9-5-12.6-21.6-4-27z" opacity=".8"/>
    <path d="M306.8 299c8.6-5.5 26.7 1 24.9 16.6-1.8 15.5-12 15.5-21 10.4-9-5-12.6-21.6-4-27z" opacity=".9"/>
    <path d="M306.8 299c8.6-5.5 26.7 1 24.9 16.6-1.8 15.5-12 15.5-21 10.4-9-5-12.6-21.6-4-27z" opacity=".9"/>
    <path d="M306.8 299c8.6-5.5 26.7 1 24.9 16.6-1.8 15.5-12 15.5-21 10.4-9-5-12.6-21.6-4-27z" opacity=".9"/>
    <path d="M306.8 299c8.6-5.5 26.7 1 24.9 16.6-1.8 15.5-12 15.5-21 10.4-9-5-12.6-21.6-4-27z" opacity=".9"/>
    <path d="M306.8 299c8.6-5.5 26.7 1 24.9 16.6-1.8 15.5-12 15.5-21 10.4-9-5-12.6-21.6-4-27z" opacity=".9"/>
    <path d="M306.8 299c8.6-5.5 26.7 1 24.9 16.6-1.8 15.5-12 15.5-21 10.4-9-5-12.6-21.6-4-27z"/>
    <path d="M306.8 299c8.6-5.5 26.7 1 24.9 16.6-1.8 15.5-12 15.5-21 10.4-9-5-12.6-21.6-4-27z"/>
  </g>
</svg>
