<svg xmlns="http://www.w3.org/2000/svg" viewBox="0 0 640 640">
  <g fill="none" fill-rule="evenodd" stroke="#FFF" stroke-linecap="round">
    <path d="M228.447266,475 L412.552734,475" transform="rotate(3.3 321 475)"/>
    <path d="M228.447266,470 L412.552734,470" transform="rotate(4.1 321 470)"/>
    <path d="M228.447266,465 L412.552734,465" transform="rotate(4.9 321 465)"/>
    <path d="M228.447266,460 L412.552734,460" transform="rotate(5.7 321 460)"/>
    <path d="M228.447266,455 L412.552734,455" transform="rotate(6.6 321 455)"/>
    <path d="M228.447266,450 L412.552734,450" transform="rotate(7.5 321 450)"/>
    <path d="M228.447266,445 L412.552734,445" transform="rotate(8.5 321 445)"/>
    <path d="M228.447266,440 L412.552734,440" transform="rotate(9.4 321 440)"/>
    <path d="M228.447266,435 L412.552734,435" transform="rotate(10.4 321 435)"/>
    <path d="M228.447266,430 L412.552734,430" transform="rotate(11.4 321 430)"/>
    <path d="M228.447266,425 L412.552734,425" transform="rotate(12.4 321 425)"/>
    <path d="M228.447266,420 L412.552734,420" transform="rotate(13.4 321 420)"/>
    <path d="M228.447266,415 L412.552734,415" transform="rotate(14.4 321 415)"/>
    <path d="M228.447266,410 L412.552734,410" transform="rotate(15.3 321 410)"/>
    <path d="M228.447266,405 L412.552734,405" transform="rotate(16.3 321 405)"/>
    <path d="M228.447266,400 L412.552734,400" transform="rotate(17.1 321 400)"/>
    <path d="M228.447266,395 L412.552734,395" transform="rotate(18 321 395)"/>
    <path d="M228.447266,390 L412.552734,390" transform="rotate(18.8 321 390)"/>
    <path d="M228.447266,385 L412.552734,385" transform="rotate(19.5 321 385)"/>
    <path d="M228.447266,380 L412.552734,380" transform="rotate(20.2 321 380)"/>
    <path d="M228.447266,375 L412.552734,375" transform="rotate(20.8 321 375)"/>
    <path d="M228.447266,370 L412.552734,370" transform="rotate(21.3 321 370)"/>
    <path d="M228.447266,365 L412.552734,365" transform="rotate(21.7 321 365)"/>
    <path d="M228.447266,360 L412.552734,360" transform="rotate(22.1 321 360)"/>
    <path d="M228.447266,355 L412.552734,355" transform="rotate(22.4 321 355)"/>
    <path d="M228.447266,350 L412.552734,350" transform="rotate(22.6 321 350)"/>
    <path d="M228.447266,345 L412.552734,345" transform="rotate(22.7 321 345)"/>
    <path d="M228.447266,340 L412.552734,340" transform="rotate(22.7 321 340)"/>
    <path d="M228.447266,335 L412.552734,335" transform="rotate(22.7 321 335)"/>
    <path d="M228.447266,330 L412.552734,330" transform="rotate(22.5 321 330)"/>
    <path d="M228.447266,325 L412.552734,325" transform="rotate(22.3 321 325)"/>
    <path d="M228.447266,320 L412.552734,320" transform="rotate(22 321 320)"/>
    <path d="M228.447266,315 L412.552734,315" transform="rotate(21.6 321 315)"/>
    <path d="M228.447266,310 L412.552734,310" transform="rotate(21.1 321 310)"/>
    <path d="M228.447266,305 L412.552734,305" transform="rotate(20.5 321 305)"/>
    <path d="M228.447266,300 L412.552734,300" transform="rotate(19.9 321 300)"/>
    <path d="M228.447266,295 L412.552734,295" transform="rotate(19.2 321 295)"/>
    <path d="M228.447266,290 L412.552734,290" transform="rotate(18.4 321 290)"/>
    <path d="M228.447266,285 L412.552734,285" transform="rotate(17.6 321 285)"/>
    <path d="M228.447266,280 L412.552734,280" transform="rotate(16.8 321 280)"/>
    <path d="M228.447266,275 L412.552734,275" transform="rotate(15.9 321 275)"/>
    <path d="M228.447266,270 L412.552734,270" transform="rotate(14.9 321 270)"/>
    <path d="M228.447266,265 L412.552734,265" transform="rotate(14 321 265)"/>
    <path d="M228.447266,260 L412.552734,260" transform="rotate(13 321 260)"/>
    <path d="M228.447266,255 L412.552734,255" transform="rotate(12 321 255)"/>
    <path d="M228.447266,250 L412.552734,250" transform="rotate(11 321 250)"/>
    <path d="M228.447266,245 L412.552734,245" transform="rotate(10 321 245)"/>
    <path d="M228.447266,240 L412.552734,240" transform="rotate(9 321 240)"/>
    <path d="M228.447266,235 L412.552734,235" transform="rotate(8.1 321 235)"/>
    <path d="M228.447266,230 L412.552734,230" transform="rotate(7.1 321 230)"/>
    <path d="M228.447266,225 L412.552734,225" transform="rotate(6.2 321 225)"/>
    <path d="M228.447266,220 L412.552734,220" transform="rotate(5.3 321 220)"/>
    <path d="M228.447266,215 L412.552734,215" transform="rotate(4.5 321 215)"/>
    <path d="M228.447266,210 L412.552734,210" transform="rotate(3.7 321 210)"/>
    <path d="M228.447266,205 L412.552734,205" transform="rotate(3 321 205)"/>
    <path d="M228.447266,200 L412.552734,200" transform="rotate(2.4 321 200)"/>
    <path d="M228.447266,195 L412.552734,195" transform="rotate(1.8 321 195)"/>
    <path d="M228.447266,190 L412.552734,190" transform="rotate(1.3 321 190)"/>
    <path d="M228.447266,185 L412.552734,185" transform="rotate(.9 321 185)"/>
    <path d="M228.447266,180 L412.552734,180" transform="rotate(.5 321 180)"/>
    <path d="M228.447266,175 L412.552734,175" transform="rotate(.3 321 175)"/>
    <path d="M228.447266,170 L412.552734,170" transform="rotate(.1 321 170)"/>
    <path d="M228.447266 165L412.552734 165M228 160L412.105469 160"/>
  </g>
</svg>
